<svg xmlns="http://www.w3.org/2000/svg" width="1282.095703125" height="1263.9326171875" viewBox="-543.6661376953125 -542.2935180664062 1282.095703125 1263.9326171875"><title>Neo4j Graph Visualization</title><desc>Created using Neo4j (http://www.neo4j.com/)</desc><g class="layer relationships"><g class="relationship" transform="translate(307.51750791080093 653.8947059706985) rotate(318.4216109013869)"><path class="outline" fill="#A5ABB6" stroke="none" d="M 25 0.5 L 32.21101187833899 0.5 L 32.21101187833899 -0.5 L 25 -0.5 Z M 68.43366812833898 0.5 L 75.64468000667797 0.5 L 75.64468000667797 3.5 L 82.64468000667797 0 L 75.64468000667797 -3.5 L 75.64468000667797 -0.5 L 68.43366812833898 -0.5 Z"/><text text-anchor="middle" pointer-events="none" font-size="8px" fill="#000000" x="50.32234000333899" y="3" font-family="sans-serif">KNOWS</text></g><g class="relationship" transform="translate(-162.990667558243 444.7980919988197) rotate(463.8043629935981)"><path class="outline" fill="#A5ABB6" stroke="none" d="M 25 0.5 L 30.740304759008836 0.5 L 30.740304759008836 -0.5 L 25 -0.5 Z M 66.96296100900884 0.5 L 72.70326576801767 0.5 L 72.70326576801767 3.5 L 79.70326576801767 0 L 72.70326576801767 -3.5 L 72.70326576801767 -0.5 L 66.96296100900884 -0.5 Z"/><text text-anchor="middle" pointer-events="none" font-size="8px" fill="#000000" x="48.851632884008836" y="3" transform="rotate(180 48.851632884008836 0)" font-family="sans-serif">KNOWS</text></g><g class="relationship" transform="translate(546.9935233366494 444.7667607938356) rotate(234.93422256674256)"><path class="outline" fill="#A5ABB6" stroke="none" d="M 25 0.5 L 32.01089538311583 0.5 L 32.01089538311583 -0.5 L 25 -0.5 Z M 68.23355163311584 0.5 L 75.24444701623166 0.5 L 75.24444701623166 3.5 L 82.24444701623166 0 L 75.24444701623166 -3.5 L 75.24444701623166 -0.5 L 68.23355163311584 -0.5 Z"/><text text-anchor="middle" pointer-events="none" font-size="8px" fill="#000000" x="50.12222350811583" y="3" transform="rotate(180 50.12222350811583 0)" font-family="sans-serif">KNOWS</text></g><g class="relationship" transform="translate(208.65559757422085 316.81836302430366) rotate(511.43681214518483)"><path class="outline" fill="#A5ABB6" stroke="none" d="M 24.018736134675446,-6.953439040707552 L 24.277555179777966,-5.987513214418485 A 109.80153018508278 109.80153018508278 0 0 1 33.05577133134662,-7.958052665545338 L 32.87689849588956,-8.941924866969671 A 110.80153018508278 110.80153018508278 0 0 0 24.018736134675446,-6.953439040707552 Z M 69.09603689393441,-9.508523545994251 L 68.94802671308706,-8.519537708701563 A 109.80153018508278 109.80153018508278 0 0 1 77.78358513491312,-6.824541571063929 L 77.09814925657294,-3.9038947836752156 L 84.71266695187683,-5.711965652834933 L 78.69749963936671,-10.718737287582211 L 78.01206376102652,-7.798090500193499 A 110.80153018508278 110.80153018508278 0 0 0 69.09603689393441,-9.508523545994251"/><text text-anchor="middle" pointer-events="none" font-size="8px" fill="#000000" x="50.9709775129232" y="-7.215415440652308" transform="rotate(180 50.9709775129232 -10.215415440652308)" font-family="sans-serif">KNOWS</text></g><g class="relationship" transform="translate(112.87681387845089 368.95884915528285) rotate(331.43681214518483)"><path class="outline" fill="#A5ABB6" stroke="none" d="M 24.018736134675446,-6.953439040707552 L 24.277555179777966,-5.987513214418485 A 109.80153018508278 109.80153018508278 0 0 1 33.05577133134662,-7.958052665545338 L 32.87689849588956,-8.941924866969671 A 110.80153018508278 110.80153018508278 0 0 0 24.018736134675446,-6.953439040707552 Z M 69.09603689393441,-9.508523545994251 L 68.94802671308706,-8.519537708701563 A 109.80153018508278 109.80153018508278 0 0 1 77.78358513491312,-6.824541571063929 L 77.09814925657294,-3.9038947836752156 L 84.71266695187683,-5.711965652834933 L 78.69749963936671,-10.718737287582211 L 78.01206376102652,-7.798090500193499 A 110.80153018508278 110.80153018508278 0 0 0 69.09603689393441,-9.508523545994251"/><text text-anchor="middle" pointer-events="none" font-size="8px" fill="#000000" x="50.9709775129232" y="-7.215415440652308" font-family="sans-serif">KNOWS</text></g><g class="relationship" transform="translate(-324.8682970291439 100.52879193623646) rotate(263.70873365024806)"><path class="outline" fill="#A5ABB6" stroke="none" d="M 25 0.5 L 34.374939940361585 0.5 L 34.374939940361585 -0.5 L 25 -0.5 Z M 70.59759619036159 0.5 L 79.97253613072317 0.5 L 79.97253613072317 3.5 L 86.97253613072317 0 L 79.97253613072317 -3.5 L 79.97253613072317 -0.5 L 70.59759619036159 -0.5 Z"/><text text-anchor="middle" pointer-events="none" font-size="8px" fill="#000000" x="52.486268065361585" y="3" transform="rotate(180 52.486268065361585 0)" font-family="sans-serif">KNOWS</text></g><g class="relationship" transform="translate(297.49639606150595 380.73562825807517) rotate(215.73344786392943)"><path class="outline" fill="#A5ABB6" stroke="none" d="M 25 0.5 L 33.11093487376197 0.5 L 33.11093487376197 -0.5 L 25 -0.5 Z M 69.33359112376198 0.5 L 77.44452599752394 0.5 L 77.44452599752394 3.5 L 84.44452599752394 0 L 77.44452599752394 -3.5 L 77.44452599752394 -0.5 L 69.33359112376198 -0.5 Z"/><text text-anchor="middle" pointer-events="none" font-size="8px" fill="#000000" x="51.22226299876197" y="3" transform="rotate(180 51.22226299876197 0)" font-family="sans-serif">KNOWS</text></g><g class="relationship" transform="translate(709.4294284923546 238.08265785010133) rotate(525.0864297760413)"><path class="outline" fill="#A5ABB6" stroke="none" d="M 24.018736134675446,6.953439040707552 L 24.277555179777966,5.987513214418485 A 95.2625733082209 95.2625733082209 0 0 0 29.464847811228662,7.222937806629176 L 29.260481343369328,8.201832257943877 A 96.2625733082209 96.2625733082209 0 0 1 24.018736134675446,6.953439040707552 Z M 65.4505424654898,8.805866263290568 L 65.27895740952852,7.82069695369411 A 95.2625733082209 95.2625733082209 0 0 0 70.50458921424551,6.75907036733168 L 69.82526894099303,3.836995083163221 L 77.43598492284733,5.661002277103973 L 71.41034957858216,10.655170746222957 L 70.73102930532967,7.733095462054499 A 96.2625733082209 96.2625733082209 0 0 1 65.4505424654898,8.805866263290568"/><text text-anchor="middle" pointer-events="none" font-size="8px" fill="#000000" x="47.33521076104461" y="12.720170880670466" transform="rotate(180 47.33521076104461 9.720170880670466)" font-family="sans-serif">KNOWS</text></g><g class="relationship" transform="translate(-258.13932549220743 -229.14365786349651) rotate(333.0834523693354)"><path class="outline" fill="#A5ABB6" stroke="none" d="M 25 0.5 L 37.07642058757052 0.5 L 37.07642058757052 -0.5 L 25 -0.5 Z M 73.29907683757051 0.5 L 85.37549742514103 0.5 L 85.37549742514103 3.5 L 92.37549742514103 0 L 85.37549742514103 -3.5 L 85.37549742514103 -0.5 L 73.29907683757051 -0.5 Z"/><text text-anchor="middle" pointer-events="none" font-size="8px" fill="#000000" x="55.18774871257052" y="3" font-family="sans-serif">KNOWS</text></g><g class="relationship" transform="translate(19.271158308562516 -361.96411190652776) rotate(185.9472253214796)"><path class="outline" fill="#A5ABB6" stroke="none" d="M 25 0.5 L 32.029782632575866 0.5 L 32.029782632575866 -0.5 L 25 -0.5 Z M 68.25243888257586 0.5 L 75.28222151515173 0.5 L 75.28222151515173 3.5 L 82.28222151515173 0 L 75.28222151515173 -3.5 L 75.28222151515173 -0.5 L 68.25243888257586 -0.5 Z"/><text text-anchor="middle" pointer-events="none" font-size="8px" fill="#000000" x="50.141110757575866" y="3" transform="rotate(180 50.141110757575866 0)" font-family="sans-serif">KNOWS</text></g><g class="relationship" transform="translate(285.72717070550146 -65.98865341297433) rotate(484.0409129697862)"><path class="outline" fill="#A5ABB6" stroke="none" d="M 25 0.5 L 36.78489255864187 0.5 L 36.78489255864187 -0.5 L 25 -0.5 Z M 73.00754880864187 0.5 L 84.79244136728374 0.5 L 84.79244136728374 3.5 L 91.79244136728374 0 L 84.79244136728374 -3.5 L 84.79244136728374 -0.5 L 73.00754880864187 -0.5 Z"/><text text-anchor="middle" pointer-events="none" font-size="8px" fill="#000000" x="54.89622068364187" y="3" transform="rotate(180 54.89622068364187 0)" font-family="sans-serif">KNOWS</text></g><g class="relationship" transform="translate(285.72717070550146 -65.98865341297433) rotate(309.9537591448254)"><path class="outline" fill="#A5ABB6" stroke="none" d="M 25 0.5 L 46.1353639074657 0.5 L 46.1353639074657 -0.5 L 25 -0.5 Z M 82.3580201574657 0.5 L 103.4933840649314 0.5 L 103.4933840649314 3.5 L 110.4933840649314 0 L 103.4933840649314 -3.5 L 103.4933840649314 -0.5 L 82.3580201574657 -0.5 Z"/><text text-anchor="middle" pointer-events="none" font-size="8px" fill="#000000" x="64.2466920324657" y="3" font-family="sans-serif">KNOWS</text></g><g class="relationship" transform="translate(494.32733580450656 -275.5947346968535) rotate(183.4457413269858)"><path class="outline" fill="#A5ABB6" stroke="none" d="M 25 0.5 L 42.144306936498566 0.5 L 42.144306936498566 -0.5 L 25 -0.5 Z M 78.36696318649857 0.5 L 95.51127012299713 0.5 L 95.51127012299713 3.5 L 102.51127012299713 0 L 95.51127012299713 -3.5 L 95.51127012299713 -0.5 L 78.36696318649857 -0.5 Z"/><text text-anchor="middle" pointer-events="none" font-size="8px" fill="#000000" x="60.255635061498566" y="3" transform="rotate(180 60.255635061498566 0)" font-family="sans-serif">KNOWS</text></g><g class="relationship" transform="translate(494.32733580450656 -275.5947346968535) rotate(400.89466748675824)"><path class="outline" fill="#A5ABB6" stroke="none" d="M 25 0.5 L 40.80668403320933 0.5 L 40.80668403320933 -0.5 L 25 -0.5 Z M 77.02934028320934 0.5 L 92.83602431641866 0.5 L 92.83602431641866 3.5 L 99.83602431641866 0 L 92.83602431641866 -3.5 L 92.83602431641866 -0.5 L 77.02934028320934 -0.5 Z"/><text text-anchor="middle" pointer-events="none" font-size="8px" fill="#000000" x="58.91801215820933" y="3" font-family="sans-serif">KNOWS</text></g><g class="relationship" transform="translate(288.2545474128754 -189.922875856622) rotate(187.54098202214294)"><path class="outline" fill="#A5ABB6" stroke="none" d="M 25 0.5 L 35.644618048242876 0.5 L 35.644618048242876 -0.5 L 25 -0.5 Z M 71.86727429824288 0.5 L 82.51189234648575 0.5 L 82.51189234648575 3.5 L 89.51189234648575 0 L 82.51189234648575 -3.5 L 82.51189234648575 -0.5 L 71.86727429824288 -0.5 Z"/><text text-anchor="middle" pointer-events="none" font-size="8px" fill="#000000" x="53.755946173242876" y="3" transform="rotate(180 53.755946173242876 0)" font-family="sans-serif">KNOWS</text></g><g class="relationship" transform="translate(288.2545474128754 -189.922875856622) rotate(310.17035312318194)"><path class="outline" fill="#A5ABB6" stroke="none" d="M 25 0.5 L 39.46186379910987 0.5 L 39.46186379910987 -0.5 L 25 -0.5 Z M 75.68452004910986 0.5 L 90.14638384821974 0.5 L 90.14638384821974 3.5 L 97.14638384821974 0 L 90.14638384821974 -3.5 L 90.14638384821974 -0.5 L 75.68452004910986 -0.5 Z"/><text text-anchor="middle" pointer-events="none" font-size="8px" fill="#000000" x="57.57319192410987" y="3" font-family="sans-serif">KNOWS</text></g><g class="relationship" transform="translate(483.6014246682779 -165.47920431726845) rotate(182.25917319272907)"><path class="outline" fill="#A5ABB6" stroke="none" d="M 25 0.5 L 33.864081458125966 0.5 L 33.864081458125966 -0.5 L 25 -0.5 Z M 70.08673770812597 0.5 L 78.95081916625193 0.5 L 78.95081916625193 3.5 L 85.95081916625193 0 L 78.95081916625193 -3.5 L 78.95081916625193 -0.5 L 70.08673770812597 -0.5 Z"/><text text-anchor="middle" pointer-events="none" font-size="8px" fill="#000000" x="51.975409583125966" y="3" transform="rotate(180 51.975409583125966 0)" font-family="sans-serif">KNOWS</text></g><g class="relationship" transform="translate(483.6014246682779 -165.47920431726845) rotate(275.563400800786)"><path class="outline" fill="#A5ABB6" stroke="none" d="M 25 0.5 L 33.707012415185204 0.5 L 33.707012415185204 -0.5 L 25 -0.5 Z M 69.9296686651852 0.5 L 78.63668108037041 0.5 L 78.63668108037041 3.5 L 85.63668108037041 0 L 78.63668108037041 -3.5 L 78.63668108037041 -0.5 L 69.9296686651852 -0.5 Z"/><text text-anchor="middle" pointer-events="none" font-size="8px" fill="#000000" x="51.818340540185204" y="3" font-family="sans-serif">KNOWS</text></g><g class="relationship" transform="translate(601.821912716056 -69.40986154949206) rotate(263.9780896255346)"><path class="outline" fill="#A5ABB6" stroke="none" d="M 25 0.5 L 40.96317497524725 0.5 L 40.96317497524725 -0.5 L 25 -0.5 Z M 77.18583122524726 0.5 L 93.1490062004945 0.5 L 93.1490062004945 3.5 L 100.1490062004945 0 L 93.1490062004945 -3.5 L 93.1490062004945 -0.5 L 77.18583122524726 -0.5 Z"/><text text-anchor="middle" pointer-events="none" font-size="8px" fill="#000000" x="59.07450310024725" y="3" transform="rotate(180 59.07450310024725 0)" font-family="sans-serif">KNOWS</text></g><g class="relationship" transform="translate(588.6926845442205 -193.86827677555578) rotate(524.8830912800324)"><path class="outline" fill="#A5ABB6" stroke="none" d="M 25 0.5 L 32.81778250836141 0.5 L 32.81778250836141 -0.5 L 25 -0.5 Z M 69.0404387583614 0.5 L 76.85822126672282 0.5 L 76.85822126672282 3.5 L 83.85822126672282 0 L 76.85822126672282 -3.5 L 76.85822126672282 -0.5 L 69.0404387583614 -0.5 Z"/><text text-anchor="middle" pointer-events="none" font-size="8px" fill="#000000" x="50.92911063336141" y="3" transform="rotate(180 50.92911063336141 0)" font-family="sans-serif">KNOWS</text></g><g class="relationship" transform="translate(498.22068484513085 -3.050985751123221) rotate(327.3595403404346)"><path class="outline" fill="#A5ABB6" stroke="none" d="M 25 0.5 L 39.90435039191692 0.5 L 39.90435039191692 -0.5 L 25 -0.5 Z M 76.12700664191692 0.5 L 91.03135703383384 0.5 L 91.03135703383384 3.5 L 98.03135703383384 0 L 91.03135703383384 -3.5 L 91.03135703383384 -0.5 L 76.12700664191692 -0.5 Z"/><text text-anchor="middle" pointer-events="none" font-size="8px" fill="#000000" x="58.01567851691692" y="3" font-family="sans-serif">KNOWS</text></g><g class="relationship" transform="translate(372.73684337506506 -169.85286277935043) rotate(193.3637286391828)"><path class="outline" fill="#A5ABB6" stroke="none" d="M 25 0.5 L 27.360129625575006 0.5 L 27.360129625575006 -0.5 L 25 -0.5 Z M 52.473410875575006 0.5 L 54.83354050115001 0.5 L 54.83354050115001 3.5 L 61.83354050115001 0 L 54.83354050115001 -3.5 L 54.83354050115001 -0.5 L 52.473410875575006 -0.5 Z"/><text text-anchor="middle" pointer-events="none" font-size="8px" fill="#000000" x="39.916770250575006" y="3" transform="rotate(180 39.916770250575006 0)" font-family="sans-serif">KN…</text></g><g class="relationship" transform="translate(611.0714828078377 264.27863010507264) rotate(345.0864297760413)"><path class="outline" fill="#A5ABB6" stroke="none" d="M 24.018736134675446,6.953439040707552 L 24.277555179777966,5.987513214418485 A 95.2625733082209 95.2625733082209 0 0 0 29.464847811228662,7.222937806629176 L 29.260481343369328,8.201832257943877 A 96.2625733082209 96.2625733082209 0 0 1 24.018736134675446,6.953439040707552 Z M 65.4505424654898,8.805866263290568 L 65.27895740952852,7.82069695369411 A 95.2625733082209 95.2625733082209 0 0 0 70.50458921424551,6.75907036733168 L 69.82526894099303,3.836995083163221 L 77.43598492284733,5.661002277103973 L 71.41034957858216,10.655170746222957 L 70.73102930532967,7.733095462054499 A 96.2625733082209 96.2625733082209 0 0 1 65.4505424654898,8.805866263290568"/><text text-anchor="middle" pointer-events="none" font-size="8px" fill="#000000" x="47.33521076104461" y="12.720170880670466" font-family="sans-serif">KNOWS</text></g><g class="relationship" transform="translate(-153.4794884341143 -282.2786360113483) rotate(421.3846431621973)"><path class="outline" fill="#A5ABB6" stroke="none" d="M 25 0.5 L 37.59688425755896 0.5 L 37.59688425755896 -0.5 L 25 -0.5 Z M 73.81954050755897 0.5 L 86.41642476511792 0.5 L 86.41642476511792 3.5 L 93.41642476511792 0 L 86.41642476511792 -3.5 L 86.41642476511792 -0.5 L 73.81954050755897 -0.5 Z"/><text text-anchor="middle" pointer-events="none" font-size="8px" fill="#000000" x="55.70821238255896" y="3" font-family="sans-serif">KNOWS</text></g><g class="relationship" transform="translate(-198.17964108589754 36.95602088023652) rotate(513.3523565395802)"><path class="outline" fill="#A5ABB6" stroke="none" d="M 25 0.5 L 49.260938602622076 0.5 L 49.260938602622076 -0.5 L 25 -0.5 Z M 85.48359485262208 0.5 L 109.74453345524415 0.5 L 109.74453345524415 3.5 L 116.74453345524415 0 L 109.74453345524415 -3.5 L 109.74453345524415 -0.5 L 85.48359485262208 -0.5 Z"/><text text-anchor="middle" pointer-events="none" font-size="8px" fill="#000000" x="67.37226672762208" y="3" transform="rotate(180 67.37226672762208 0)" font-family="sans-serif">KNOWS</text></g><g class="relationship" transform="translate(-198.17964108589754 36.95602088023652) rotate(293.8304173264802)"><path class="outline" fill="#A5ABB6" stroke="none" d="M 25 0.5 L 38.88583731832104 0.5 L 38.88583731832104 -0.5 L 25 -0.5 Z M 75.10849356832104 0.5 L 88.99433088664208 0.5 L 88.99433088664208 3.5 L 95.99433088664208 0 L 88.99433088664208 -3.5 L 88.99433088664208 -0.5 L 75.10849356832104 -0.5 Z"/><text text-anchor="middle" pointer-events="none" font-size="8px" fill="#000000" x="56.99716544332104" y="3" font-family="sans-serif">KNOWS</text></g><g class="relationship" transform="translate(-444.0673199190706 -45.56864507481447) rotate(378.0271256112154)"><path class="outline" fill="#A5ABB6" stroke="none" d="M 25 0.5 L 34.61310236544315 0.5 L 34.61310236544315 -0.5 L 25 -0.5 Z M 70.83575861544315 0.5 L 80.4488609808863 0.5 L 80.4488609808863 3.5 L 87.4488609808863 0 L 80.4488609808863 -3.5 L 80.4488609808863 -0.5 L 70.83575861544315 -0.5 Z"/><text text-anchor="middle" pointer-events="none" font-size="8px" fill="#000000" x="52.72443049044315" y="3" font-family="sans-serif">KNOWS</text></g><g class="relationship" transform="translate(323.4027903952628 -390.3985609806784) rotate(427.83632659752936)"><path class="outline" fill="#A5ABB6" stroke="none" d="M 25 0.5 L 36.23276432748699 0.5 L 36.23276432748699 -0.5 L 25 -0.5 Z M 72.45542057748699 0.5 L 83.68818490497398 0.5 L 83.68818490497398 3.5 L 90.68818490497398 0 L 83.68818490497398 -3.5 L 83.68818490497398 -0.5 L 72.45542057748699 -0.5 Z"/><text text-anchor="middle" pointer-events="none" font-size="8px" fill="#000000" x="54.34409245248699" y="3" font-family="sans-serif">KNOWS</text></g><g class="relationship" transform="translate(-87.43364387691237 -373.079877457526) rotate(486.03091346929193)"><path class="outline" fill="#A5ABB6" stroke="none" d="M 25 0.5 L 34.52894046947935 0.5 L 34.52894046947935 -0.5 L 25 -0.5 Z M 70.75159671947935 0.5 L 80.2805371889587 0.5 L 80.2805371889587 3.5 L 87.2805371889587 0 L 80.2805371889587 -3.5 L 80.2805371889587 -0.5 L 70.75159671947935 -0.5 Z"/><text text-anchor="middle" pointer-events="none" font-size="8px" fill="#000000" x="52.64026859447935" y="3" transform="rotate(180 52.64026859447935 0)" font-family="sans-serif">KNOWS</text></g><g class="relationship" transform="translate(367.04658522754875 -283.2585810514065) rotate(447.1275294878294)"><path class="outline" fill="#A5ABB6" stroke="none" d="M 25 0.5 L 35.16286490005834 0.5 L 35.16286490005834 -0.5 L 25 -0.5 Z M 71.38552115005834 0.5 L 81.54838605011668 0.5 L 81.54838605011668 3.5 L 88.54838605011668 0 L 81.54838605011668 -3.5 L 81.54838605011668 -0.5 L 71.38552115005834 -0.5 Z"/><text text-anchor="middle" pointer-events="none" font-size="8px" fill="#000000" x="53.27419302505834" y="3" font-family="sans-serif">KNOWS</text></g><g class="relationship" transform="translate(-96.766645924031 -178.32622791716645) rotate(476.66395879673405)"><path class="outline" fill="#A5ABB6" stroke="none" d="M 24.018736134675446,-6.953439040707552 L 24.277555179777966,-5.987513214418485 A 125.73905019851796 125.73905019851796 0 0 1 37.02454498546359,-8.7037695438338 L 36.86710247999264,-9.69129769911396 A 126.73905019851796 126.73905019851796 0 0 0 24.018736134675446,-6.953439040707552 Z M 73.10472088659638,-10.22155761870664 L 72.97624032139699,-9.229845591772389 A 125.73905019851796 125.73905019851796 0 0 1 85.7972486793799,-6.887722145436976 L 85.10591136095633,-3.968466638949937 L 92.72406774758693,-5.761144320196472 L 86.71903177061134,-10.780062820753027 L 86.02769445218776,-7.860807314265989 A 126.73905019851796 126.73905019851796 0 0 0 73.10472088659638,-10.22155761870664"/><text text-anchor="middle" pointer-events="none" font-size="8px" fill="#000000" x="54.974175739444604" y="-7.758454437024781" transform="rotate(180 54.974175739444604 -10.758454437024781)" font-family="sans-serif">KNOWS</text></g><g class="relationship" transform="translate(-149.29418354348894 -73.72297508365716) rotate(197.11558190596713)"><path class="outline" fill="#A5ABB6" stroke="none" d="M 25 0.5 L 40.1909417955271 0.5 L 40.1909417955271 -0.5 L 25 -0.5 Z M 76.4135980455271 0.5 L 91.6045398410542 0.5 L 91.6045398410542 3.5 L 98.6045398410542 0 L 91.6045398410542 -3.5 L 91.6045398410542 -0.5 L 76.4135980455271 -0.5 Z"/><text text-anchor="middle" pointer-events="none" font-size="8px" fill="#000000" x="58.3022699205271" y="3" transform="rotate(180 58.3022699205271 0)" font-family="sans-serif">KNOWS</text></g><g class="relationship" transform="translate(-149.29418354348894 -73.72297508365716) rotate(296.66395879673405)"><path class="outline" fill="#A5ABB6" stroke="none" d="M 24.018736134675446,-6.953439040707552 L 24.277555179777966,-5.987513214418485 A 125.73905019851796 125.73905019851796 0 0 1 37.02454498546359,-8.7037695438338 L 36.86710247999264,-9.69129769911396 A 126.73905019851796 126.73905019851796 0 0 0 24.018736134675446,-6.953439040707552 Z M 73.10472088659638,-10.22155761870664 L 72.97624032139699,-9.229845591772389 A 125.73905019851796 125.73905019851796 0 0 1 85.7972486793799,-6.887722145436976 L 85.10591136095633,-3.968466638949937 L 92.72406774758693,-5.761144320196472 L 86.71903177061134,-10.780062820753027 L 86.02769445218776,-7.860807314265989 A 126.73905019851796 126.73905019851796 0 0 0 73.10472088659638,-10.22155761870664"/><text text-anchor="middle" pointer-events="none" font-size="8px" fill="#000000" x="54.974175739444604" y="-7.758454437024781" font-family="sans-serif">KNOWS</text></g><g class="relationship" transform="translate(-267.4246508036935 -110.09982176124167) rotate(274.4599955450081)"><path class="outline" fill="#A5ABB6" stroke="none" d="M 25 0.5 L 38.09137738337842 0.5 L 38.09137738337842 -0.5 L 25 -0.5 Z M 74.31403363337841 0.5 L 87.40541101675684 0.5 L 87.40541101675684 3.5 L 94.40541101675684 0 L 87.40541101675684 -3.5 L 87.40541101675684 -0.5 L 74.31403363337841 -0.5 Z"/><text text-anchor="middle" pointer-events="none" font-size="8px" fill="#000000" x="56.20270550837842" y="3" font-family="sans-serif">KNOWS</text></g><g class="relationship" transform="translate(-267.4246508036935 -110.09982176124167) rotate(485.0626568033546)"><path class="outline" fill="#A5ABB6" stroke="none" d="M 25 0.5 L 39.065191692437466 0.5 L 39.065191692437466 -0.5 L 25 -0.5 Z M 75.28784794243747 0.5 L 89.35303963487493 0.5 L 89.35303963487493 3.5 L 96.35303963487493 0 L 89.35303963487493 -3.5 L 89.35303963487493 -0.5 L 75.28784794243747 -0.5 Z"/><text text-anchor="middle" pointer-events="none" font-size="8px" fill="#000000" x="57.176519817437466" y="3" transform="rotate(180 57.176519817437466 0)" font-family="sans-serif">KNOWS</text></g><g class="relationship" transform="translate(-275.74864417668954 204.4943417356271) rotate(381.22085058357396)"><path class="outline" fill="#A5ABB6" stroke="none" d="M 25 0.5 L 34.90438265959036 0.5 L 34.90438265959036 -0.5 L 25 -0.5 Z M 71.12703890959037 0.5 L 81.03142156918072 0.5 L 81.03142156918072 3.5 L 88.03142156918072 0 L 81.03142156918072 -3.5 L 81.03142156918072 -0.5 L 71.12703890959037 -0.5 Z"/><text text-anchor="middle" pointer-events="none" font-size="8px" fill="#000000" x="53.01571078459036" y="3" font-family="sans-serif">KNOWS</text></g><g class="relationship" transform="translate(-275.74864417668954 204.4943417356271) rotate(244.71109900116744)"><path class="outline" fill="#A5ABB6" stroke="none" d="M 25 0.5 L 35.881227570140226 0.5 L 35.881227570140226 -0.5 L 25 -0.5 Z M 72.10388382014023 0.5 L 82.98511139028045 0.5 L 82.98511139028045 3.5 L 89.98511139028045 0 L 82.98511139028045 -3.5 L 82.98511139028045 -0.5 L 72.10388382014023 -0.5 Z"/><text text-anchor="middle" pointer-events="none" font-size="8px" fill="#000000" x="53.992555695140226" y="3" transform="rotate(180 53.992555695140226 0)" font-family="sans-serif">KNOWS</text></g><g class="relationship" transform="translate(500.7294762672901 109.3809787187542) rotate(268.72172196766616)"><path class="outline" fill="#A5ABB6" stroke="none" d="M 25 0.5 L 34.618647575145204 0.5 L 34.618647575145204 -0.5 L 25 -0.5 Z M 70.8413038251452 0.5 L 80.45995140029041 0.5 L 80.45995140029041 3.5 L 87.45995140029041 0 L 80.45995140029041 -3.5 L 80.45995140029041 -0.5 L 70.8413038251452 -0.5 Z"/><text text-anchor="middle" pointer-events="none" font-size="8px" fill="#000000" x="52.729975700145204" y="3" transform="rotate(180 52.729975700145204 0)" font-family="sans-serif">KNOWS</text></g><g class="relationship" transform="translate(98.33776103024535 478.02853387375666) rotate(277.5927998297721)"><path class="outline" fill="#A5ABB6" stroke="none" d="M 25 0.5 L 33.405896864793405 0.5 L 33.405896864793405 -0.5 L 25 -0.5 Z M 69.6285531147934 0.5 L 78.03444997958681 0.5 L 78.03444997958681 3.5 L 85.03444997958681 0 L 78.03444997958681 -3.5 L 78.03444997958681 -0.5 L 69.6285531147934 -0.5 Z"/><text text-anchor="middle" pointer-events="none" font-size="8px" fill="#000000" x="51.517224989793405" y="3" font-family="sans-serif">KNOWS</text></g><g class="relationship" transform="translate(396.7310740303573 -85.98346288186184) rotate(399.25405798976016)"><path class="outline" fill="#A5ABB6" stroke="none" d="M 25 0.5 L 43.92098616797816 0.5 L 43.92098616797816 -0.5 L 25 -0.5 Z M 80.14364241797816 0.5 L 99.06462858595631 0.5 L 99.06462858595631 3.5 L 106.06462858595631 0 L 99.06462858595631 -3.5 L 99.06462858595631 -0.5 L 80.14364241797816 -0.5 Z"/><text text-anchor="middle" pointer-events="none" font-size="8px" fill="#000000" x="62.03231429297816" y="3" font-family="sans-serif">KNOWS</text></g><g class="relationship" transform="translate(396.7310740303573 -85.98346288186184) rotate(317.5381227189264)"><path class="outline" fill="#A5ABB6" stroke="none" d="M 25 0.5 L 37.26572752132179 0.5 L 37.26572752132179 -0.5 L 25 -0.5 Z M 73.48838377132179 0.5 L 85.75411129264359 0.5 L 85.75411129264359 3.5 L 92.75411129264359 0 L 85.75411129264359 -3.5 L 85.75411129264359 -0.5 L 73.48838377132179 -0.5 Z"/><text text-anchor="middle" pointer-events="none" font-size="8px" fill="#000000" x="55.37705564632179" y="3" font-family="sans-serif">KNOWS</text></g><g class="relationship" transform="translate(396.7310740303573 -85.98346288186184) rotate(223.77637271178196)"><path class="outline" fill="#A5ABB6" stroke="none" d="M 25 0.5 L 53.506177152616544 0.5 L 53.506177152616544 -0.5 L 25 -0.5 Z M 89.72883340261654 0.5 L 118.23501055523309 0.5 L 118.23501055523309 3.5 L 125.23501055523309 0 L 118.23501055523309 -3.5 L 118.23501055523309 -0.5 L 89.72883340261654 -0.5 Z"/><text text-anchor="middle" pointer-events="none" font-size="8px" fill="#000000" x="71.61750527761654" y="3" transform="rotate(180 71.61750527761654 0)" font-family="sans-serif">KNOWS</text></g><g class="relationship" transform="translate(-265.5383515252649 91.65373301490882) rotate(455.17028329653886)"><path class="outline" fill="#A5ABB6" stroke="none" d="M 25 0.5 L 35.03947295603057 0.5 L 35.03947295603057 -0.5 L 25 -0.5 Z M 71.26212920603058 0.5 L 81.30160216206114 0.5 L 81.30160216206114 3.5 L 88.30160216206114 0 L 81.30160216206114 -3.5 L 81.30160216206114 -0.5 L 71.26212920603058 -0.5 Z"/><text text-anchor="middle" pointer-events="none" font-size="8px" fill="#000000" x="53.15080108103057" y="3" transform="rotate(180 53.15080108103057 0)" font-family="sans-serif">KNOWS</text></g><g class="relationship" transform="translate(-265.5383515252649 91.65373301490882) rotate(235.04403387300687)"><path class="outline" fill="#A5ABB6" stroke="none" d="M 25 0.5 L 40.872849790883365 0.5 L 40.872849790883365 -0.5 L 25 -0.5 Z M 77.09550604088336 0.5 L 92.96835583176673 0.5 L 92.96835583176673 3.5 L 99.96835583176673 0 L 92.96835583176673 -3.5 L 92.96835583176673 -0.5 L 77.09550604088336 -0.5 Z"/><text text-anchor="middle" pointer-events="none" font-size="8px" fill="#000000" x="58.984177915883365" y="3" transform="rotate(180 58.984177915883365 0)" font-family="sans-serif">KNOWS</text></g><g class="relationship" transform="translate(-67.04287960165523 403.6247181115747) rotate(516.7747304590818)"><path class="outline" fill="#A5ABB6" stroke="none" d="M 25 0.5 L 30.593137036088464 0.5 L 30.593137036088464 -0.5 L 25 -0.5 Z M 66.81579328608846 0.5 L 72.40893032217693 0.5 L 72.40893032217693 3.5 L 79.40893032217693 0 L 72.40893032217693 -3.5 L 72.40893032217693 -0.5 L 66.81579328608846 -0.5 Z"/><text text-anchor="middle" pointer-events="none" font-size="8px" fill="#000000" x="48.704465161088464" y="3" transform="rotate(180 48.704465161088464 0)" font-family="sans-serif">KNOWS</text></g><g class="relationship" transform="translate(340.58517258552456 484.06272861320076) rotate(424.25187325049313)"><path class="outline" fill="#A5ABB6" stroke="none" d="M 25 0.5 L 33.00888962488728 0.5 L 33.00888962488728 -0.5 L 25 -0.5 Z M 69.23154587488727 0.5 L 77.24043549977456 0.5 L 77.24043549977456 3.5 L 84.24043549977456 0 L 77.24043549977456 -3.5 L 77.24043549977456 -0.5 L 69.23154587488727 -0.5 Z"/><text text-anchor="middle" pointer-events="none" font-size="8px" fill="#000000" x="51.12021774988728" y="3" font-family="sans-serif">KNOWS</text></g><g class="relationship" transform="translate(340.58517258552456 484.06272861320076) rotate(247.3632137969716)"><path class="outline" fill="#A5ABB6" stroke="none" d="M 25 0.5 L 34.36440842695395 0.5 L 34.36440842695395 -0.5 L 25 -0.5 Z M 70.58706467695396 0.5 L 79.9514731039079 0.5 L 79.9514731039079 3.5 L 86.9514731039079 0 L 79.9514731039079 -3.5 L 79.9514731039079 -0.5 L 70.58706467695396 -0.5 Z"/><text text-anchor="middle" pointer-events="none" font-size="8px" fill="#000000" x="52.47573655195395" y="3" transform="rotate(180 52.47573655195395 0)" font-family="sans-serif">KNOWS</text></g></g><g class="layer nodes"><g class="node" transform="translate(307.51750791080093,653.8947059706985)"><circle class="outline" cx="0" cy="0" r="25" fill="#F79767" stroke="#f36924" stroke-width="2px"/><text text-anchor="middle" pointer-events="none" font-family="sans-serif" dy="1.5625" font-size="25" fill="#FFFFFF"/><text text-anchor="middle" pointer-events="none" y="5" font-size="10px" fill="#FFFFFF" font-family="sans-serif"> Kyson</text></g><g class="node" transform="translate(-162.990667558243,444.7980919988197)"><circle class="outline" cx="0" cy="0" r="25" fill="#4C8EDA" stroke="#2870c2" stroke-width="2px"/><text text-anchor="middle" pointer-events="none" font-family="sans-serif" dy="1.5625" font-size="25" fill="#FFFFFF"/><text text-anchor="middle" pointer-events="none" y="5" font-size="10px" fill="#FFFFFF" font-family="sans-serif"> Xander</text></g><g class="node" transform="translate(546.9935233366494,444.7667607938356)"><circle class="outline" cx="0" cy="0" r="25" fill="#F79767" stroke="#f36924" stroke-width="2px"/><text text-anchor="middle" pointer-events="none" font-family="sans-serif" dy="1.5625" font-size="25" fill="#FFFFFF"/><text text-anchor="middle" pointer-events="none" y="5" font-size="10px" fill="#FFFFFF" font-family="sans-serif"> Gabriel</text></g><g class="node" transform="translate(208.65559757422085,316.81836302430366)"><circle class="outline" cx="0" cy="0" r="25" fill="#F79767" stroke="#f36924" stroke-width="2px"/><text text-anchor="middle" pointer-events="none" font-family="sans-serif" dy="1.5625" font-size="25" fill="#FFFFFF"/><text text-anchor="middle" pointer-events="none" y="5" font-size="10px" fill="#FFFFFF" font-family="sans-serif"> Edith</text></g><g class="node" transform="translate(112.87681387845089,368.95884915528285)"><circle class="outline" cx="0" cy="0" r="25" fill="#F79767" stroke="#f36924" stroke-width="2px"/><text text-anchor="middle" pointer-events="none" font-family="sans-serif" dy="1.5625" font-size="25" fill="#FFFFFF"/><text text-anchor="middle" pointer-events="none" y="5" font-size="10px" fill="#FFFFFF" font-family="sans-serif"> Emelia</text></g><g class="node" transform="translate(-324.8682970291439,100.52879193623646)"><circle class="outline" cx="0" cy="0" r="25" fill="#F79767" stroke="#f36924" stroke-width="2px"/><text text-anchor="middle" pointer-events="none" font-family="sans-serif" dy="1.5625" font-size="25" fill="#FFFFFF"/><text text-anchor="middle" pointer-events="none" y="5" font-size="10px" fill="#FFFFFF" font-family="sans-serif"> Sunday</text></g><g class="node" transform="translate(297.49639606150595,380.73562825807517)"><circle class="outline" cx="0" cy="0" r="25" fill="#4C8EDA" stroke="#2870c2" stroke-width="2px"/><text text-anchor="middle" pointer-events="none" font-family="sans-serif" dy="1.5625" font-size="25" fill="#FFFFFF"/><text text-anchor="middle" pointer-events="none" y="5" font-size="10px" fill="#FFFFFF" font-family="sans-serif"> Lauralee</text></g><g class="node" transform="translate(709.4294284923546,238.08265785010133)"><circle class="outline" cx="0" cy="0" r="25" fill="#F79767" stroke="#f36924" stroke-width="2px"/><text text-anchor="middle" pointer-events="none" font-family="sans-serif" dy="1.5625" font-size="25" fill="#FFFFFF"/><text text-anchor="middle" pointer-events="none" y="5" font-size="10px" fill="#FFFFFF" font-family="sans-serif"> Lynn</text></g><g class="node" transform="translate(-258.13932549220743,-229.14365786349651)"><circle class="outline" cx="0" cy="0" r="25" fill="#F79767" stroke="#f36924" stroke-width="2px"/><text text-anchor="middle" pointer-events="none" font-family="sans-serif" dy="1.5625" font-size="25" fill="#FFFFFF"/><text text-anchor="middle" pointer-events="none" y="5" font-size="10px" fill="#FFFFFF" font-family="sans-serif"> Lenora</text></g><g class="node" transform="translate(19.271158308562516,-361.96411190652776)"><circle class="outline" cx="0" cy="0" r="25" fill="#F79767" stroke="#f36924" stroke-width="2px"/><text text-anchor="middle" pointer-events="none" font-family="sans-serif" dy="1.5625" font-size="25" fill="#FFFFFF"/><text text-anchor="middle" pointer-events="none" y="5" font-size="10px" fill="#FFFFFF" font-family="sans-serif"> Harn</text></g><g class="node" transform="translate(285.72717070550146,-65.98865341297433)"><circle class="outline" cx="0" cy="0" r="25" fill="#F79767" stroke="#f36924" stroke-width="2px"/><text text-anchor="middle" pointer-events="none" font-family="sans-serif" dy="1.5625" font-size="25" fill="#FFFFFF"/><text text-anchor="middle" pointer-events="none" y="5" font-size="10px" fill="#FFFFFF" font-family="sans-serif"> Mckenzie</text></g><g class="node" transform="translate(485.3798220419026,356.9879294699963)"><circle class="outline" cx="0" cy="0" r="25" fill="#F79767" stroke="#f36924" stroke-width="2px"/><text text-anchor="middle" pointer-events="none" font-family="sans-serif" dy="1.5625" font-size="25" fill="#FFFFFF"/><text text-anchor="middle" pointer-events="none" y="5" font-size="10px" fill="#FFFFFF" font-family="sans-serif"> Whitley</text></g><g class="node" transform="translate(494.32733580450656,-275.5947346968535)"><circle class="outline" cx="0" cy="0" r="25" fill="#F79767" stroke="#f36924" stroke-width="2px"/><text text-anchor="middle" pointer-events="none" font-family="sans-serif" dy="1.5625" font-size="25" fill="#FFFFFF"/><text text-anchor="middle" pointer-events="none" y="5" font-size="10px" fill="#FFFFFF" font-family="sans-serif"> Vera</text></g><g class="node" transform="translate(-337.1385609944397,-10.769408722031462)"><circle class="outline" cx="0" cy="0" r="25" fill="#F79767" stroke="#f36924" stroke-width="2px"/><text text-anchor="middle" pointer-events="none" font-family="sans-serif" dy="1.5625" font-size="25" fill="#FFFFFF"/><text text-anchor="middle" pointer-events="none" y="5" font-size="10px" fill="#FFFFFF" font-family="sans-serif"> Earl</text></g><g class="node" transform="translate(288.2545474128754,-189.922875856622)"><circle class="outline" cx="0" cy="0" r="25" fill="#F79767" stroke="#f36924" stroke-width="2px"/><text text-anchor="middle" pointer-events="none" font-family="sans-serif" dy="1.5625" font-size="25" fill="#FFFFFF"/><text text-anchor="middle" pointer-events="none" y="5" font-size="10px" fill="#FFFFFF" font-family="sans-serif"> Cullen</text></g><g class="node" transform="translate(483.6014246682779,-165.47920431726845)"><circle class="outline" cx="0" cy="0" r="25" fill="#F79767" stroke="#f36924" stroke-width="2px"/><text text-anchor="middle" pointer-events="none" font-family="sans-serif" dy="1.5625" font-size="25" fill="#FFFFFF"/><text text-anchor="middle" pointer-events="none" y="5" font-size="10px" fill="#FFFFFF" font-family="sans-serif"> Estes</text></g><g class="node" transform="translate(601.821912716056,-69.40986154949206)"><circle class="outline" cx="0" cy="0" r="25" fill="#F79767" stroke="#f36924" stroke-width="2px"/><text text-anchor="middle" pointer-events="none" font-family="sans-serif" dy="1.5625" font-size="25" fill="#FFFFFF"/><text text-anchor="middle" pointer-events="none" y="5" font-size="10px" fill="#FFFFFF" font-family="sans-serif"> Isola</text></g><g class="node" transform="translate(588.6926845442205,-193.86827677555578)"><circle class="outline" cx="0" cy="0" r="25" fill="#F79767" stroke="#f36924" stroke-width="2px"/><text text-anchor="middle" pointer-events="none" font-family="sans-serif" dy="1.5625" font-size="25" fill="#FFFFFF"/><text text-anchor="middle" pointer-events="none" y="5" font-size="10px" fill="#FFFFFF" font-family="sans-serif"> Steph</text></g><g class="node" transform="translate(498.22068484513085,-3.050985751123221)"><circle class="outline" cx="0" cy="0" r="25" fill="#F79767" stroke="#f36924" stroke-width="2px"/><text text-anchor="middle" pointer-events="none" font-family="sans-serif" dy="1.5625" font-size="25" fill="#FFFFFF"/><text text-anchor="middle" pointer-events="none" y="5" font-size="10px" fill="#FFFFFF" font-family="sans-serif"> Oscar</text></g><g class="node" transform="translate(372.73684337506506,-169.85286277935043)"><circle class="outline" cx="0" cy="0" r="25" fill="#4C8EDA" stroke="#2870c2" stroke-width="2px"/><text text-anchor="middle" pointer-events="none" font-family="sans-serif" dy="1.5625" font-size="25" fill="#FFFFFF"/><text text-anchor="middle" pointer-events="none" y="5" font-size="10px" fill="#FFFFFF" font-family="sans-serif"> Antonia</text></g><g class="node" transform="translate(220.34854329681008,30.790008691261846)"><circle class="outline" cx="0" cy="0" r="25" fill="#F79767" stroke="#f36924" stroke-width="2px"/><text text-anchor="middle" pointer-events="none" font-family="sans-serif" dy="1.5625" font-size="25" fill="#FFFFFF"/><text text-anchor="middle" pointer-events="none" y="5" font-size="10px" fill="#FFFFFF" font-family="sans-serif"> Christie</text></g><g class="node" transform="translate(611.0714828078377,264.27863010507264)"><circle class="outline" cx="0" cy="0" r="25" fill="#F79767" stroke="#f36924" stroke-width="2px"/><text text-anchor="middle" pointer-events="none" font-family="sans-serif" dy="1.5625" font-size="25" fill="#FFFFFF"/><text text-anchor="middle" pointer-events="none" y="5" font-size="10px" fill="#FFFFFF" font-family="sans-serif"> Arabella</text></g><g class="node" transform="translate(174.733040237914,-204.9508796328501)"><circle class="outline" cx="0" cy="0" r="25" fill="#F79767" stroke="#f36924" stroke-width="2px"/><text text-anchor="middle" pointer-events="none" font-family="sans-serif" dy="1.5625" font-size="25" fill="#FFFFFF"/><text text-anchor="middle" pointer-events="none" y="5" font-size="10px" fill="#FFFFFF" font-family="sans-serif"> Casey</text></g><g class="node" transform="translate(105.6097195079014,-513.2935117600883)"><circle class="outline" cx="0" cy="0" r="25" fill="#F79767" stroke="#f36924" stroke-width="2px"/><text text-anchor="middle" pointer-events="none" font-family="sans-serif" dy="1.5625" font-size="25" fill="#FFFFFF"/><text text-anchor="middle" pointer-events="none" y="5" font-size="10px" fill="#FFFFFF" font-family="sans-serif"> Cayden</text></g><g class="node" transform="translate(-153.4794884341143,-282.2786360113483)"><circle class="outline" cx="0" cy="0" r="25" fill="#F79767" stroke="#f36924" stroke-width="2px"/><text text-anchor="middle" pointer-events="none" font-family="sans-serif" dy="1.5625" font-size="25" fill="#FFFFFF"/><text text-anchor="middle" pointer-events="none" y="5" font-size="10px" fill="#FFFFFF" font-family="sans-serif"> Briley</text></g><g class="node" transform="translate(-170.38164139380393,245.4076279211834)"><circle class="outline" cx="0" cy="0" r="25" fill="#F79767" stroke="#f36924" stroke-width="2px"/><text text-anchor="middle" pointer-events="none" font-family="sans-serif" dy="1.5625" font-size="25" fill="#FFFFFF"/><text text-anchor="middle" pointer-events="none" y="5" font-size="10px" fill="#FFFFFF" font-family="sans-serif"> Raferty</text></g><g class="node" transform="translate(-198.17964108589754,36.95602088023652)"><circle class="outline" cx="0" cy="0" r="25" fill="#F79767" stroke="#f36924" stroke-width="2px"/><text text-anchor="middle" pointer-events="none" font-family="sans-serif" dy="1.5625" font-size="25" fill="#FFFFFF"/><text text-anchor="middle" pointer-events="none" y="5" font-size="10px" fill="#FFFFFF" font-family="sans-serif"> Madeline</text></g><g class="node" transform="translate(-444.0673199190706,-45.56864507481447)"><circle class="outline" cx="0" cy="0" r="25" fill="#F79767" stroke="#f36924" stroke-width="2px"/><text text-anchor="middle" pointer-events="none" font-family="sans-serif" dy="1.5625" font-size="25" fill="#FFFFFF"/><text text-anchor="middle" pointer-events="none" y="5" font-size="10px" fill="#FFFFFF" font-family="sans-serif"> Shia</text></g><g class="node" transform="translate(323.4027903952628,-390.3985609806784)"><circle class="outline" cx="0" cy="0" r="25" fill="#F79767" stroke="#f36924" stroke-width="2px"/><text text-anchor="middle" pointer-events="none" font-family="sans-serif" dy="1.5625" font-size="25" fill="#FFFFFF"/><text text-anchor="middle" pointer-events="none" y="5" font-size="10px" fill="#FFFFFF" font-family="sans-serif"> Rory</text></g><g class="node" transform="translate(-389.73510985175125,369.5437793723265)"><circle class="outline" cx="0" cy="0" r="25" fill="#F79767" stroke="#f36924" stroke-width="2px"/><text text-anchor="middle" pointer-events="none" font-family="sans-serif" dy="1.5625" font-size="25" fill="#FFFFFF"/><text text-anchor="middle" pointer-events="none" y="5" font-size="10px" fill="#FFFFFF" font-family="sans-serif"> Cleo</text></g><g class="node" transform="translate(-250.74650312453346,-446.6536235061222)"><circle class="outline" cx="0" cy="0" r="25" fill="#F79767" stroke="#f36924" stroke-width="2px"/><text text-anchor="middle" pointer-events="none" font-family="sans-serif" dy="1.5625" font-size="25" fill="#FFFFFF"/><text text-anchor="middle" pointer-events="none" y="5" font-size="10px" fill="#FFFFFF" font-family="sans-serif"> Raymond</text></g><g class="node" transform="translate(-87.43364387691237,-373.079877457526)"><circle class="outline" cx="0" cy="0" r="25" fill="#F79767" stroke="#f36924" stroke-width="2px"/><text text-anchor="middle" pointer-events="none" font-family="sans-serif" dy="1.5625" font-size="25" fill="#FFFFFF"/><text text-anchor="middle" pointer-events="none" y="5" font-size="10px" fill="#FFFFFF" font-family="sans-serif"> Everly</text></g><g class="node" transform="translate(367.04658522754875,-283.2585810514065)"><circle class="outline" cx="0" cy="0" r="25" fill="#F79767" stroke="#f36924" stroke-width="2px"/><text text-anchor="middle" pointer-events="none" font-family="sans-serif" dy="1.5625" font-size="25" fill="#FFFFFF"/><text text-anchor="middle" pointer-events="none" y="5" font-size="10px" fill="#FFFFFF" font-family="sans-serif"> Rhett</text></g><g class="node" transform="translate(-96.766645924031,-178.32622791716645)"><circle class="outline" cx="0" cy="0" r="25" fill="#F79767" stroke="#f36924" stroke-width="2px"/><text text-anchor="middle" pointer-events="none" font-family="sans-serif" dy="1.5625" font-size="25" fill="#FFFFFF"/><text text-anchor="middle" pointer-events="none" y="5" font-size="10px" fill="#FFFFFF" font-family="sans-serif"> Gerard</text></g><g class="node" transform="translate(-149.29418354348894,-73.72297508365716)"><circle class="outline" cx="0" cy="0" r="25" fill="#F79767" stroke="#f36924" stroke-width="2px"/><text text-anchor="middle" pointer-events="none" font-family="sans-serif" dy="1.5625" font-size="25" fill="#FFFFFF"/><text text-anchor="middle" pointer-events="none" y="5" font-size="10px" fill="#FFFFFF" font-family="sans-serif"> Melanie</text></g><g class="node" transform="translate(-267.4246508036935,-110.09982176124167)"><circle class="outline" cx="0" cy="0" r="25" fill="#4C8EDA" stroke="#2870c2" stroke-width="2px"/><text text-anchor="middle" pointer-events="none" font-family="sans-serif" dy="1.5625" font-size="25" fill="#FFFFFF"/><text text-anchor="middle" pointer-events="none" y="5" font-size="10px" fill="#FFFFFF" font-family="sans-serif"> Collin</text></g><g class="node" transform="translate(-275.74864417668954,204.4943417356271)"><circle class="outline" cx="0" cy="0" r="25" fill="#F79767" stroke="#f36924" stroke-width="2px"/><text text-anchor="middle" pointer-events="none" font-family="sans-serif" dy="1.5625" font-size="25" fill="#FFFFFF"/><text text-anchor="middle" pointer-events="none" y="5" font-size="10px" fill="#FFFFFF" font-family="sans-serif"> Becky</text></g><g class="node" transform="translate(500.7294762672901,109.3809787187542)"><circle class="outline" cx="0" cy="0" r="25" fill="#F79767" stroke="#f36924" stroke-width="2px"/><text text-anchor="middle" pointer-events="none" font-family="sans-serif" dy="1.5625" font-size="25" fill="#FFFFFF"/><text text-anchor="middle" pointer-events="none" y="5" font-size="10px" fill="#FFFFFF" font-family="sans-serif"> Davina</text></g><g class="node" transform="translate(388.0409447916884,582.4569481207363)"><circle class="outline" cx="0" cy="0" r="25" fill="#F79767" stroke="#f36924" stroke-width="2px"/><text text-anchor="middle" pointer-events="none" font-family="sans-serif" dy="1.5625" font-size="25" fill="#FFFFFF"/><text text-anchor="middle" pointer-events="none" y="5" font-size="10px" fill="#FFFFFF" font-family="sans-serif"> Oreli</text></g><g class="node" transform="translate(98.33776103024535,478.02853387375666)"><circle class="outline" cx="0" cy="0" r="25" fill="#F79767" stroke="#f36924" stroke-width="2px"/><text text-anchor="middle" pointer-events="none" font-family="sans-serif" dy="1.5625" font-size="25" fill="#FFFFFF"/><text text-anchor="middle" pointer-events="none" y="5" font-size="10px" fill="#FFFFFF" font-family="sans-serif"> Braxton</text></g><g class="node" transform="translate(396.7310740303573,-85.98346288186184)"><circle class="outline" cx="0" cy="0" r="25" fill="#F79767" stroke="#f36924" stroke-width="2px"/><text text-anchor="middle" pointer-events="none" font-family="sans-serif" dy="1.5625" font-size="25" fill="#FFFFFF"/><text text-anchor="middle" pointer-events="none" y="5" font-size="10px" fill="#FFFFFF" font-family="sans-serif"> Utte</text></g><g class="node" transform="translate(-265.5383515252649,91.65373301490882)"><circle class="outline" cx="0" cy="0" r="25" fill="#F79767" stroke="#f36924" stroke-width="2px"/><text text-anchor="middle" pointer-events="none" font-family="sans-serif" dy="1.5625" font-size="25" fill="#FFFFFF"/><text text-anchor="middle" pointer-events="none" y="5" font-size="10px" fill="#FFFFFF" font-family="sans-serif"> Una</text></g><g class="node" transform="translate(-514.6661419806948,218.0835238746012)"><circle class="outline" cx="0" cy="0" r="25" fill="#F79767" stroke="#f36924" stroke-width="2px"/><text text-anchor="middle" pointer-events="none" font-family="sans-serif" dy="1.5625" font-size="25" fill="#FFFFFF"/><text text-anchor="middle" pointer-events="none" y="5" font-size="10px" fill="#FFFFFF" font-family="sans-serif"> Aleni</text></g><g class="node" transform="translate(-354.4859605132184,516.5139269433423)"><circle class="outline" cx="0" cy="0" r="25" fill="#F79767" stroke="#f36924" stroke-width="2px"/><text text-anchor="middle" pointer-events="none" font-family="sans-serif" dy="1.5625" font-size="25" fill="#FFFFFF"/><text text-anchor="middle" pointer-events="none" y="5" font-size="10px" fill="#FFFFFF" font-family="sans-serif"> Emil</text></g><g class="node" transform="translate(-187.9736423501103,546.4771204807887)"><circle class="outline" cx="0" cy="0" r="25" fill="#F79767" stroke="#f36924" stroke-width="2px"/><text text-anchor="middle" pointer-events="none" font-family="sans-serif" dy="1.5625" font-size="25" fill="#FFFFFF"/><text text-anchor="middle" pointer-events="none" y="5" font-size="10px" fill="#FFFFFF" font-family="sans-serif"> Micah</text></g><g class="node" transform="translate(-67.04287960165523,403.6247181115747)"><circle class="outline" cx="0" cy="0" r="25" fill="#F79767" stroke="#f36924" stroke-width="2px"/><text text-anchor="middle" pointer-events="none" font-family="sans-serif" dy="1.5625" font-size="25" fill="#FFFFFF"/><text text-anchor="middle" pointer-events="none" y="5" font-size="10px" fill="#FFFFFF" font-family="sans-serif"> Edwin</text></g><g class="node" transform="translate(-77.42191562717045,665.2431937492792)"><circle class="outline" cx="0" cy="0" r="25" fill="#F79767" stroke="#f36924" stroke-width="2px"/><text text-anchor="middle" pointer-events="none" font-family="sans-serif" dy="1.5625" font-size="25" fill="#FFFFFF"/><text text-anchor="middle" pointer-events="none" y="5" font-size="10px" fill="#FFFFFF" font-family="sans-serif"> Oakley</text></g><g class="node" transform="translate(340.58517258552456,484.06272861320076)"><circle class="outline" cx="0" cy="0" r="25" fill="#F79767" stroke="#f36924" stroke-width="2px"/><text text-anchor="middle" pointer-events="none" font-family="sans-serif" dy="1.5625" font-size="25" fill="#FFFFFF"/><text text-anchor="middle" pointer-events="none" y="5" font-size="10px" fill="#FFFFFF" font-family="sans-serif"> Regina</text></g><g class="node" transform="translate(91.91942319504345,160.56268949626906)"><circle class="outline" cx="0" cy="0" r="25" fill="#F79767" stroke="#f36924" stroke-width="2px"/><text text-anchor="middle" pointer-events="none" font-family="sans-serif" dy="1.5625" font-size="25" fill="#FFFFFF"/><text text-anchor="middle" pointer-events="none" y="5" font-size="10px" fill="#FFFFFF" font-family="sans-serif"> Douglas</text></g><g class="node" transform="translate(92.08582204825025,692.6391443362467)"><circle class="outline" cx="0" cy="0" r="25" fill="#F79767" stroke="#f36924" stroke-width="2px"/><text text-anchor="middle" pointer-events="none" font-family="sans-serif" dy="1.5625" font-size="25" fill="#FFFFFF"/><text text-anchor="middle" pointer-events="none" y="5" font-size="10px" fill="#FFFFFF" font-family="sans-serif"> Reid</text></g></g></svg>