<svg xmlns="http://www.w3.org/2000/svg" width="1216.443603515625" height="1275.2325439453125" viewBox="-490.28460693359375 -551.87646484375 1216.443603515625 1275.2325439453125"><title>Neo4j Graph Visualization</title><desc>Created using Neo4j (http://www.neo4j.com/)</desc><g class="layer relationships"><g class="relationship" transform="translate(149.47242951069455 694.3560613343425) rotate(350.1285059546352)"><path class="outline" fill="#A5ABB6" stroke="none" d="M 25 0.5 L 33.218877487115336 0.5 L 33.218877487115336 -0.5 L 25 -0.5 Z M 69.44153373711534 0.5 L 77.66041122423067 0.5 L 77.66041122423067 3.5 L 84.66041122423067 0 L 77.66041122423067 -3.5 L 77.66041122423067 -0.5 L 69.44153373711534 -0.5 Z"/><text text-anchor="middle" pointer-events="none" font-size="8px" fill="#000000" x="51.330205612115336" y="3" font-family="sans-serif">KNOWS</text></g><g class="relationship" transform="translate(-141.09138484719384 311.9770483043764) rotate(189.44513793984754)"><path class="outline" fill="#A5ABB6" stroke="none" d="M 25 0.5 L 30.897317087435397 0.5 L 30.897317087435397 -0.5 L 25 -0.5 Z M 67.1199733374354 0.5 L 73.0172904248708 0.5 L 73.0172904248708 3.5 L 80.0172904248708 0 L 73.0172904248708 -3.5 L 73.0172904248708 -0.5 L 67.1199733374354 -0.5 Z"/><text text-anchor="middle" pointer-events="none" font-size="8px" fill="#000000" x="49.0086452124354" y="3" transform="rotate(180 49.0086452124354 0)" font-family="sans-serif">KNOWS</text></g><g class="relationship" transform="translate(464.6913510889955 434.3877498656447) rotate(418.3955946727805)"><path class="outline" fill="#A5ABB6" stroke="none" d="M 25 0.5 L 30.418229932369343 0.5 L 30.418229932369343 -0.5 L 25 -0.5 Z M 66.64088618236934 0.5 L 72.05911611473869 0.5 L 72.05911611473869 3.5 L 79.05911611473869 0 L 72.05911611473869 -3.5 L 72.05911611473869 -0.5 L 66.64088618236934 -0.5 Z"/><text text-anchor="middle" pointer-events="none" font-size="8px" fill="#000000" x="48.52955805736934" y="3" font-family="sans-serif">KNOWS</text></g><g class="relationship" transform="translate(154.14015731469934 461.7102452393465) rotate(188.91211490947296)"><path class="outline" fill="#A5ABB6" stroke="none" d="M 24.018736134675446,-6.953439040707552 L 24.277555179777966,-5.987513214418485 A 107.6740728499164 107.6740728499164 0 0 1 32.52831715345029,-7.854277423617887 L 32.34612530146205,-8.837540424584105 A 108.6740728499164 108.6740728499164 0 0 0 24.018736134675446,-6.953439040707552 Z M 68.56191898853413,-9.40934583142139 L 68.41085937826155,-8.420821176117187 A 107.6740728499164 107.6740728499164 0 0 1 76.7164421485865,-6.815462460992578 L 76.03185432903567,-3.8946167756948014 L 83.64584671753978,-5.704898496256932 L 77.6292259079876,-10.709923374722946 L 76.94463808843678,-7.78907768942517 A 108.6740728499164 108.6740728499164 0 0 0 68.56191898853413,-9.40934583142139"/><text text-anchor="middle" pointer-events="none" font-size="8px" fill="#000000" x="50.437925509309494" y="-7.142937575210979" transform="rotate(180 50.437925509309494 -10.14293757521098)" font-family="sans-serif">KNOWS</text></g><g class="relationship" transform="translate(47.45763347063669 444.9810964125436) rotate(368.91211490947296)"><path class="outline" fill="#A5ABB6" stroke="none" d="M 24.018736134675446,-6.953439040707552 L 24.277555179777966,-5.987513214418485 A 107.6740728499164 107.6740728499164 0 0 1 32.52831715345029,-7.854277423617887 L 32.34612530146205,-8.837540424584105 A 108.6740728499164 108.6740728499164 0 0 0 24.018736134675446,-6.953439040707552 Z M 68.56191898853413,-9.40934583142139 L 68.41085937826155,-8.420821176117187 A 107.6740728499164 107.6740728499164 0 0 1 76.7164421485865,-6.815462460992578 L 76.03185432903567,-3.8946167756948014 L 83.64584671753978,-5.704898496256932 L 77.6292259079876,-10.709923374722946 L 76.94463808843678,-7.78907768942517 A 108.6740728499164 108.6740728499164 0 0 0 68.56191898853413,-9.40934583142139"/><text text-anchor="middle" pointer-events="none" font-size="8px" fill="#000000" x="50.437925509309494" y="-7.142937575210979" font-family="sans-serif">KNOWS</text></g><g class="relationship" transform="translate(-424.35924442666453 -91.43977318781849) rotate(305.8574388291943)"><path class="outline" fill="#A5ABB6" stroke="none" d="M 25 0.5 L 37.07722105795245 0.5 L 37.07722105795245 -0.5 L 25 -0.5 Z M 73.29987730795244 0.5 L 85.3770983659049 0.5 L 85.3770983659049 3.5 L 92.3770983659049 0 L 85.3770983659049 -3.5 L 85.3770983659049 -0.5 L 73.29987730795244 -0.5 Z"/><text text-anchor="middle" pointer-events="none" font-size="8px" fill="#000000" x="55.18854918295245" y="3" font-family="sans-serif">KNOWS</text></g><g class="relationship" transform="translate(262.1566538796407 479.77180358842605) rotate(189.49267077266234)"><path class="outline" fill="#A5ABB6" stroke="none" d="M 25 0.5 L 33.14673845007458 0.5 L 33.14673845007458 -0.5 L 25 -0.5 Z M 69.36939470007458 0.5 L 77.51613315014916 0.5 L 77.51613315014916 3.5 L 84.51613315014916 0 L 77.51613315014916 -3.5 L 77.51613315014916 -0.5 L 69.36939470007458 -0.5 Z"/><text text-anchor="middle" pointer-events="none" font-size="8px" fill="#000000" x="51.25806657507458" y="3" transform="rotate(180 51.25806657507458 0)" font-family="sans-serif">KNOWS</text></g><g class="relationship" transform="translate(648.8550608842611 328.04094605879226) rotate(296.8408912404137)"><path class="outline" fill="#A5ABB6" stroke="none" d="M 24.018736134675446,6.953439040707552 L 24.277555179777966,5.987513214418485 A 105.66759229187738 105.66759229187738 0 0 0 32.031434146667074,7.755324300740881 L 31.845995016813035,8.73798005385028 A 106.66759229187738 106.66759229187738 0 0 1 24.018736134675446,6.953439040707552 Z M 68.05838954257392,9.314778344750948 L 67.9043404197385,8.326715154588683 A 105.66759229187738 105.66759229187738 0 0 0 75.71058776449755,6.80674888439334 L 75.02681386389818,3.885712552394175 L 82.6403015225955,5.69811583832802 L 76.62228629863003,10.70146399372556 L 75.93851239803067,7.780427661726394 A 106.66759229187738 106.66759229187738 0 0 1 68.05838954257392,9.314778344750948"/><text text-anchor="middle" pointer-events="none" font-size="8px" fill="#000000" x="49.93549626459113" y="13.074583910431016" font-family="sans-serif">KNOWS</text></g><g class="relationship" transform="translate(-113.32454349127563 -269.12174996805874) rotate(377.8265288060739)"><path class="outline" fill="#A5ABB6" stroke="none" d="M 25 0.5 L 37.19049266822167 0.5 L 37.19049266822167 -0.5 L 25 -0.5 Z M 73.41314891822168 0.5 L 85.60364158644335 0.5 L 85.60364158644335 3.5 L 92.60364158644335 0 L 85.60364158644335 -3.5 L 85.60364158644335 -0.5 L 73.41314891822168 -0.5 Z"/><text text-anchor="middle" pointer-events="none" font-size="8px" fill="#000000" x="55.30182079322167" y="3" font-family="sans-serif">KNOWS</text></g><g class="relationship" transform="translate(160.63147603591983 -391.681171967475) rotate(502.19345993506136)"><path class="outline" fill="#A5ABB6" stroke="none" d="M 25 0.5 L 34.533501466489874 0.5 L 34.533501466489874 -0.5 L 25 -0.5 Z M 70.75615771648987 0.5 L 80.28965918297975 0.5 L 80.28965918297975 3.5 L 87.28965918297975 0 L 80.28965918297975 -3.5 L 80.28965918297975 -0.5 L 70.75615771648987 -0.5 Z"/><text text-anchor="middle" pointer-events="none" font-size="8px" fill="#000000" x="52.644829591489874" y="3" transform="rotate(180 52.644829591489874 0)" font-family="sans-serif">KNOWS</text></g><g class="relationship" transform="translate(616.6642049409076 -32.02986466706792) rotate(294.2854413987193)"><path class="outline" fill="#A5ABB6" stroke="none" d="M 25 0.5 L 34.55334755328221 0.5 L 34.55334755328221 -0.5 L 25 -0.5 Z M 70.77600380328221 0.5 L 80.32935135656442 0.5 L 80.32935135656442 3.5 L 87.32935135656442 0 L 80.32935135656442 -3.5 L 80.32935135656442 -0.5 L 70.77600380328221 -0.5 Z"/><text text-anchor="middle" pointer-events="none" font-size="8px" fill="#000000" x="52.66467567828221" y="3" font-family="sans-serif">KNOWS</text></g><g class="relationship" transform="translate(616.6642049409076 -32.02986466706792) rotate(515.1875044153844)"><path class="outline" fill="#A5ABB6" stroke="none" d="M 25 0.5 L 38.28687534627513 0.5 L 38.28687534627513 -0.5 L 25 -0.5 Z M 74.50953159627514 0.5 L 87.79640694255026 0.5 L 87.79640694255026 3.5 L 94.79640694255026 0 L 87.79640694255026 -3.5 L 87.79640694255026 -0.5 L 74.50953159627514 -0.5 Z"/><text text-anchor="middle" pointer-events="none" font-size="8px" fill="#000000" x="56.39820347127513" y="3" transform="rotate(180 56.39820347127513 0)" font-family="sans-serif">KNOWS</text></g><g class="relationship" transform="translate(351.5520653520184 161.33806937773173) rotate(323.5819762423545)"><path class="outline" fill="#A5ABB6" stroke="none" d="M 25 0.5 L 37.88804062551752 0.5 L 37.88804062551752 -0.5 L 25 -0.5 Z M 74.11069687551752 0.5 L 86.99873750103504 0.5 L 86.99873750103504 3.5 L 93.99873750103504 0 L 86.99873750103504 -3.5 L 86.99873750103504 -0.5 L 74.11069687551752 -0.5 Z"/><text text-anchor="middle" pointer-events="none" font-size="8px" fill="#000000" x="55.99936875051752" y="3" font-family="sans-serif">KNOWS</text></g><g class="relationship" transform="translate(351.5520653520184 161.33806937773173) rotate(207.57144241031693)"><path class="outline" fill="#A5ABB6" stroke="none" d="M 25 0.5 L 32.77488523228823 0.5 L 32.77488523228823 -0.5 L 25 -0.5 Z M 68.99754148228823 0.5 L 76.77242671457645 0.5 L 76.77242671457645 3.5 L 83.77242671457645 0 L 76.77242671457645 -3.5 L 76.77242671457645 -0.5 L 68.99754148228823 -0.5 Z"/><text text-anchor="middle" pointer-events="none" font-size="8px" fill="#000000" x="50.88621335728823" y="3" transform="rotate(180 50.88621335728823 0)" font-family="sans-serif">KNOWS</text></g><g class="relationship" transform="translate(436.9179400035596 -46.867173787528735) rotate(283.4159702522775)"><path class="outline" fill="#A5ABB6" stroke="none" d="M 25 0.5 L 39.74379931262044 0.5 L 39.74379931262044 -0.5 L 25 -0.5 Z M 75.96645556262044 0.5 L 90.71025487524088 0.5 L 90.71025487524088 3.5 L 97.71025487524088 0 L 90.71025487524088 -3.5 L 90.71025487524088 -0.5 L 75.96645556262044 -0.5 Z"/><text text-anchor="middle" pointer-events="none" font-size="8px" fill="#000000" x="57.85512743762044" y="3" font-family="sans-serif">KNOWS</text></g><g class="relationship" transform="translate(436.9179400035596 -46.867173787528735) rotate(445.67923467704856)"><path class="outline" fill="#A5ABB6" stroke="none" d="M 25 0.5 L 47.3642167006152 0.5 L 47.3642167006152 -0.5 L 25 -0.5 Z M 83.5868729506152 0.5 L 105.9510896512304 0.5 L 105.9510896512304 3.5 L 112.9510896512304 0 L 105.9510896512304 -3.5 L 105.9510896512304 -0.5 L 83.5868729506152 -0.5 Z"/><text text-anchor="middle" pointer-events="none" font-size="8px" fill="#000000" x="65.4755448256152" y="3" font-family="sans-serif">KNOWS</text></g><g class="relationship" transform="translate(365.73469578151673 48.917319384228215) rotate(347.82632578680693)"><path class="outline" fill="#A5ABB6" stroke="none" d="M 25 0.5 L 51.120188697137195 0.5 L 51.120188697137195 -0.5 L 25 -0.5 Z M 87.3428449471372 0.5 L 113.46303364427439 0.5 L 113.46303364427439 3.5 L 120.46303364427439 0 L 113.46303364427439 -3.5 L 113.46303364427439 -0.5 L 87.3428449471372 -0.5 Z"/><text text-anchor="middle" pointer-events="none" font-size="8px" fill="#000000" x="69.2315168221372" y="3" font-family="sans-serif">KNOWS</text></g><g class="relationship" transform="translate(365.73469578151673 48.917319384228215) rotate(457.1902612586569)"><path class="outline" fill="#A5ABB6" stroke="none" d="M 25 0.5 L 35.04458956018437 0.5 L 35.04458956018437 -0.5 L 25 -0.5 Z M 71.26724581018436 0.5 L 81.31183537036874 0.5 L 81.31183537036874 3.5 L 88.31183537036874 0 L 81.31183537036874 -3.5 L 81.31183537036874 -0.5 L 71.26724581018436 -0.5 Z"/><text text-anchor="middle" pointer-events="none" font-size="8px" fill="#000000" x="53.15591768518437" y="3" transform="rotate(180 53.15591768518437 0)" font-family="sans-serif">KNOWS</text></g><g class="relationship" transform="translate(164.53201060177028 33.50129196168591) rotate(400.54053250848665)"><path class="outline" fill="#A5ABB6" stroke="none" d="M 25 0.5 L 37.99843028268354 0.5 L 37.99843028268354 -0.5 L 25 -0.5 Z M 74.22108653268354 0.5 L 87.21951681536709 0.5 L 87.21951681536709 3.5 L 94.21951681536709 0 L 87.21951681536709 -3.5 L 87.21951681536709 -0.5 L 74.22108653268354 -0.5 Z"/><text text-anchor="middle" pointer-events="none" font-size="8px" fill="#000000" x="56.10975840768354" y="3" font-family="sans-serif">KNOWS</text></g><g class="relationship" transform="translate(255.13244595577083 110.99228694403959) rotate(330.69689576355313)"><path class="outline" fill="#A5ABB6" stroke="none" d="M 25 0.5 L 41.80428364384669 0.5 L 41.80428364384669 -0.5 L 25 -0.5 Z M 78.02693989384669 0.5 L 94.83122353769338 0.5 L 94.83122353769338 3.5 L 101.83122353769338 0 L 94.83122353769338 -3.5 L 94.83122353769338 -0.5 L 78.02693989384669 -0.5 Z"/><text text-anchor="middle" pointer-events="none" font-size="8px" fill="#000000" x="59.91561176884669" y="3" font-family="sans-serif">KNOWS</text></g><g class="relationship" transform="translate(205.22956816728055 -80.2060987791029) rotate(469.6930400418371)"><path class="outline" fill="#A5ABB6" stroke="none" d="M 25 0.5 L 38.7742287178338 0.5 L 38.7742287178338 -0.5 L 25 -0.5 Z M 74.99688496783381 0.5 L 88.7711136856676 0.5 L 88.7711136856676 3.5 L 95.7711136856676 0 L 88.7711136856676 -3.5 L 88.7711136856676 -0.5 L 74.99688496783381 -0.5 Z"/><text text-anchor="middle" pointer-events="none" font-size="8px" fill="#000000" x="56.8855568428338" y="3" transform="rotate(180 56.8855568428338 0)" font-family="sans-serif">KNOWS</text></g><g class="relationship" transform="translate(507.92668602206527 18.242703356850658) rotate(222.51856915933877)"><path class="outline" fill="#A5ABB6" stroke="none" d="M 25 0.5 L 26.559041691093448 0.5 L 26.559041691093448 -0.5 L 25 -0.5 Z M 62.78169794109345 0.5 L 64.3407396321869 0.5 L 64.3407396321869 3.5 L 71.3407396321869 0 L 64.3407396321869 -3.5 L 64.3407396321869 -0.5 L 62.78169794109345 -0.5 Z"/><text text-anchor="middle" pointer-events="none" font-size="8px" fill="#000000" x="44.67036981609345" y="3" transform="rotate(180 44.67036981609345 0)" font-family="sans-serif">KNOWS</text></g><g class="relationship" transform="translate(697.1591023829253 232.58453782036332) rotate(476.8408912404137)"><path class="outline" fill="#A5ABB6" stroke="none" d="M 24.018736134675446,6.953439040707552 L 24.277555179777966,5.987513214418485 A 105.66759229187738 105.66759229187738 0 0 0 32.031434146667074,7.755324300740881 L 31.845995016813035,8.73798005385028 A 106.66759229187738 106.66759229187738 0 0 1 24.018736134675446,6.953439040707552 Z M 68.05838954257392,9.314778344750948 L 67.9043404197385,8.326715154588683 A 105.66759229187738 105.66759229187738 0 0 0 75.71058776449755,6.80674888439334 L 75.02681386389818,3.885712552394175 L 82.6403015225955,5.69811583832802 L 76.62228629863003,10.70146399372556 L 75.93851239803067,7.780427661726394 A 106.66759229187738 106.66759229187738 0 0 1 68.05838954257392,9.314778344750948"/><text text-anchor="middle" pointer-events="none" font-size="8px" fill="#000000" x="49.93549626459113" y="13.074583910431016" transform="rotate(180 49.93549626459113 10.074583910431016)" font-family="sans-serif">KNOWS</text></g><g class="relationship" transform="translate(-1.3673174430157873 -233.11902715475648) rotate(472.4271730810666)"><path class="outline" fill="#A5ABB6" stroke="none" d="M 25 0.5 L 39.54658137505874 0.5 L 39.54658137505874 -0.5 L 25 -0.5 Z M 75.76923762505874 0.5 L 90.31581900011749 0.5 L 90.31581900011749 3.5 L 97.31581900011749 0 L 90.31581900011749 -3.5 L 90.31581900011749 -0.5 L 75.76923762505874 -0.5 Z"/><text text-anchor="middle" pointer-events="none" font-size="8px" fill="#000000" x="57.65790950005874" y="3" transform="rotate(180 57.65790950005874 0)" font-family="sans-serif">KNOWS</text></g><g class="relationship" transform="translate(-285.73420426411445 -36.14498730320848) rotate(201.74607871647459)"><path class="outline" fill="#A5ABB6" stroke="none" d="M 25 0.5 L 53.01174991740838 0.5 L 53.01174991740838 -0.5 L 25 -0.5 Z M 89.23440616740838 0.5 L 117.24615608481676 0.5 L 117.24615608481676 3.5 L 124.24615608481676 0 L 117.24615608481676 -3.5 L 117.24615608481676 -0.5 L 89.23440616740838 -0.5 Z"/><text text-anchor="middle" pointer-events="none" font-size="8px" fill="#000000" x="71.12307804240838" y="3" transform="rotate(180 71.12307804240838 0)" font-family="sans-serif">KNOWS</text></g><g class="relationship" transform="translate(-285.73420426411445 -36.14498730320848) rotate(335.8951793529783)"><path class="outline" fill="#A5ABB6" stroke="none" d="M 25 0.5 L 44.472451176381526 0.5 L 44.472451176381526 -0.5 L 25 -0.5 Z M 80.69510742638153 0.5 L 100.16755860276305 0.5 L 100.16755860276305 3.5 L 107.16755860276305 0 L 100.16755860276305 -3.5 L 100.16755860276305 -0.5 L 80.69510742638153 -0.5 Z"/><text text-anchor="middle" pointer-events="none" font-size="8px" fill="#000000" x="62.583779301381526" y="3" font-family="sans-serif">KNOWS</text></g><g class="relationship" transform="translate(-268.6414558878407 -145.20148073546778) rotate(205.44152124123565)"><path class="outline" fill="#A5ABB6" stroke="none" d="M 25 0.5 L 26.538959072285706 0.5 L 26.538959072285706 -0.5 L 25 -0.5 Z M 62.76161532228571 0.5 L 64.30057439457141 0.5 L 64.30057439457141 3.5 L 71.30057439457141 0 L 64.30057439457141 -3.5 L 64.30057439457141 -0.5 L 62.76161532228571 -0.5 Z"/><text text-anchor="middle" pointer-events="none" font-size="8px" fill="#000000" x="44.65028719728571" y="3" transform="rotate(180 44.65028719728571 0)" font-family="sans-serif">KNOWS</text></g><g class="relationship" transform="translate(497.0052821980607 194.81437297694356) rotate(244.48646723317984)"><path class="outline" fill="#A5ABB6" stroke="none" d="M 25 0.5 L 36.07533315093298 0.5 L 36.07533315093298 -0.5 L 25 -0.5 Z M 72.29798940093298 0.5 L 83.37332255186595 0.5 L 83.37332255186595 3.5 L 90.37332255186595 0 L 83.37332255186595 -3.5 L 83.37332255186595 -0.5 L 72.29798940093298 -0.5 Z"/><text text-anchor="middle" pointer-events="none" font-size="8px" fill="#000000" x="54.18666127593298" y="3" transform="rotate(180 54.18666127593298 0)" font-family="sans-serif">KNOWS</text></g><g class="relationship" transform="translate(71.91309543390744 -322.84792053485546) rotate(489.2380629834496)"><path class="outline" fill="#A5ABB6" stroke="none" d="M 25 0.5 L 36.313824482976585 0.5 L 36.313824482976585 -0.5 L 25 -0.5 Z M 72.53648073297659 0.5 L 83.85030521595317 0.5 L 83.85030521595317 3.5 L 90.85030521595317 0 L 83.85030521595317 -3.5 L 83.85030521595317 -0.5 L 72.53648073297659 -0.5 Z"/><text text-anchor="middle" pointer-events="none" font-size="8px" fill="#000000" x="54.425152607976585" y="3" transform="rotate(180 54.425152607976585 0)" font-family="sans-serif">KNOWS</text></g><g class="relationship" transform="translate(447.31119233857385 90.69184424423294) rotate(309.9179657269094)"><path class="outline" fill="#A5ABB6" stroke="none" d="M 25 0.5 L 25.619795326102548 0.5 L 25.619795326102548 -0.5 L 25 -0.5 Z M 61.84245157610255 0.5 L 62.462246902205095 0.5 L 62.462246902205095 3.5 L 69.4622469022051 0 L 62.462246902205095 -3.5 L 62.462246902205095 -0.5 L 61.84245157610255 -0.5 Z"/><text text-anchor="middle" pointer-events="none" font-size="8px" fill="#000000" x="43.73112345110255" y="3" font-family="sans-serif">KNOWS</text></g><g class="relationship" transform="translate(-48.03187980223672 -120.0545402568278) rotate(525.6571769175089)"><path class="outline" fill="#A5ABB6" stroke="none" d="M 24.018736134675446,-6.953439040707552 L 24.277555179777966,-5.987513214418485 A 133.23682411987707 133.23682411987707 0 0 1 38.90063889930569,-9.038816430948884 L 38.75157242310537,-10.027643607796904 A 134.23682411987707 134.23682411987707 0 0 0 24.018736134675446,-6.953439040707552 Z M 74.99496748565394,-10.542297934415842 L 74.87403804009301,-9.549636829508273 A 133.23682411987707 133.23682411987707 0 0 1 89.57786501887307,-6.914774221017071 L 88.88400093621894,-3.9961182572552327 L 96.50370628142639,-5.782200688784409 L 90.50301712907859,-10.806315506032854 L 89.80915304642446,-7.887659542271017 A 134.23682411987707 134.23682411987707 0 0 0 74.99496748565394,-10.542297934415842"/><text text-anchor="middle" pointer-events="none" font-size="8px" fill="#000000" x="56.862918250140865" y="-8.013966694956764" transform="rotate(180 56.862918250140865 -11.013966694956764)" font-family="sans-serif">KNOWS</text></g><g class="relationship" transform="translate(-165.09168074087304 -90.12317794497555) rotate(244.70995927748027)"><path class="outline" fill="#A5ABB6" stroke="none" d="M 25 0.5 L 45.03395567759368 0.5 L 45.03395567759368 -0.5 L 25 -0.5 Z M 81.25661192759368 0.5 L 101.29056760518736 0.5 L 101.29056760518736 3.5 L 108.29056760518736 0 L 101.29056760518736 -3.5 L 101.29056760518736 -0.5 L 81.25661192759368 -0.5 Z"/><text text-anchor="middle" pointer-events="none" font-size="8px" fill="#000000" x="63.14528380259368" y="3" transform="rotate(180 63.14528380259368 0)" font-family="sans-serif">KNOWS</text></g><g class="relationship" transform="translate(-165.09168074087304 -90.12317794497555) rotate(345.6571769175089)"><path class="outline" fill="#A5ABB6" stroke="none" d="M 24.018736134675446,-6.953439040707552 L 24.277555179777966,-5.987513214418485 A 133.23682411987707 133.23682411987707 0 0 1 38.90063889930569,-9.038816430948884 L 38.75157242310537,-10.027643607796904 A 134.23682411987707 134.23682411987707 0 0 0 24.018736134675446,-6.953439040707552 Z M 74.99496748565394,-10.542297934415842 L 74.87403804009301,-9.549636829508273 A 133.23682411987707 133.23682411987707 0 0 1 89.57786501887307,-6.914774221017071 L 88.88400093621894,-3.9961182572552327 L 96.50370628142639,-5.782200688784409 L 90.50301712907859,-10.806315506032854 L 89.80915304642446,-7.887659542271017 A 134.23682411987707 134.23682411987707 0 0 0 74.99496748565394,-10.542297934415842"/><text text-anchor="middle" pointer-events="none" font-size="8px" fill="#000000" x="56.862918250140865" y="-8.013966694956764" font-family="sans-serif">KNOWS</text></g><g class="relationship" transform="translate(-222.03350550213645 -210.63875372408634) rotate(331.7207398593961)"><path class="outline" fill="#A5ABB6" stroke="none" d="M 25 0.5 L 40.1096149801391 0.5 L 40.1096149801391 -0.5 L 25 -0.5 Z M 76.3322712301391 0.5 L 91.4418862102782 0.5 L 91.4418862102782 3.5 L 98.4418862102782 0 L 91.4418862102782 -3.5 L 91.4418862102782 -0.5 L 76.3322712301391 -0.5 Z"/><text text-anchor="middle" pointer-events="none" font-size="8px" fill="#000000" x="58.2209431051391" y="3" font-family="sans-serif">KNOWS</text></g><g class="relationship" transform="translate(-222.03350550213645 -210.63875372408634) rotate(529.7856406337635)"><path class="outline" fill="#A5ABB6" stroke="none" d="M 25 0.5 L 46.24902776908624 0.5 L 46.24902776908624 -0.5 L 25 -0.5 Z M 82.47168401908624 0.5 L 103.72071178817248 0.5 L 103.72071178817248 3.5 L 110.72071178817248 0 L 103.72071178817248 -3.5 L 103.72071178817248 -0.5 L 82.47168401908624 -0.5 Z"/><text text-anchor="middle" pointer-events="none" font-size="8px" fill="#000000" x="64.36035589408624" y="3" transform="rotate(180 64.36035589408624 0)" font-family="sans-serif">KNOWS</text></g><g class="relationship" transform="translate(-458.0350619607602 22.57032996576721) rotate(451.64358312007107)"><path class="outline" fill="#A5ABB6" stroke="none" d="M 25 0.5 L 35.03656199250725 0.5 L 35.03656199250725 -0.5 L 25 -0.5 Z M 71.25921824250725 0.5 L 81.2957802350145 0.5 L 81.2957802350145 3.5 L 88.2957802350145 0 L 81.2957802350145 -3.5 L 81.2957802350145 -0.5 L 71.25921824250725 -0.5 Z"/><text text-anchor="middle" pointer-events="none" font-size="8px" fill="#000000" x="53.14789011750725" y="3" transform="rotate(180 53.14789011750725 0)" font-family="sans-serif">KNOWS</text></g><g class="relationship" transform="translate(-458.0350619607602 22.57032996576721) rotate(286.45586152133535)"><path class="outline" fill="#A5ABB6" stroke="none" d="M 25 0.5 L 37.828482414067494 0.5 L 37.828482414067494 -0.5 L 25 -0.5 Z M 74.0511386640675 0.5 L 86.87962107813499 0.5 L 86.87962107813499 3.5 L 93.87962107813499 0 L 86.87962107813499 -3.5 L 86.87962107813499 -0.5 L 74.0511386640675 -0.5 Z"/><text text-anchor="middle" pointer-events="none" font-size="8px" fill="#000000" x="55.939810539067494" y="3" font-family="sans-serif">KNOWS</text></g><g class="relationship" transform="translate(226.60104126438523 -193.89111278709888) rotate(460.6466902499582)"><path class="outline" fill="#A5ABB6" stroke="none" d="M 25 0.5 L 36.226856217911624 0.5 L 36.226856217911624 -0.5 L 25 -0.5 Z M 72.44951246791163 0.5 L 83.67636868582325 0.5 L 83.67636868582325 3.5 L 90.67636868582325 0 L 83.67636868582325 -3.5 L 83.67636868582325 -0.5 L 72.44951246791163 -0.5 Z"/><text text-anchor="middle" pointer-events="none" font-size="8px" fill="#000000" x="54.338184342911624" y="3" transform="rotate(180 54.338184342911624 0)" font-family="sans-serif">KNOWS</text></g><g class="relationship" transform="translate(66.72949802342524 338.956138649387) rotate(460.30202141090234)"><path class="outline" fill="#A5ABB6" stroke="none" d="M 25 0.5 L 32.269782739616005 0.5 L 32.269782739616005 -0.5 L 25 -0.5 Z M 68.492438989616 0.5 L 75.76222172923201 0.5 L 75.76222172923201 3.5 L 82.76222172923201 0 L 75.76222172923201 -3.5 L 75.76222172923201 -0.5 L 68.492438989616 -0.5 Z"/><text text-anchor="middle" pointer-events="none" font-size="8px" fill="#000000" x="50.381110864616005" y="3" transform="rotate(180 50.381110864616005 0)" font-family="sans-serif">KNOWS</text></g><g class="relationship" transform="translate(323.497594883139 -63.806019811289424) rotate(187.89478778549017)"><path class="outline" fill="#A5ABB6" stroke="none" d="M 25 0.5 L 38.08852265666764 0.5 L 38.08852265666764 -0.5 L 25 -0.5 Z M 74.31117890666764 0.5 L 87.39970156333528 0.5 L 87.39970156333528 3.5 L 94.39970156333528 0 L 87.39970156333528 -3.5 L 87.39970156333528 -0.5 L 74.31117890666764 -0.5 Z"/><text text-anchor="middle" pointer-events="none" font-size="8px" fill="#000000" x="56.19985078166764" y="3" transform="rotate(180 56.19985078166764 0)" font-family="sans-serif">KNOWS</text></g><g class="relationship" transform="translate(323.497594883139 -63.806019811289424) rotate(429.4591748413175)"><path class="outline" fill="#A5ABB6" stroke="none" d="M 25 0.5 L 38.57696785454959 0.5 L 38.57696785454959 -0.5 L 25 -0.5 Z M 74.7996241045496 0.5 L 88.37659195909919 0.5 L 88.37659195909919 3.5 L 95.37659195909919 0 L 88.37659195909919 -3.5 L 88.37659195909919 -0.5 L 74.7996241045496 -0.5 Z"/><text text-anchor="middle" pointer-events="none" font-size="8px" fill="#000000" x="56.68829597954959" y="3" font-family="sans-serif">KNOWS</text></g><g class="relationship" transform="translate(323.497594883139 -63.806019811289424) rotate(368.4941009634152)"><path class="outline" fill="#A5ABB6" stroke="none" d="M 25 0.5 L 35.72779288293834 0.5 L 35.72779288293834 -0.5 L 25 -0.5 Z M 71.95044913293833 0.5 L 82.67824201587668 0.5 L 82.67824201587668 3.5 L 89.67824201587668 0 L 82.67824201587668 -3.5 L 82.67824201587668 -0.5 L 71.95044913293833 -0.5 Z"/><text text-anchor="middle" pointer-events="none" font-size="8px" fill="#000000" x="53.83912100793834" y="3" font-family="sans-serif">KNOWS</text></g><g class="relationship" transform="translate(-375.68073003945676 -56.42782192667244) rotate(496.191597558942)"><path class="outline" fill="#A5ABB6" stroke="none" d="M 25 0.5 L 35.4477289751335 0.5 L 35.4477289751335 -0.5 L 25 -0.5 Z M 71.6703852251335 0.5 L 82.118114200267 0.5 L 82.118114200267 3.5 L 89.118114200267 0 L 82.118114200267 -3.5 L 82.118114200267 -0.5 L 71.6703852251335 -0.5 Z"/><text text-anchor="middle" pointer-events="none" font-size="8px" fill="#000000" x="53.5590571001335" y="3" transform="rotate(180 53.5590571001335 0)" font-family="sans-serif">KNOWS</text></g><g class="relationship" transform="translate(-375.68073003945676 -56.42782192667244) rotate(278.77001415952293)"><path class="outline" fill="#A5ABB6" stroke="none" d="M 25 0.5 L 44.23016461798194 0.5 L 44.23016461798194 -0.5 L 25 -0.5 Z M 80.45282086798194 0.5 L 99.68298548596388 0.5 L 99.68298548596388 3.5 L 106.68298548596388 0 L 99.68298548596388 -3.5 L 99.68298548596388 -0.5 L 80.45282086798194 -0.5 Z"/><text text-anchor="middle" pointer-events="none" font-size="8px" fill="#000000" x="62.34149274298194" y="3" font-family="sans-serif">KNOWS</text></g><g class="relationship" transform="translate(-141.1434112411008 418.8584589205095) rotate(270.02788971947075)"><path class="outline" fill="#A5ABB6" stroke="none" d="M 25 0.5 L 31.82938351425522 0.5 L 31.82938351425522 -0.5 L 25 -0.5 Z M 68.05203976425523 0.5 L 74.88142327851044 0.5 L 74.88142327851044 3.5 L 81.88142327851044 0 L 74.88142327851044 -3.5 L 74.88142327851044 -0.5 L 68.05203976425523 -0.5 Z"/><text text-anchor="middle" pointer-events="none" font-size="8px" fill="#000000" x="49.94071163925522" y="3" font-family="sans-serif">KNOWS</text></g><g class="relationship" transform="translate(307.74473945276594 580.0785900363787) rotate(477.7511078003496)"><path class="outline" fill="#A5ABB6" stroke="none" d="M 25 0.5 L 32.33201026722473 0.5 L 32.33201026722473 -0.5 L 25 -0.5 Z M 68.55466651722473 0.5 L 75.88667678444946 0.5 L 75.88667678444946 3.5 L 82.88667678444946 0 L 75.88667678444946 -3.5 L 75.88667678444946 -0.5 L 68.55466651722473 -0.5 Z"/><text text-anchor="middle" pointer-events="none" font-size="8px" fill="#000000" x="50.44333839222473" y="3" transform="rotate(180 50.44333839222473 0)" font-family="sans-serif">KNOWS</text></g><g class="relationship" transform="translate(307.74473945276594 580.0785900363787) rotate(245.55884223312336)"><path class="outline" fill="#A5ABB6" stroke="none" d="M 25 0.5 L 33.47888188035796 0.5 L 33.47888188035796 -0.5 L 25 -0.5 Z M 69.70153813035796 0.5 L 78.18042001071592 0.5 L 78.18042001071592 3.5 L 85.18042001071592 0 L 78.18042001071592 -3.5 L 78.18042001071592 -0.5 L 69.70153813035796 -0.5 Z"/><text text-anchor="middle" pointer-events="none" font-size="8px" fill="#000000" x="51.59021000535796" y="3" transform="rotate(180 51.59021000535796 0)" font-family="sans-serif">KNOWS</text></g></g><g class="layer nodes"><g class="node" transform="translate(149.47242951069455,694.3560613343425)"><circle class="outline" cx="0" cy="0" r="25" fill="#F79767" stroke="#f36924" stroke-width="2px"/><text text-anchor="middle" pointer-events="none" font-family="sans-serif" dy="1.5625" font-size="25" fill="#FFFFFF"/><text text-anchor="middle" pointer-events="none" y="5" font-size="10px" fill="#FFFFFF" font-family="sans-serif"> Kyson</text></g><g class="node" transform="translate(-141.09138484719384,311.9770483043764)"><circle class="outline" cx="0" cy="0" r="25" fill="#4C8EDA" stroke="#2870c2" stroke-width="2px"/><text text-anchor="middle" pointer-events="none" font-family="sans-serif" dy="1.5625" font-size="25" fill="#FFFFFF"/><text text-anchor="middle" pointer-events="none" y="5" font-size="10px" fill="#FFFFFF" font-family="sans-serif"> Xander</text></g><g class="node" transform="translate(464.6913510889955,434.3877498656447)"><circle class="outline" cx="0" cy="0" r="25" fill="#F79767" stroke="#f36924" stroke-width="2px"/><text text-anchor="middle" pointer-events="none" font-family="sans-serif" dy="1.5625" font-size="25" fill="#FFFFFF"/><text text-anchor="middle" pointer-events="none" y="5" font-size="10px" fill="#FFFFFF" font-family="sans-serif"> Gabriel</text></g><g class="node" transform="translate(154.14015731469934,461.7102452393465)"><circle class="outline" cx="0" cy="0" r="25" fill="#F79767" stroke="#f36924" stroke-width="2px"/><text text-anchor="middle" pointer-events="none" font-family="sans-serif" dy="1.5625" font-size="25" fill="#FFFFFF"/><text text-anchor="middle" pointer-events="none" y="5" font-size="10px" fill="#FFFFFF" font-family="sans-serif"> Edith</text></g><g class="node" transform="translate(47.45763347063669,444.9810964125436)"><circle class="outline" cx="0" cy="0" r="25" fill="#F79767" stroke="#f36924" stroke-width="2px"/><text text-anchor="middle" pointer-events="none" font-family="sans-serif" dy="1.5625" font-size="25" fill="#FFFFFF"/><text text-anchor="middle" pointer-events="none" y="5" font-size="10px" fill="#FFFFFF" font-family="sans-serif"> Emelia</text></g><g class="node" transform="translate(-424.35924442666453,-91.43977318781849)"><circle class="outline" cx="0" cy="0" r="25" fill="#F79767" stroke="#f36924" stroke-width="2px"/><text text-anchor="middle" pointer-events="none" font-family="sans-serif" dy="1.5625" font-size="25" fill="#FFFFFF"/><text text-anchor="middle" pointer-events="none" y="5" font-size="10px" fill="#FFFFFF" font-family="sans-serif"> Sunday</text></g><g class="node" transform="translate(262.1566538796407,479.77180358842605)"><circle class="outline" cx="0" cy="0" r="25" fill="#4C8EDA" stroke="#2870c2" stroke-width="2px"/><text text-anchor="middle" pointer-events="none" font-family="sans-serif" dy="1.5625" font-size="25" fill="#FFFFFF"/><text text-anchor="middle" pointer-events="none" y="5" font-size="10px" fill="#FFFFFF" font-family="sans-serif"> Lauralee</text></g><g class="node" transform="translate(648.8550608842611,328.04094605879226)"><circle class="outline" cx="0" cy="0" r="25" fill="#F79767" stroke="#f36924" stroke-width="2px"/><text text-anchor="middle" pointer-events="none" font-family="sans-serif" dy="1.5625" font-size="25" fill="#FFFFFF"/><text text-anchor="middle" pointer-events="none" y="5" font-size="10px" fill="#FFFFFF" font-family="sans-serif"> Lynn</text></g><g class="node" transform="translate(-113.32454349127563,-269.12174996805874)"><circle class="outline" cx="0" cy="0" r="25" fill="#F79767" stroke="#f36924" stroke-width="2px"/><text text-anchor="middle" pointer-events="none" font-family="sans-serif" dy="1.5625" font-size="25" fill="#FFFFFF"/><text text-anchor="middle" pointer-events="none" y="5" font-size="10px" fill="#FFFFFF" font-family="sans-serif"> Lenora</text></g><g class="node" transform="translate(160.63147603591983,-391.681171967475)"><circle class="outline" cx="0" cy="0" r="25" fill="#F79767" stroke="#f36924" stroke-width="2px"/><text text-anchor="middle" pointer-events="none" font-family="sans-serif" dy="1.5625" font-size="25" fill="#FFFFFF"/><text text-anchor="middle" pointer-events="none" y="5" font-size="10px" fill="#FFFFFF" font-family="sans-serif"> Harn</text></g><g class="node" transform="translate(616.6642049409076,-32.02986466706792)"><circle class="outline" cx="0" cy="0" r="25" fill="#F79767" stroke="#f36924" stroke-width="2px"/><text text-anchor="middle" pointer-events="none" font-family="sans-serif" dy="1.5625" font-size="25" fill="#FFFFFF"/><text text-anchor="middle" pointer-events="none" y="5" font-size="10px" fill="#FFFFFF" font-family="sans-serif"> Mckenzie</text></g><g class="node" transform="translate(519.2236756919399,523.0135092134764)"><circle class="outline" cx="0" cy="0" r="25" fill="#F79767" stroke="#f36924" stroke-width="2px"/><text text-anchor="middle" pointer-events="none" font-family="sans-serif" dy="1.5625" font-size="25" fill="#FFFFFF"/><text text-anchor="middle" pointer-events="none" y="5" font-size="10px" fill="#FFFFFF" font-family="sans-serif"> Whitley</text></g><g class="node" transform="translate(351.5520653520184,161.33806937773173)"><circle class="outline" cx="0" cy="0" r="25" fill="#F79767" stroke="#f36924" stroke-width="2px"/><text text-anchor="middle" pointer-events="none" font-family="sans-serif" dy="1.5625" font-size="25" fill="#FFFFFF"/><text text-anchor="middle" pointer-events="none" y="5" font-size="10px" fill="#FFFFFF" font-family="sans-serif"> Vera</text></g><g class="node" transform="translate(-355.6032063845909,-186.57121096501305)"><circle class="outline" cx="0" cy="0" r="25" fill="#4C8EDA" stroke="#2870c2" stroke-width="2px"/><text text-anchor="middle" pointer-events="none" font-family="sans-serif" dy="1.5625" font-size="25" fill="#FFFFFF"/><text text-anchor="middle" pointer-events="none" y="5" font-size="10px" fill="#FFFFFF" font-family="sans-serif"> Earl</text></g><g class="node" transform="translate(436.9179400035596,-46.867173787528735)"><circle class="outline" cx="0" cy="0" r="25" fill="#F79767" stroke="#f36924" stroke-width="2px"/><text text-anchor="middle" pointer-events="none" font-family="sans-serif" dy="1.5625" font-size="25" fill="#FFFFFF"/><text text-anchor="middle" pointer-events="none" y="5" font-size="10px" fill="#FFFFFF" font-family="sans-serif"> Cullen</text></g><g class="node" transform="translate(365.73469578151673,48.917319384228215)"><circle class="outline" cx="0" cy="0" r="25" fill="#F79767" stroke="#f36924" stroke-width="2px"/><text text-anchor="middle" pointer-events="none" font-family="sans-serif" dy="1.5625" font-size="25" fill="#FFFFFF"/><text text-anchor="middle" pointer-events="none" y="5" font-size="10px" fill="#FFFFFF" font-family="sans-serif"> Estes</text></g><g class="node" transform="translate(164.53201060177028,33.50129196168591)"><circle class="outline" cx="0" cy="0" r="25" fill="#F79767" stroke="#f36924" stroke-width="2px"/><text text-anchor="middle" pointer-events="none" font-family="sans-serif" dy="1.5625" font-size="25" fill="#FFFFFF"/><text text-anchor="middle" pointer-events="none" y="5" font-size="10px" fill="#FFFFFF" font-family="sans-serif"> Isola</text></g><g class="node" transform="translate(255.13244595577083,110.99228694403959)"><circle class="outline" cx="0" cy="0" r="25" fill="#F79767" stroke="#f36924" stroke-width="2px"/><text text-anchor="middle" pointer-events="none" font-family="sans-serif" dy="1.5625" font-size="25" fill="#FFFFFF"/><text text-anchor="middle" pointer-events="none" y="5" font-size="10px" fill="#FFFFFF" font-family="sans-serif"> Steph</text></g><g class="node" transform="translate(205.22956816728055,-80.2060987791029)"><circle class="outline" cx="0" cy="0" r="25" fill="#F79767" stroke="#f36924" stroke-width="2px"/><text text-anchor="middle" pointer-events="none" font-family="sans-serif" dy="1.5625" font-size="25" fill="#FFFFFF"/><text text-anchor="middle" pointer-events="none" y="5" font-size="10px" fill="#FFFFFF" font-family="sans-serif"> Oscar</text></g><g class="node" transform="translate(507.92668602206527,18.242703356850658)"><circle class="outline" cx="0" cy="0" r="25" fill="#4C8EDA" stroke="#2870c2" stroke-width="2px"/><text text-anchor="middle" pointer-events="none" font-family="sans-serif" dy="1.5625" font-size="25" fill="#FFFFFF"/><text text-anchor="middle" pointer-events="none" y="5" font-size="10px" fill="#FFFFFF" font-family="sans-serif"> Antonia</text></g><g class="node" transform="translate(662.8633308010989,-134.41894585222508)"><circle class="outline" cx="0" cy="0" r="25" fill="#F79767" stroke="#f36924" stroke-width="2px"/><text text-anchor="middle" pointer-events="none" font-family="sans-serif" dy="1.5625" font-size="25" fill="#FFFFFF"/><text text-anchor="middle" pointer-events="none" y="5" font-size="10px" fill="#FFFFFF" font-family="sans-serif"> Christie</text></g><g class="node" transform="translate(697.1591023829253,232.58453782036332)"><circle class="outline" cx="0" cy="0" r="25" fill="#F79767" stroke="#f36924" stroke-width="2px"/><text text-anchor="middle" pointer-events="none" font-family="sans-serif" dy="1.5625" font-size="25" fill="#FFFFFF"/><text text-anchor="middle" pointer-events="none" y="5" font-size="10px" fill="#FFFFFF" font-family="sans-serif"> Arabella</text></g><g class="node" transform="translate(465.3890555008601,-166.228818522703)"><circle class="outline" cx="0" cy="0" r="25" fill="#F79767" stroke="#f36924" stroke-width="2px"/><text text-anchor="middle" pointer-events="none" font-family="sans-serif" dy="1.5625" font-size="25" fill="#FFFFFF"/><text text-anchor="middle" pointer-events="none" y="5" font-size="10px" fill="#FFFFFF" font-family="sans-serif"> Casey</text></g><g class="node" transform="translate(376.79751494954667,-432.09127625529925)"><circle class="outline" cx="0" cy="0" r="25" fill="#F79767" stroke="#f36924" stroke-width="2px"/><text text-anchor="middle" pointer-events="none" font-family="sans-serif" dy="1.5625" font-size="25" fill="#FFFFFF"/><text text-anchor="middle" pointer-events="none" y="5" font-size="10px" fill="#FFFFFF" font-family="sans-serif"> Cayden</text></g><g class="node" transform="translate(-1.3673174430157873,-233.11902715475648)"><circle class="outline" cx="0" cy="0" r="25" fill="#F79767" stroke="#f36924" stroke-width="2px"/><text text-anchor="middle" pointer-events="none" font-family="sans-serif" dy="1.5625" font-size="25" fill="#FFFFFF"/><text text-anchor="middle" pointer-events="none" y="5" font-size="10px" fill="#FFFFFF" font-family="sans-serif"> Briley</text></g><g class="node" transform="translate(-461.284611862825,135.81949881258345)"><circle class="outline" cx="0" cy="0" r="25" fill="#F79767" stroke="#f36924" stroke-width="2px"/><text text-anchor="middle" pointer-events="none" font-family="sans-serif" dy="1.5625" font-size="25" fill="#FFFFFF"/><text text-anchor="middle" pointer-events="none" y="5" font-size="10px" fill="#FFFFFF" font-family="sans-serif"> Raferty</text></g><g class="node" transform="translate(-285.73420426411445,-36.14498730320848)"><circle class="outline" cx="0" cy="0" r="25" fill="#F79767" stroke="#f36924" stroke-width="2px"/><text text-anchor="middle" pointer-events="none" font-family="sans-serif" dy="1.5625" font-size="25" fill="#FFFFFF"/><text text-anchor="middle" pointer-events="none" y="5" font-size="10px" fill="#FFFFFF" font-family="sans-serif"> Madeline</text></g><g class="node" transform="translate(-268.6414558878407,-145.20148073546778)"><circle class="outline" cx="0" cy="0" r="25" fill="#F79767" stroke="#f36924" stroke-width="2px"/><text text-anchor="middle" pointer-events="none" font-family="sans-serif" dy="1.5625" font-size="25" fill="#FFFFFF"/><text text-anchor="middle" pointer-events="none" y="5" font-size="10px" fill="#FFFFFF" font-family="sans-serif"> Shia</text></g><g class="node" transform="translate(497.0052821980607,194.81437297694356)"><circle class="outline" cx="0" cy="0" r="25" fill="#F79767" stroke="#f36924" stroke-width="2px"/><text text-anchor="middle" pointer-events="none" font-family="sans-serif" dy="1.5625" font-size="25" fill="#FFFFFF"/><text text-anchor="middle" pointer-events="none" y="5" font-size="10px" fill="#FFFFFF" font-family="sans-serif"> Rory</text></g><g class="node" transform="translate(66.37425256302026,-522.8764678810143)"><circle class="outline" cx="0" cy="0" r="25" fill="#F79767" stroke="#f36924" stroke-width="2px"/><text text-anchor="middle" pointer-events="none" font-family="sans-serif" dy="1.5625" font-size="25" fill="#FFFFFF"/><text text-anchor="middle" pointer-events="none" y="5" font-size="10px" fill="#FFFFFF" font-family="sans-serif"> Cleo</text></g><g class="node" transform="translate(-167.11467575143934,-464.44611143176155)"><circle class="outline" cx="0" cy="0" r="25" fill="#F79767" stroke="#f36924" stroke-width="2px"/><text text-anchor="middle" pointer-events="none" font-family="sans-serif" dy="1.5625" font-size="25" fill="#FFFFFF"/><text text-anchor="middle" pointer-events="none" y="5" font-size="10px" fill="#FFFFFF" font-family="sans-serif"> Raymond</text></g><g class="node" transform="translate(71.91309543390744,-322.84792053485546)"><circle class="outline" cx="0" cy="0" r="25" fill="#F79767" stroke="#f36924" stroke-width="2px"/><text text-anchor="middle" pointer-events="none" font-family="sans-serif" dy="1.5625" font-size="25" fill="#FFFFFF"/><text text-anchor="middle" pointer-events="none" y="5" font-size="10px" fill="#FFFFFF" font-family="sans-serif"> Everly</text></g><g class="node" transform="translate(447.31119233857385,90.69184424423294)"><circle class="outline" cx="0" cy="0" r="25" fill="#F79767" stroke="#f36924" stroke-width="2px"/><text text-anchor="middle" pointer-events="none" font-family="sans-serif" dy="1.5625" font-size="25" fill="#FFFFFF"/><text text-anchor="middle" pointer-events="none" y="5" font-size="10px" fill="#FFFFFF" font-family="sans-serif"> Rhett</text></g><g class="node" transform="translate(-48.03187980223672,-120.0545402568278)"><circle class="outline" cx="0" cy="0" r="25" fill="#F79767" stroke="#f36924" stroke-width="2px"/><text text-anchor="middle" pointer-events="none" font-family="sans-serif" dy="1.5625" font-size="25" fill="#FFFFFF"/><text text-anchor="middle" pointer-events="none" y="5" font-size="10px" fill="#FFFFFF" font-family="sans-serif"> Gerard</text></g><g class="node" transform="translate(-165.09168074087304,-90.12317794497555)"><circle class="outline" cx="0" cy="0" r="25" fill="#F79767" stroke="#f36924" stroke-width="2px"/><text text-anchor="middle" pointer-events="none" font-family="sans-serif" dy="1.5625" font-size="25" fill="#FFFFFF"/><text text-anchor="middle" pointer-events="none" y="5" font-size="10px" fill="#FFFFFF" font-family="sans-serif"> Melanie</text></g><g class="node" transform="translate(-222.03350550213645,-210.63875372408634)"><circle class="outline" cx="0" cy="0" r="25" fill="#F79767" stroke="#f36924" stroke-width="2px"/><text text-anchor="middle" pointer-events="none" font-family="sans-serif" dy="1.5625" font-size="25" fill="#FFFFFF"/><text text-anchor="middle" pointer-events="none" y="5" font-size="10px" fill="#FFFFFF" font-family="sans-serif"> Collin</text></g><g class="node" transform="translate(-458.0350619607602,22.57032996576721)"><circle class="outline" cx="0" cy="0" r="25" fill="#F79767" stroke="#f36924" stroke-width="2px"/><text text-anchor="middle" pointer-events="none" font-family="sans-serif" dy="1.5625" font-size="25" fill="#FFFFFF"/><text text-anchor="middle" pointer-events="none" y="5" font-size="10px" fill="#FFFFFF" font-family="sans-serif"> Becky</text></g><g class="node" transform="translate(226.60104126438523,-193.89111278709888)"><circle class="outline" cx="0" cy="0" r="25" fill="#F79767" stroke="#f36924" stroke-width="2px"/><text text-anchor="middle" pointer-events="none" font-family="sans-serif" dy="1.5625" font-size="25" fill="#FFFFFF"/><text text-anchor="middle" pointer-events="none" y="5" font-size="10px" fill="#FFFFFF" font-family="sans-serif"> Davina</text></g><g class="node" transform="translate(257.50929014988463,675.5559939648995)"><circle class="outline" cx="0" cy="0" r="25" fill="#F79767" stroke="#f36924" stroke-width="2px"/><text text-anchor="middle" pointer-events="none" font-family="sans-serif" dy="1.5625" font-size="25" fill="#FFFFFF"/><text text-anchor="middle" pointer-events="none" y="5" font-size="10px" fill="#FFFFFF" font-family="sans-serif"> Oreli</text></g><g class="node" transform="translate(66.72949802342524,338.956138649387)"><circle class="outline" cx="0" cy="0" r="25" fill="#F79767" stroke="#f36924" stroke-width="2px"/><text text-anchor="middle" pointer-events="none" font-family="sans-serif" dy="1.5625" font-size="25" fill="#FFFFFF"/><text text-anchor="middle" pointer-events="none" y="5" font-size="10px" fill="#FFFFFF" font-family="sans-serif"> Braxton</text></g><g class="node" transform="translate(323.497594883139,-63.806019811289424)"><circle class="outline" cx="0" cy="0" r="25" fill="#F79767" stroke="#f36924" stroke-width="2px"/><text text-anchor="middle" pointer-events="none" font-family="sans-serif" dy="1.5625" font-size="25" fill="#FFFFFF"/><text text-anchor="middle" pointer-events="none" y="5" font-size="10px" fill="#FFFFFF" font-family="sans-serif"> Utte</text></g><g class="node" transform="translate(-375.68073003945676,-56.42782192667244)"><circle class="outline" cx="0" cy="0" r="25" fill="#F79767" stroke="#f36924" stroke-width="2px"/><text text-anchor="middle" pointer-events="none" font-family="sans-serif" dy="1.5625" font-size="25" fill="#FFFFFF"/><text text-anchor="middle" pointer-events="none" y="5" font-size="10px" fill="#FFFFFF" font-family="sans-serif"> Una</text></g><g class="node" transform="translate(-431.14039798220915,336.65159506571337)"><circle class="outline" cx="0" cy="0" r="25" fill="#F79767" stroke="#f36924" stroke-width="2px"/><text text-anchor="middle" pointer-events="none" font-family="sans-serif" dy="1.5625" font-size="25" fill="#FFFFFF"/><text text-anchor="middle" pointer-events="none" y="5" font-size="10px" fill="#FFFFFF" font-family="sans-serif"> Aleni</text></g><g class="node" transform="translate(-347.46568827774394,484.7132811933989)"><circle class="outline" cx="0" cy="0" r="25" fill="#F79767" stroke="#f36924" stroke-width="2px"/><text text-anchor="middle" pointer-events="none" font-family="sans-serif" dy="1.5625" font-size="25" fill="#FFFFFF"/><text text-anchor="middle" pointer-events="none" y="5" font-size="10px" fill="#FFFFFF" font-family="sans-serif"> Emil</text></g><g class="node" transform="translate(-244.68497543569958,294.7433813364119)"><circle class="outline" cx="0" cy="0" r="25" fill="#F79767" stroke="#f36924" stroke-width="2px"/><text text-anchor="middle" pointer-events="none" font-family="sans-serif" dy="1.5625" font-size="25" fill="#FFFFFF"/><text text-anchor="middle" pointer-events="none" y="5" font-size="10px" fill="#FFFFFF" font-family="sans-serif"> Micah</text></g><g class="node" transform="translate(-141.1434112411008,418.8584589205095)"><circle class="outline" cx="0" cy="0" r="25" fill="#F79767" stroke="#f36924" stroke-width="2px"/><text text-anchor="middle" pointer-events="none" font-family="sans-serif" dy="1.5625" font-size="25" fill="#FFFFFF"/><text text-anchor="middle" pointer-events="none" y="5" font-size="10px" fill="#FFFFFF" font-family="sans-serif"> Edwin</text></g><g class="node" transform="translate(-218.70056041937332,602.6937629281044)"><circle class="outline" cx="0" cy="0" r="25" fill="#F79767" stroke="#f36924" stroke-width="2px"/><text text-anchor="middle" pointer-events="none" font-family="sans-serif" dy="1.5625" font-size="25" fill="#FFFFFF"/><text text-anchor="middle" pointer-events="none" y="5" font-size="10px" fill="#FFFFFF" font-family="sans-serif"> Oakley</text></g><g class="node" transform="translate(307.74473945276594,580.0785900363787)"><circle class="outline" cx="0" cy="0" r="25" fill="#F79767" stroke="#f36924" stroke-width="2px"/><text text-anchor="middle" pointer-events="none" font-family="sans-serif" dy="1.5625" font-size="25" fill="#FFFFFF"/><text text-anchor="middle" pointer-events="none" y="5" font-size="10px" fill="#FFFFFF" font-family="sans-serif"> Regina</text></g><g class="node" transform="translate(-30.069695107377306,169.39309062484173)"><circle class="outline" cx="0" cy="0" r="25" fill="#F79767" stroke="#f36924" stroke-width="2px"/><text text-anchor="middle" pointer-events="none" font-family="sans-serif" dy="1.5625" font-size="25" fill="#FFFFFF"/><text text-anchor="middle" pointer-events="none" y="5" font-size="10px" fill="#FFFFFF" font-family="sans-serif"> Douglas</text></g><g class="node" transform="translate(-57.799964199429326,646.909758611327)"><circle class="outline" cx="0" cy="0" r="25" fill="#F79767" stroke="#f36924" stroke-width="2px"/><text text-anchor="middle" pointer-events="none" font-family="sans-serif" dy="1.5625" font-size="25" fill="#FFFFFF"/><text text-anchor="middle" pointer-events="none" y="5" font-size="10px" fill="#FFFFFF" font-family="sans-serif"> Reid</text></g></g></svg>