<svg xmlns="http://www.w3.org/2000/svg" width="1247.349853515625" height="1228.834228515625" viewBox="-505.23114013671875 -538.8323974609375 1247.349853515625 1228.834228515625"><title>Neo4j Graph Visualization</title><desc>Created using Neo4j (http://www.neo4j.com/)</desc><g class="layer relationships"><g class="relationship" transform="translate(194.63808943397822 328.26331218037814) rotate(379.26317577732266)"><path class="outline" fill="#A5ABB6" stroke="none" d="M 25 0.5 L 31.650124576742726 0.5 L 31.650124576742726 -0.5 L 25 -0.5 Z M 67.87278082674273 0.5 L 74.52290540348545 0.5 L 74.52290540348545 3.5 L 81.52290540348545 0 L 74.52290540348545 -3.5 L 74.52290540348545 -0.5 L 67.87278082674273 -0.5 Z"/><text text-anchor="middle" pointer-events="none" font-size="8px" fill="#000000" x="49.761452701742726" y="3" font-family="sans-serif">KNOWS</text></g><g class="relationship" transform="translate(-192.39857073275576 335.2458333702658) rotate(428.14660130986795)"><path class="outline" fill="#A5ABB6" stroke="none" d="M 25 0.5 L 31.413239298893345 0.5 L 31.413239298893345 -0.5 L 25 -0.5 Z M 67.63589554889334 0.5 L 74.04913484778669 0.5 L 74.04913484778669 3.5 L 81.04913484778669 0 L 74.04913484778669 -3.5 L 74.04913484778669 -0.5 L 67.63589554889334 -0.5 Z"/><text text-anchor="middle" pointer-events="none" font-size="8px" fill="#000000" x="49.524567423893345" y="3" font-family="sans-serif">KNOWS</text></g><g class="relationship" transform="translate(560.4434798848824 349.1233170100097) rotate(434.5665964832845)"><path class="outline" fill="#A5ABB6" stroke="none" d="M 25 0.5 L 30.458957539739536 0.5 L 30.458957539739536 -0.5 L 25 -0.5 Z M 66.68161378973954 0.5 L 72.14057132947907 0.5 L 72.14057132947907 3.5 L 79.14057132947907 0 L 72.14057132947907 -3.5 L 72.14057132947907 -0.5 L 66.68161378973954 -0.5 Z"/><text text-anchor="middle" pointer-events="none" font-size="8px" fill="#000000" x="48.57028566473954" y="3" font-family="sans-serif">KNOWS</text></g><g class="relationship" transform="translate(333.53002603737286 625.2893910364583) rotate(520.6683901514104)"><path class="outline" fill="#A5ABB6" stroke="none" d="M 24.018736134675446,-6.953439040707552 L 24.277555179777966,-5.987513214418485 A 107.46370756737105 107.46370756737105 0 0 1 32.476195704974984,-7.843953064355105 L 32.293668839909685,-8.827153930673603 A 108.46370756737105 108.46370756737105 0 0 0 24.018736134675446,-6.953439040707552 Z M 68.5091176525609,-9.399479030484628 L 68.35774989402451,-8.411001513453684 A 107.46370756737105 107.46370756737105 0 0 1 76.61095754785849,-6.8145558361655825 L 75.92645441426954,-3.8936903034669403 L 83.54039431308681,-5.704192779907829 L 77.52362839264374,-10.709043213097106 L 76.8391252590548,-7.788177680398463 A 108.46370756737105 108.46370756737105 0 0 0 68.5091176525609,-9.399479030484628"/><text text-anchor="middle" pointer-events="none" font-size="8px" fill="#000000" x="50.38523504768811" y="-7.135771048067795" transform="rotate(180 50.38523504768811 -10.135771048067795)" font-family="sans-serif">KNOWS</text></g><g class="relationship" transform="translate(231.73157868892145 661.0017617658388) rotate(340.66839015141045)"><path class="outline" fill="#A5ABB6" stroke="none" d="M 24.018736134675446,-6.953439040707552 L 24.277555179777966,-5.987513214418485 A 107.46370756737105 107.46370756737105 0 0 1 32.476195704974984,-7.843953064355105 L 32.293668839909685,-8.827153930673603 A 108.46370756737105 108.46370756737105 0 0 0 24.018736134675446,-6.953439040707552 Z M 68.5091176525609,-9.399479030484628 L 68.35774989402451,-8.411001513453684 A 107.46370756737105 107.46370756737105 0 0 1 76.61095754785849,-6.8145558361655825 L 75.92645441426954,-3.8936903034669403 L 83.54039431308681,-5.704192779907829 L 77.52362839264374,-10.709043213097106 L 76.8391252590548,-7.788177680398463 A 108.46370756737105 108.46370756737105 0 0 0 68.5091176525609,-9.399479030484628"/><text text-anchor="middle" pointer-events="none" font-size="8px" fill="#000000" x="50.38523504768811" y="-7.135771048067795" font-family="sans-serif">KNOWS</text></g><g class="relationship" transform="translate(-345.6328995724083 59.95436375822926) rotate(248.10811532999503)"><path class="outline" fill="#A5ABB6" stroke="none" d="M 25 0.5 L 43.84750581551488 0.5 L 43.84750581551488 -0.5 L 25 -0.5 Z M 80.07016206551488 0.5 L 98.91766788102976 0.5 L 98.91766788102976 3.5 L 105.91766788102976 0 L 98.91766788102976 -3.5 L 98.91766788102976 -0.5 L 80.07016206551488 -0.5 Z"/><text text-anchor="middle" pointer-events="none" font-size="8px" fill="#000000" x="61.95883394051488" y="3" transform="rotate(180 61.95883394051488 0)" font-family="sans-serif">KNOWS</text></g><g class="relationship" transform="translate(403.6686265136179 542.4548974088501) rotate(490.2556506992637)"><path class="outline" fill="#A5ABB6" stroke="none" d="M 25 0.5 L 32.65877554937253 0.5 L 32.65877554937253 -0.5 L 25 -0.5 Z M 68.88143179937254 0.5 L 76.54020734874506 0.5 L 76.54020734874506 3.5 L 83.54020734874506 0 L 76.54020734874506 -3.5 L 76.54020734874506 -0.5 L 68.88143179937254 -0.5 Z"/><text text-anchor="middle" pointer-events="none" font-size="8px" fill="#000000" x="50.77010367437253" y="3" transform="rotate(180 50.77010367437253 0)" font-family="sans-serif">KNOWS</text></g><g class="relationship" transform="translate(713.1187807643852 126.00713838110026) rotate(483.44306750300586)"><path class="outline" fill="#A5ABB6" stroke="none" d="M 24.018736134675446,6.953439040707552 L 24.277555179777966,5.987513214418485 A 101.30302601916357 101.30302601916357 0 0 0 30.952665263806455,7.536170742205499 L 30.75973872306768,8.517383945275341 A 102.30302601916357 102.30302601916357 0 0 1 24.018736134675446,6.953439040707552 Z M 66.96381512430074,9.10532659718659 L 66.80285109298106,8.118366324115115 A 101.30302601916357 101.30302601916357 0 0 0 73.52472743524639,6.787271582347026 L 72.84277288659835,3.8658099629554132 L 80.45513030526816,5.6829545720668975 L 74.4340001667771,10.682553741535843 L 73.75204561812906,7.76109212214423 A 102.30302601916357 102.30302601916357 0 0 1 66.96381512430074,9.10532659718659"/><text text-anchor="middle" pointer-events="none" font-size="8px" fill="#000000" x="48.84367693219199" y="12.9259086595861" transform="rotate(180 48.84367693219199 9.9259086595861)" font-family="sans-serif">KNOWS</text></g><g class="relationship" transform="translate(-260.2405405308431 -263.4897887738879) rotate(340.30800430680256)"><path class="outline" fill="#A5ABB6" stroke="none" d="M 25 0.5 L 37.81747498448673 0.5 L 37.81747498448673 -0.5 L 25 -0.5 Z M 74.04013123448672 0.5 L 86.85760621897346 0.5 L 86.85760621897346 3.5 L 93.85760621897346 0 L 86.85760621897346 -3.5 L 86.85760621897346 -0.5 L 74.04013123448672 -0.5 Z"/><text text-anchor="middle" pointer-events="none" font-size="8px" fill="#000000" x="55.92880310948673" y="3" font-family="sans-serif">KNOWS</text></g><g class="relationship" transform="translate(50.612746050950236 -390.1641325109187) rotate(528.1307161584219)"><path class="outline" fill="#A5ABB6" stroke="none" d="M 25 0.5 L 32.83654365740473 0.5 L 32.83654365740473 -0.5 L 25 -0.5 Z M 69.05919990740473 0.5 L 76.89574356480946 0.5 L 76.89574356480946 3.5 L 83.89574356480946 0 L 76.89574356480946 -3.5 L 76.89574356480946 -0.5 L 69.05919990740473 -0.5 Z"/><text text-anchor="middle" pointer-events="none" font-size="8px" fill="#000000" x="50.94787178240473" y="3" transform="rotate(180 50.94787178240473 0)" font-family="sans-serif">KNOWS</text></g><g class="relationship" transform="translate(400.3941043278928 -217.74018340575327) rotate(303.27217869181845)"><path class="outline" fill="#A5ABB6" stroke="none" d="M 25 0.5 L 38.07154650502709 0.5 L 38.07154650502709 -0.5 L 25 -0.5 Z M 74.29420275502709 0.5 L 87.36574926005417 0.5 L 87.36574926005417 3.5 L 94.36574926005417 0 L 87.36574926005417 -3.5 L 87.36574926005417 -0.5 L 74.29420275502709 -0.5 Z"/><text text-anchor="middle" pointer-events="none" font-size="8px" fill="#000000" x="56.18287463002709" y="3" font-family="sans-serif">KNOWS</text></g><g class="relationship" transform="translate(400.3941043278928 -217.74018340575327) rotate(485.28594897915684)"><path class="outline" fill="#A5ABB6" stroke="none" d="M 25 0.5 L 46.56768647898967 0.5 L 46.56768647898967 -0.5 L 25 -0.5 Z M 82.79034272898967 0.5 L 104.35802920797934 0.5 L 104.35802920797934 3.5 L 111.35802920797934 0 L 104.35802920797934 -3.5 L 104.35802920797934 -0.5 L 82.79034272898967 -0.5 Z"/><text text-anchor="middle" pointer-events="none" font-size="8px" fill="#000000" x="64.67901460398967" y="3" transform="rotate(180 64.67901460398967 0)" font-family="sans-serif">KNOWS</text></g><g class="relationship" transform="translate(239.25590358278566 46.399370551328275) rotate(258.00265567639656)"><path class="outline" fill="#A5ABB6" stroke="none" d="M 25 0.5 L 42.64554196306 0.5 L 42.64554196306 -0.5 L 25 -0.5 Z M 78.86819821306 0.5 L 96.51374017612 0.5 L 96.51374017612 3.5 L 103.51374017612 0 L 96.51374017612 -3.5 L 96.51374017612 -0.5 L 78.86819821306 -0.5 Z"/><text text-anchor="middle" pointer-events="none" font-size="8px" fill="#000000" x="60.75687008806" y="3" transform="rotate(180 60.75687008806 0)" font-family="sans-serif">KNOWS</text></g><g class="relationship" transform="translate(239.25590358278566 46.399370551328275) rotate(394.82362290434924)"><path class="outline" fill="#A5ABB6" stroke="none" d="M 25 0.5 L 39.19394534661376 0.5 L 39.19394534661376 -0.5 L 25 -0.5 Z M 75.41660159661376 0.5 L 89.61054694322752 0.5 L 89.61054694322752 3.5 L 96.61054694322752 0 L 89.61054694322752 -3.5 L 89.61054694322752 -0.5 L 75.41660159661376 -0.5 Z"/><text text-anchor="middle" pointer-events="none" font-size="8px" fill="#000000" x="57.30527347161376" y="3" font-family="sans-serif">KNOWS</text></g><g class="relationship" transform="translate(276.77421682959164 -182.7974053821311) rotate(257.10561511180225)"><path class="outline" fill="#A5ABB6" stroke="none" d="M 25 0.5 L 36.77852387885102 0.5 L 36.77852387885102 -0.5 L 25 -0.5 Z M 73.00118012885102 0.5 L 84.77970400770204 0.5 L 84.77970400770204 3.5 L 91.77970400770204 0 L 84.77970400770204 -3.5 L 84.77970400770204 -0.5 L 73.00118012885102 -0.5 Z"/><text text-anchor="middle" pointer-events="none" font-size="8px" fill="#000000" x="54.88985200385102" y="3" transform="rotate(180 54.88985200385102 0)" font-family="sans-serif">KNOWS</text></g><g class="relationship" transform="translate(276.77421682959164 -182.7974053821311) rotate(481.8261444673411)"><path class="outline" fill="#A5ABB6" stroke="none" d="M 25 0.5 L 39.290142488510206 0.5 L 39.290142488510206 -0.5 L 25 -0.5 Z M 75.51279873851021 0.5 L 89.80294122702041 0.5 L 89.80294122702041 3.5 L 96.80294122702041 0 L 89.80294122702041 -3.5 L 89.80294122702041 -0.5 L 75.51279873851021 -0.5 Z"/><text text-anchor="middle" pointer-events="none" font-size="8px" fill="#000000" x="57.401470613510206" y="3" transform="rotate(180 57.401470613510206 0)" font-family="sans-serif">KNOWS</text></g><g class="relationship" transform="translate(339.68005014273365 4.980458507786674) rotate(260.79549901886884)"><path class="outline" fill="#A5ABB6" stroke="none" d="M 25 0.5 L 34.82253528799126 0.5 L 34.82253528799126 -0.5 L 25 -0.5 Z M 71.04519153799126 0.5 L 80.86772682598252 0.5 L 80.86772682598252 3.5 L 87.86772682598252 0 L 80.86772682598252 -3.5 L 80.86772682598252 -0.5 L 71.04519153799126 -0.5 Z"/><text text-anchor="middle" pointer-events="none" font-size="8px" fill="#000000" x="52.93386341299126" y="3" transform="rotate(180 52.93386341299126 0)" font-family="sans-serif">KNOWS</text></g><g class="relationship" transform="translate(339.68005014273365 4.980458507786674) rotate(517.5868016325077)"><path class="outline" fill="#A5ABB6" stroke="none" d="M 25 0.5 L 32.70380670674959 0.5 L 32.70380670674959 -0.5 L 25 -0.5 Z M 68.92646295674959 0.5 L 76.63026966349918 0.5 L 76.63026966349918 3.5 L 83.63026966349918 0 L 76.63026966349918 -3.5 L 76.63026966349918 -0.5 L 68.92646295674959 -0.5 Z"/><text text-anchor="middle" pointer-events="none" font-size="8px" fill="#000000" x="50.81513483174959" y="3" transform="rotate(180 50.81513483174959 0)" font-family="sans-serif">KNOWS</text></g><g class="relationship" transform="translate(459.6755070326062 86.25188701910217) rotate(526.2115487358735)"><path class="outline" fill="#A5ABB6" stroke="none" d="M 25 0.5 L 40.471670075644106 0.5 L 40.471670075644106 -0.5 L 25 -0.5 Z M 76.69432632564411 0.5 L 92.16599640128821 0.5 L 92.16599640128821 3.5 L 99.16599640128821 0 L 92.16599640128821 -3.5 L 92.16599640128821 -0.5 L 76.69432632564411 -0.5 Z"/><text text-anchor="middle" pointer-events="none" font-size="8px" fill="#000000" x="58.582998200644106" y="3" transform="rotate(180 58.582998200644106 0)" font-family="sans-serif">KNOWS</text></g><g class="relationship" transform="translate(339.08768412250197 115.84532595623911) rotate(270.3061362060564)"><path class="outline" fill="#A5ABB6" stroke="none" d="M 25 0.5 L 33.821896866571734 0.5 L 33.821896866571734 -0.5 L 25 -0.5 Z M 70.04455311657173 0.5 L 78.86644998314347 0.5 L 78.86644998314347 3.5 L 85.86644998314347 0 L 78.86644998314347 -3.5 L 78.86644998314347 -0.5 L 70.04455311657173 -0.5 Z"/><text text-anchor="middle" pointer-events="none" font-size="8px" fill="#000000" x="51.933224991571734" y="3" font-family="sans-serif">KNOWS</text></g><g class="relationship" transform="translate(502.2160897497889 -30.720927880043615) rotate(469.9852754824365)"><path class="outline" fill="#A5ABB6" stroke="none" d="M 25 0.5 L 40.622787525797364 0.5 L 40.622787525797364 -0.5 L 25 -0.5 Z M 76.84544377579736 0.5 L 92.46823130159473 0.5 L 92.46823130159473 3.5 L 99.46823130159473 0 L 92.46823130159473 -3.5 L 92.46823130159473 -0.5 L 76.84544377579736 -0.5 Z"/><text text-anchor="middle" pointer-events="none" font-size="8px" fill="#000000" x="58.734115650797364" y="3" transform="rotate(180 58.734115650797364 0)" font-family="sans-serif">KNOWS</text></g><g class="relationship" transform="translate(321.62587149499126 -106.43394986123899) rotate(239.5723886078726)"><path class="outline" fill="#A5ABB6" stroke="none" d="M 25 0.5 L 25.112524317815797 0.5 L 25.112524317815797 -0.5 L 25 -0.5 Z M 56.4484618178158 0.5 L 56.560986135631595 0.5 L 56.560986135631595 3.5 L 63.560986135631595 0 L 56.560986135631595 -3.5 L 56.560986135631595 -0.5 L 56.4484618178158 -0.5 Z"/><text text-anchor="middle" pointer-events="none" font-size="8px" fill="#000000" x="40.7804930678158" y="3" transform="rotate(180 40.7804930678158 0)" font-family="sans-serif">KNO…</text></g><g class="relationship" transform="translate(655.3622955739082 213.45634283361804) rotate(303.44306750300586)"><path class="outline" fill="#A5ABB6" stroke="none" d="M 24.018736134675446,6.953439040707552 L 24.277555179777966,5.987513214418485 A 101.30302601916357 101.30302601916357 0 0 0 30.952665263806455,7.536170742205499 L 30.75973872306768,8.517383945275341 A 102.30302601916357 102.30302601916357 0 0 1 24.018736134675446,6.953439040707552 Z M 66.96381512430074,9.10532659718659 L 66.80285109298106,8.118366324115115 A 101.30302601916357 101.30302601916357 0 0 0 73.52472743524639,6.787271582347026 L 72.84277288659835,3.8658099629554132 L 80.45513030526816,5.6829545720668975 L 74.4340001667771,10.682553741535843 L 73.75204561812906,7.76109212214423 A 102.30302601916357 102.30302601916357 0 0 1 66.96381512430074,9.10532659718659"/><text text-anchor="middle" pointer-events="none" font-size="8px" fill="#000000" x="48.84367693219199" y="12.9259086595861" font-family="sans-serif">KNOWS</text></g><g class="relationship" transform="translate(-148.33400901329873 -303.5404911374846) rotate(434.53841853889656)"><path class="outline" fill="#A5ABB6" stroke="none" d="M 25 0.5 L 37.803019610426404 0.5 L 37.803019610426404 -0.5 L 25 -0.5 Z M 74.0256758604264 0.5 L 86.82869547085281 0.5 L 86.82869547085281 3.5 L 93.82869547085281 0 L 86.82869547085281 -3.5 L 86.82869547085281 -0.5 L 74.0256758604264 -0.5 Z"/><text text-anchor="middle" pointer-events="none" font-size="8px" fill="#000000" x="55.914347735426404" y="3" font-family="sans-serif">KNOWS</text></g><g class="relationship" transform="translate(-216.44207992873885 37.340675143544686) rotate(530.0714758950523)"><path class="outline" fill="#A5ABB6" stroke="none" d="M 25 0.5 L 43.966196212544645 0.5 L 43.966196212544645 -0.5 L 25 -0.5 Z M 80.18885246254465 0.5 L 99.15504867508929 0.5 L 99.15504867508929 3.5 L 106.15504867508929 0 L 99.15504867508929 -3.5 L 99.15504867508929 -0.5 L 80.18885246254465 -0.5 Z"/><text text-anchor="middle" pointer-events="none" font-size="8px" fill="#000000" x="62.077524337544645" y="3" transform="rotate(180 62.077524337544645 0)" font-family="sans-serif">KNOWS</text></g><g class="relationship" transform="translate(-216.44207992873885 37.340675143544686) rotate(284.68101703281206)"><path class="outline" fill="#A5ABB6" stroke="none" d="M 25 0.5 L 43.233687787669865 0.5 L 43.233687787669865 -0.5 L 25 -0.5 Z M 79.45634403766987 0.5 L 97.69003182533973 0.5 L 97.69003182533973 3.5 L 104.69003182533973 0 L 97.69003182533973 -3.5 L 97.69003182533973 -0.5 L 79.45634403766987 -0.5 Z"/><text text-anchor="middle" pointer-events="none" font-size="8px" fill="#000000" x="61.345015912669865" y="3" font-family="sans-serif">KNOWS</text></g><g class="relationship" transform="translate(-298.7145411913709 -29.798965323671986) rotate(198.33423196896945)"><path class="outline" fill="#A5ABB6" stroke="none" d="M 25 0.5 L 28.814314776258634 0.5 L 28.814314776258634 -0.5 L 25 -0.5 Z M 65.03697102625864 0.5 L 68.85128580251727 0.5 L 68.85128580251727 3.5 L 75.85128580251727 0 L 68.85128580251727 -3.5 L 68.85128580251727 -0.5 L 65.03697102625864 -0.5 Z"/><text text-anchor="middle" pointer-events="none" font-size="8px" fill="#000000" x="46.925642901258634" y="3" transform="rotate(180 46.925642901258634 0)" font-family="sans-serif">KNOWS</text></g><g class="relationship" transform="translate(100.08942288313408 -72.60973100650502) rotate(356.5915637695567)"><path class="outline" fill="#A5ABB6" stroke="none" d="M 25 0.5 L 34.71470695173228 0.5 L 34.71470695173228 -0.5 L 25 -0.5 Z M 70.93736320173228 0.5 L 80.65207015346456 0.5 L 80.65207015346456 3.5 L 87.65207015346456 0 L 80.65207015346456 -3.5 L 80.65207015346456 -0.5 L 70.93736320173228 -0.5 Z"/><text text-anchor="middle" pointer-events="none" font-size="8px" fill="#000000" x="52.82603507673228" y="3" font-family="sans-serif">KNOWS</text></g><g class="relationship" transform="translate(-55.95474010700259 -367.7665018213285) rotate(505.191324679721)"><path class="outline" fill="#A5ABB6" stroke="none" d="M 25 0.5 L 34.64458216899268 0.5 L 34.64458216899268 -0.5 L 25 -0.5 Z M 70.86723841899268 0.5 L 80.51182058798535 0.5 L 80.51182058798535 3.5 L 87.51182058798535 0 L 80.51182058798535 -3.5 L 80.51182058798535 -0.5 L 70.86723841899268 -0.5 Z"/><text text-anchor="middle" pointer-events="none" font-size="8px" fill="#000000" x="52.75591029399268" y="3" transform="rotate(180 52.75591029399268 0)" font-family="sans-serif">KNOWS</text></g><g class="relationship" transform="translate(212.54222108108317 -79.30727438541926) rotate(346.0350822268199)"><path class="outline" fill="#A5ABB6" stroke="none" d="M 25 0.5 L 34.59165068839153 0.5 L 34.59165068839153 -0.5 L 25 -0.5 Z M 70.81430693839152 0.5 L 80.40595762678306 0.5 L 80.40595762678306 3.5 L 87.40595762678306 0 L 80.40595762678306 -3.5 L 80.40595762678306 -0.5 L 70.81430693839152 -0.5 Z"/><text text-anchor="middle" pointer-events="none" font-size="8px" fill="#000000" x="52.70297881339153" y="3" font-family="sans-serif">KNOWS</text></g><g class="relationship" transform="translate(-116.6552088819212 -189.0122741359923) rotate(483.55376680201255)"><path class="outline" fill="#A5ABB6" stroke="none" d="M 24.018736134675446,-6.953439040707552 L 24.277555179777966,-5.987513214418485 A 133.72437735158158 133.72437735158158 0 0 1 39.02280570262279,-9.060313864954196 L 38.87425264503037,-10.049218303754998 A 134.72437735158158 134.72437735158158 0 0 0 24.018736134675446,-6.953439040707552 Z M 75.11797570635241,-10.562888193019262 L 74.99750749419542,-9.570171007784865 A 133.72437735158158 133.72437735158158 0 0 1 89.82391763315326,-6.916479388399449 L 89.12989428274405,-3.9978612926070625 L 96.74969708173703,-5.783527920076704 L 90.74928210036553,-10.8079701827893 L 90.05525874995632,-7.8893520869969125 A 134.72437735158158 134.72437735158158 0 0 0 75.11797570635241,-10.562888193019262"/><text text-anchor="middle" pointer-events="none" font-size="8px" fill="#000000" x="56.98584567087125" y="-8.030582469845228" transform="rotate(180 56.98584567087125 -11.030582469845228)" font-family="sans-serif">KNOWS</text></g><g class="relationship" transform="translate(-183.5737676655432 -88.115207157074) rotate(207.31702584932486)"><path class="outline" fill="#A5ABB6" stroke="none" d="M 25 0.5 L 44.19601725982291 0.5 L 44.19601725982291 -0.5 L 25 -0.5 Z M 80.41867350982291 0.5 L 99.61469076964582 0.5 L 99.61469076964582 3.5 L 106.61469076964582 0 L 99.61469076964582 -3.5 L 99.61469076964582 -0.5 L 80.41867350982291 -0.5 Z"/><text text-anchor="middle" pointer-events="none" font-size="8px" fill="#000000" x="62.30734538482291" y="3" transform="rotate(180 62.30734538482291 0)" font-family="sans-serif">KNOWS</text></g><g class="relationship" transform="translate(-183.5737676655432 -88.115207157074) rotate(303.55376680201255)"><path class="outline" fill="#A5ABB6" stroke="none" d="M 24.018736134675446,-6.953439040707552 L 24.277555179777966,-5.987513214418485 A 133.72437735158158 133.72437735158158 0 0 1 39.02280570262279,-9.060313864954196 L 38.87425264503037,-10.049218303754998 A 134.72437735158158 134.72437735158158 0 0 0 24.018736134675446,-6.953439040707552 Z M 75.11797570635241,-10.562888193019262 L 74.99750749419542,-9.570171007784865 A 133.72437735158158 133.72437735158158 0 0 1 89.82391763315326,-6.916479388399449 L 89.12989428274405,-3.9978612926070625 L 96.74969708173703,-5.783527920076704 L 90.74928210036553,-10.8079701827893 L 90.05525874995632,-7.8893520869969125 A 134.72437735158158 134.72437735158158 0 0 0 75.11797570635241,-10.562888193019262"/><text text-anchor="middle" pointer-events="none" font-size="8px" fill="#000000" x="56.98584567087125" y="-8.030582469845228" font-family="sans-serif">KNOWS</text></g><g class="relationship" transform="translate(-300.51090689475916 -148.51497781290058) rotate(289.3030007624744)"><path class="outline" fill="#A5ABB6" stroke="none" d="M 25 0.5 L 39.30030779663403 0.5 L 39.30030779663403 -0.5 L 25 -0.5 Z M 75.52296404663403 0.5 L 89.82327184326806 0.5 L 89.82327184326806 3.5 L 96.82327184326806 0 L 89.82327184326806 -3.5 L 89.82327184326806 -0.5 L 75.52296404663403 -0.5 Z"/><text text-anchor="middle" pointer-events="none" font-size="8px" fill="#000000" x="57.41163592163403" y="3" font-family="sans-serif">KNOWS</text></g><g class="relationship" transform="translate(-300.51090689475916 -148.51497781290058) rotate(497.1976812473333)"><path class="outline" fill="#A5ABB6" stroke="none" d="M 25 0.5 L 42.403374645541874 0.5 L 42.403374645541874 -0.5 L 25 -0.5 Z M 78.62603089554187 0.5 L 96.02940554108375 0.5 L 96.02940554108375 3.5 L 103.02940554108375 0 L 96.02940554108375 -3.5 L 96.02940554108375 -0.5 L 78.62603089554187 -0.5 Z"/><text text-anchor="middle" pointer-events="none" font-size="8px" fill="#000000" x="60.514702770541874" y="3" transform="rotate(180 60.514702770541874 0)" font-family="sans-serif">KNOWS</text></g><g class="relationship" transform="translate(-437.73776262121544 130.66762158091302) rotate(452.8308687438424)"><path class="outline" fill="#A5ABB6" stroke="none" d="M 25 0.5 L 33.78251842028599 0.5 L 33.78251842028599 -0.5 L 25 -0.5 Z M 70.00517467028598 0.5 L 78.78769309057198 0.5 L 78.78769309057198 3.5 L 85.78769309057198 0 L 78.78769309057198 -3.5 L 78.78769309057198 -0.5 L 70.00517467028598 -0.5 Z"/><text text-anchor="middle" pointer-events="none" font-size="8px" fill="#000000" x="51.89384654528599" y="3" transform="rotate(180 51.89384654528599 0)" font-family="sans-serif">KNOWS</text></g><g class="relationship" transform="translate(-437.73776262121544 130.66762158091302) rotate(322.4848463923504)"><path class="outline" fill="#A5ABB6" stroke="none" d="M 25 0.5 L 36.44827622504889 0.5 L 36.44827622504889 -0.5 L 25 -0.5 Z M 72.67093247504889 0.5 L 84.11920870009779 0.5 L 84.11920870009779 3.5 L 91.11920870009779 0 L 84.11920870009779 -3.5 L 84.11920870009779 -0.5 L 72.67093247504889 -0.5 Z"/><text text-anchor="middle" pointer-events="none" font-size="8px" fill="#000000" x="54.55960435004889" y="3" font-family="sans-serif">KNOWS</text></g><g class="relationship" transform="translate(608.2324218921044 -73.53735058945362) rotate(518.0078781652597)"><path class="outline" fill="#A5ABB6" stroke="none" d="M 25 0.5 L 35.556645283501716 0.5 L 35.556645283501716 -0.5 L 25 -0.5 Z M 71.77930153350172 0.5 L 82.33594681700343 0.5 L 82.33594681700343 3.5 L 89.33594681700343 0 L 82.33594681700343 -3.5 L 82.33594681700343 -0.5 L 71.77930153350172 -0.5 Z"/><text text-anchor="middle" pointer-events="none" font-size="8px" fill="#000000" x="53.667973408501716" y="3" transform="rotate(180 53.667973408501716 0)" font-family="sans-serif">KNOWS</text></g><g class="relationship" transform="translate(134.41061624589912 622.3511445656796) rotate(381.6602965365417)"><path class="outline" fill="#A5ABB6" stroke="none" d="M 25 0.5 L 30.74619268335521 0.5 L 30.74619268335521 -0.5 L 25 -0.5 Z M 66.96884893335522 0.5 L 72.71504161671042 0.5 L 72.71504161671042 3.5 L 79.71504161671042 0 L 72.71504161671042 -3.5 L 72.71504161671042 -0.5 L 66.96884893335522 -0.5 Z"/><text text-anchor="middle" pointer-events="none" font-size="8px" fill="#000000" x="48.85752080835521" y="3" font-family="sans-serif">KNOWS</text></g><g class="relationship" transform="translate(397.41629057346313 -99.38070618909119) rotate(393.2308851688346)"><path class="outline" fill="#A5ABB6" stroke="none" d="M 25 0.5 L 41.032831748139365 0.5 L 41.032831748139365 -0.5 L 25 -0.5 Z M 77.25548799813936 0.5 L 93.28831974627873 0.5 L 93.28831974627873 3.5 L 100.28831974627873 0 L 93.28831974627873 -3.5 L 93.28831974627873 -0.5 L 77.25548799813936 -0.5 Z"/><text text-anchor="middle" pointer-events="none" font-size="8px" fill="#000000" x="59.144159873139365" y="3" font-family="sans-serif">KNOWS</text></g><g class="relationship" transform="translate(397.41629057346313 -99.38070618909119) rotate(478.9529004239279)"><path class="outline" fill="#A5ABB6" stroke="none" d="M 25 0.5 L 38.02240007466036 0.5 L 38.02240007466036 -0.5 L 25 -0.5 Z M 74.24505632466037 0.5 L 87.26745639932072 0.5 L 87.26745639932072 3.5 L 94.26745639932072 0 L 87.26745639932072 -3.5 L 87.26745639932072 -0.5 L 74.24505632466037 -0.5 Z"/><text text-anchor="middle" pointer-events="none" font-size="8px" fill="#000000" x="56.13372819966036" y="3" transform="rotate(180 56.13372819966036 0)" font-family="sans-serif">KNOWS</text></g><g class="relationship" transform="translate(397.41629057346313 -99.38070618909119) rotate(214.6615143876827)"><path class="outline" fill="#A5ABB6" stroke="none" d="M 25 0.5 L 51.72497881345279 0.5 L 51.72497881345279 -0.5 L 25 -0.5 Z M 87.9476350634528 0.5 L 114.67261387690559 0.5 L 114.67261387690559 3.5 L 121.67261387690559 0 L 114.67261387690559 -3.5 L 114.67261387690559 -0.5 L 87.9476350634528 -0.5 Z"/><text text-anchor="middle" pointer-events="none" font-size="8px" fill="#000000" x="69.8363069384528" y="3" transform="rotate(180 69.8363069384528 0)" font-family="sans-serif">KNOWS</text></g><g class="relationship" transform="translate(-476.2311334013316 21.10117697769545) rotate(430.6423778539396)"><path class="outline" fill="#A5ABB6" stroke="none" d="M 25 0.5 L 36.454465112080314 0.5 L 36.454465112080314 -0.5 L 25 -0.5 Z M 72.67712136208031 0.5 L 84.13158647416063 0.5 L 84.13158647416063 3.5 L 91.13158647416063 0 L 84.13158647416063 -3.5 L 84.13158647416063 -0.5 L 72.67712136208031 -0.5 Z"/><text text-anchor="middle" pointer-events="none" font-size="8px" fill="#000000" x="54.565793237080314" y="3" font-family="sans-serif">KNOWS</text></g><g class="relationship" transform="translate(-476.2311334013316 21.10117697769545) rotate(314.7075660699714)"><path class="outline" fill="#A5ABB6" stroke="none" d="M 25 0.5 L 36.51665951634753 0.5 L 36.51665951634753 -0.5 L 25 -0.5 Z M 72.73931576634753 0.5 L 84.25597528269506 0.5 L 84.25597528269506 3.5 L 91.25597528269506 0 L 84.25597528269506 -3.5 L 84.25597528269506 -0.5 L 72.73931576634753 -0.5 Z"/><text text-anchor="middle" pointer-events="none" font-size="8px" fill="#000000" x="54.62798764134753" y="3" font-family="sans-serif">KNOWS</text></g><g class="relationship" transform="translate(-99.29960666751293 284.7097479723698) rotate(511.5059548816133)"><path class="outline" fill="#A5ABB6" stroke="none" d="M 25 0.5 L 31.354021485299022 0.5 L 31.354021485299022 -0.5 L 25 -0.5 Z M 67.57667773529903 0.5 L 73.93069922059804 0.5 L 73.93069922059804 3.5 L 80.93069922059804 0 L 73.93069922059804 -3.5 L 73.93069922059804 -0.5 L 67.57667773529903 -0.5 Z"/><text text-anchor="middle" pointer-events="none" font-size="8px" fill="#000000" x="49.46534961029902" y="3" transform="rotate(180 49.46534961029902 0)" font-family="sans-serif">KNOWS</text></g><g class="relationship" transform="translate(374.2267046879199 436.7073554794616) rotate(222.84645477342121)"><path class="outline" fill="#A5ABB6" stroke="none" d="M 25 0.5 L 32.283843894711545 0.5 L 32.283843894711545 -0.5 L 25 -0.5 Z M 68.50650014471154 0.5 L 75.79034403942309 0.5 L 75.79034403942309 3.5 L 82.79034403942309 0 L 75.79034403942309 -3.5 L 75.79034403942309 -0.5 L 68.50650014471154 -0.5 Z"/><text text-anchor="middle" pointer-events="none" font-size="8px" fill="#000000" x="50.395172019711545" y="3" transform="rotate(180 50.395172019711545 0)" font-family="sans-serif">KNOWS</text></g><g class="relationship" transform="translate(374.2267046879199 436.7073554794616) rotate(434.4418891778913)"><path class="outline" fill="#A5ABB6" stroke="none" d="M 25 0.5 L 33.27348166992023 0.5 L 33.27348166992023 -0.5 L 25 -0.5 Z M 69.49613791992023 0.5 L 77.76961958984046 0.5 L 77.76961958984046 3.5 L 84.76961958984046 0 L 77.76961958984046 -3.5 L 77.76961958984046 -0.5 L 69.49613791992023 -0.5 Z"/><text text-anchor="middle" pointer-events="none" font-size="8px" fill="#000000" x="51.38480979492023" y="3" font-family="sans-serif">KNOWS</text></g></g><g class="layer nodes"><g class="node" transform="translate(194.63808943397822,328.26331218037814)"><circle class="outline" cx="0" cy="0" r="25" fill="#F79767" stroke="#f36924" stroke-width="2px"/><text text-anchor="middle" pointer-events="none" font-family="sans-serif" dy="1.5625" font-size="25" fill="#FFFFFF"/><text text-anchor="middle" pointer-events="none" y="5" font-size="10px" fill="#FFFFFF" font-family="sans-serif"> Kyson</text></g><g class="node" transform="translate(-192.39857073275576,335.2458333702658)"><circle class="outline" cx="0" cy="0" r="25" fill="#4C8EDA" stroke="#2870c2" stroke-width="2px"/><text text-anchor="middle" pointer-events="none" font-family="sans-serif" dy="1.5625" font-size="25" fill="#FFFFFF"/><text text-anchor="middle" pointer-events="none" y="5" font-size="10px" fill="#FFFFFF" font-family="sans-serif"> Xander</text></g><g class="node" transform="translate(560.4434798848824,349.1233170100097)"><circle class="outline" cx="0" cy="0" r="25" fill="#F79767" stroke="#f36924" stroke-width="2px"/><text text-anchor="middle" pointer-events="none" font-family="sans-serif" dy="1.5625" font-size="25" fill="#FFFFFF"/><text text-anchor="middle" pointer-events="none" y="5" font-size="10px" fill="#FFFFFF" font-family="sans-serif"> Gabriel</text></g><g class="node" transform="translate(333.53002603737286,625.2893910364583)"><circle class="outline" cx="0" cy="0" r="25" fill="#4C8EDA" stroke="#2870c2" stroke-width="2px"/><text text-anchor="middle" pointer-events="none" font-family="sans-serif" dy="1.5625" font-size="25" fill="#FFFFFF"/><text text-anchor="middle" pointer-events="none" y="5" font-size="10px" fill="#FFFFFF" font-family="sans-serif"> Edith</text></g><g class="node" transform="translate(231.73157868892145,661.0017617658388)"><circle class="outline" cx="0" cy="0" r="25" fill="#F79767" stroke="#f36924" stroke-width="2px"/><text text-anchor="middle" pointer-events="none" font-family="sans-serif" dy="1.5625" font-size="25" fill="#FFFFFF"/><text text-anchor="middle" pointer-events="none" y="5" font-size="10px" fill="#FFFFFF" font-family="sans-serif"> Emelia</text></g><g class="node" transform="translate(-345.6328995724083,59.95436375822926)"><circle class="outline" cx="0" cy="0" r="25" fill="#F79767" stroke="#f36924" stroke-width="2px"/><text text-anchor="middle" pointer-events="none" font-family="sans-serif" dy="1.5625" font-size="25" fill="#FFFFFF"/><text text-anchor="middle" pointer-events="none" y="5" font-size="10px" fill="#FFFFFF" font-family="sans-serif"> Sunday</text></g><g class="node" transform="translate(403.6686265136179,542.4548974088501)"><circle class="outline" cx="0" cy="0" r="25" fill="#F79767" stroke="#f36924" stroke-width="2px"/><text text-anchor="middle" pointer-events="none" font-family="sans-serif" dy="1.5625" font-size="25" fill="#FFFFFF"/><text text-anchor="middle" pointer-events="none" y="5" font-size="10px" fill="#FFFFFF" font-family="sans-serif"> Lauralee</text></g><g class="node" transform="translate(713.1187807643852,126.00713838110026)"><circle class="outline" cx="0" cy="0" r="25" fill="#F79767" stroke="#f36924" stroke-width="2px"/><text text-anchor="middle" pointer-events="none" font-family="sans-serif" dy="1.5625" font-size="25" fill="#FFFFFF"/><text text-anchor="middle" pointer-events="none" y="5" font-size="10px" fill="#FFFFFF" font-family="sans-serif"> Lynn</text></g><g class="node" transform="translate(-260.2405405308431,-263.4897887738879)"><circle class="outline" cx="0" cy="0" r="25" fill="#F79767" stroke="#f36924" stroke-width="2px"/><text text-anchor="middle" pointer-events="none" font-family="sans-serif" dy="1.5625" font-size="25" fill="#FFFFFF"/><text text-anchor="middle" pointer-events="none" y="5" font-size="10px" fill="#FFFFFF" font-family="sans-serif"> Lenora</text></g><g class="node" transform="translate(50.612746050950236,-390.1641325109187)"><circle class="outline" cx="0" cy="0" r="25" fill="#F79767" stroke="#f36924" stroke-width="2px"/><text text-anchor="middle" pointer-events="none" font-family="sans-serif" dy="1.5625" font-size="25" fill="#FFFFFF"/><text text-anchor="middle" pointer-events="none" y="5" font-size="10px" fill="#FFFFFF" font-family="sans-serif"> Harn</text></g><g class="node" transform="translate(400.3941043278928,-217.74018340575327)"><circle class="outline" cx="0" cy="0" r="25" fill="#F79767" stroke="#f36924" stroke-width="2px"/><text text-anchor="middle" pointer-events="none" font-family="sans-serif" dy="1.5625" font-size="25" fill="#FFFFFF"/><text text-anchor="middle" pointer-events="none" y="5" font-size="10px" fill="#FFFFFF" font-family="sans-serif"> Mckenzie</text></g><g class="node" transform="translate(588.1571751553428,449.5086231622867)"><circle class="outline" cx="0" cy="0" r="25" fill="#F79767" stroke="#f36924" stroke-width="2px"/><text text-anchor="middle" pointer-events="none" font-family="sans-serif" dy="1.5625" font-size="25" fill="#FFFFFF"/><text text-anchor="middle" pointer-events="none" y="5" font-size="10px" fill="#FFFFFF" font-family="sans-serif"> Whitley</text></g><g class="node" transform="translate(239.25590358278566,46.399370551328275)"><circle class="outline" cx="0" cy="0" r="25" fill="#F79767" stroke="#f36924" stroke-width="2px"/><text text-anchor="middle" pointer-events="none" font-family="sans-serif" dy="1.5625" font-size="25" fill="#FFFFFF"/><text text-anchor="middle" pointer-events="none" y="5" font-size="10px" fill="#FFFFFF" font-family="sans-serif"> Vera</text></g><g class="node" transform="translate(-394.4463847860783,-61.52270990055803)"><circle class="outline" cx="0" cy="0" r="25" fill="#4C8EDA" stroke="#2870c2" stroke-width="2px"/><text text-anchor="middle" pointer-events="none" font-family="sans-serif" dy="1.5625" font-size="25" fill="#FFFFFF"/><text text-anchor="middle" pointer-events="none" y="5" font-size="10px" fill="#FFFFFF" font-family="sans-serif"> Earl</text></g><g class="node" transform="translate(276.77421682959164,-182.7974053821311)"><circle class="outline" cx="0" cy="0" r="25" fill="#F79767" stroke="#f36924" stroke-width="2px"/><text text-anchor="middle" pointer-events="none" font-family="sans-serif" dy="1.5625" font-size="25" fill="#FFFFFF"/><text text-anchor="middle" pointer-events="none" y="5" font-size="10px" fill="#FFFFFF" font-family="sans-serif"> Cullen</text></g><g class="node" transform="translate(339.68005014273365,4.980458507786674)"><circle class="outline" cx="0" cy="0" r="25" fill="#F79767" stroke="#f36924" stroke-width="2px"/><text text-anchor="middle" pointer-events="none" font-family="sans-serif" dy="1.5625" font-size="25" fill="#FFFFFF"/><text text-anchor="middle" pointer-events="none" y="5" font-size="10px" fill="#FFFFFF" font-family="sans-serif"> Estes</text></g><g class="node" transform="translate(459.6755070326062,86.25188701910217)"><circle class="outline" cx="0" cy="0" r="25" fill="#F79767" stroke="#f36924" stroke-width="2px"/><text text-anchor="middle" pointer-events="none" font-family="sans-serif" dy="1.5625" font-size="25" fill="#FFFFFF"/><text text-anchor="middle" pointer-events="none" y="5" font-size="10px" fill="#FFFFFF" font-family="sans-serif"> Isola</text></g><g class="node" transform="translate(339.08768412250197,115.84532595623911)"><circle class="outline" cx="0" cy="0" r="25" fill="#F79767" stroke="#f36924" stroke-width="2px"/><text text-anchor="middle" pointer-events="none" font-family="sans-serif" dy="1.5625" font-size="25" fill="#FFFFFF"/><text text-anchor="middle" pointer-events="none" y="5" font-size="10px" fill="#FFFFFF" font-family="sans-serif"> Steph</text></g><g class="node" transform="translate(502.2160897497889,-30.720927880043615)"><circle class="outline" cx="0" cy="0" r="25" fill="#F79767" stroke="#f36924" stroke-width="2px"/><text text-anchor="middle" pointer-events="none" font-family="sans-serif" dy="1.5625" font-size="25" fill="#FFFFFF"/><text text-anchor="middle" pointer-events="none" y="5" font-size="10px" fill="#FFFFFF" font-family="sans-serif"> Oscar</text></g><g class="node" transform="translate(321.62587149499126,-106.43394986123899)"><circle class="outline" cx="0" cy="0" r="25" fill="#4C8EDA" stroke="#2870c2" stroke-width="2px"/><text text-anchor="middle" pointer-events="none" font-family="sans-serif" dy="1.5625" font-size="25" fill="#FFFFFF"/><text text-anchor="middle" pointer-events="none" y="5" font-size="10px" fill="#FFFFFF" font-family="sans-serif"> Antonia</text></g><g class="node" transform="translate(465.88017254145194,-317.53876539138673)"><circle class="outline" cx="0" cy="0" r="25" fill="#F79767" stroke="#f36924" stroke-width="2px"/><text text-anchor="middle" pointer-events="none" font-family="sans-serif" dy="1.5625" font-size="25" fill="#FFFFFF"/><text text-anchor="middle" pointer-events="none" y="5" font-size="10px" fill="#FFFFFF" font-family="sans-serif"> Christie</text></g><g class="node" transform="translate(655.3622955739082,213.45634283361804)"><circle class="outline" cx="0" cy="0" r="25" fill="#F79767" stroke="#f36924" stroke-width="2px"/><text text-anchor="middle" pointer-events="none" font-family="sans-serif" dy="1.5625" font-size="25" fill="#FFFFFF"/><text text-anchor="middle" pointer-events="none" y="5" font-size="10px" fill="#FFFFFF" font-family="sans-serif"> Arabella</text></g><g class="node" transform="translate(250.7142903042129,-296.63228359447146)"><circle class="outline" cx="0" cy="0" r="25" fill="#F79767" stroke="#f36924" stroke-width="2px"/><text text-anchor="middle" pointer-events="none" font-family="sans-serif" dy="1.5625" font-size="25" fill="#FFFFFF"/><text text-anchor="middle" pointer-events="none" y="5" font-size="10px" fill="#FFFFFF" font-family="sans-serif"> Casey</text></g><g class="node" transform="translate(196.58548725326096,-509.8323645227021)"><circle class="outline" cx="0" cy="0" r="25" fill="#F79767" stroke="#f36924" stroke-width="2px"/><text text-anchor="middle" pointer-events="none" font-family="sans-serif" dy="1.5625" font-size="25" fill="#FFFFFF"/><text text-anchor="middle" pointer-events="none" y="5" font-size="10px" fill="#FFFFFF" font-family="sans-serif"> Cayden</text></g><g class="node" transform="translate(-148.33400901329873,-303.5404911374846)"><circle class="outline" cx="0" cy="0" r="25" fill="#F79767" stroke="#f36924" stroke-width="2px"/><text text-anchor="middle" pointer-events="none" font-family="sans-serif" dy="1.5625" font-size="25" fill="#FFFFFF"/><text text-anchor="middle" pointer-events="none" y="5" font-size="10px" fill="#FFFFFF" font-family="sans-serif"> Briley</text></g><g class="node" transform="translate(-443.2093319893857,241.32011757165003)"><circle class="outline" cx="0" cy="0" r="25" fill="#F79767" stroke="#f36924" stroke-width="2px"/><text text-anchor="middle" pointer-events="none" font-family="sans-serif" dy="1.5625" font-size="25" fill="#FFFFFF"/><text text-anchor="middle" pointer-events="none" y="5" font-size="10px" fill="#FFFFFF" font-family="sans-serif"> Raferty</text></g><g class="node" transform="translate(-216.44207992873885,37.340675143544686)"><circle class="outline" cx="0" cy="0" r="25" fill="#F79767" stroke="#f36924" stroke-width="2px"/><text text-anchor="middle" pointer-events="none" font-family="sans-serif" dy="1.5625" font-size="25" fill="#FFFFFF"/><text text-anchor="middle" pointer-events="none" y="5" font-size="10px" fill="#FFFFFF" font-family="sans-serif"> Madeline</text></g><g class="node" transform="translate(-298.7145411913709,-29.798965323671986)"><circle class="outline" cx="0" cy="0" r="25" fill="#F79767" stroke="#f36924" stroke-width="2px"/><text text-anchor="middle" pointer-events="none" font-family="sans-serif" dy="1.5625" font-size="25" fill="#FFFFFF"/><text text-anchor="middle" pointer-events="none" y="5" font-size="10px" fill="#FFFFFF" font-family="sans-serif"> Shia</text></g><g class="node" transform="translate(100.08942288313408,-72.60973100650502)"><circle class="outline" cx="0" cy="0" r="25" fill="#F79767" stroke="#f36924" stroke-width="2px"/><text text-anchor="middle" pointer-events="none" font-family="sans-serif" dy="1.5625" font-size="25" fill="#FFFFFF"/><text text-anchor="middle" pointer-events="none" y="5" font-size="10px" fill="#FFFFFF" font-family="sans-serif"> Rory</text></g><g class="node" transform="translate(46.46321191697007,201.24299102126753)"><circle class="outline" cx="0" cy="0" r="25" fill="#F79767" stroke="#f36924" stroke-width="2px"/><text text-anchor="middle" pointer-events="none" font-family="sans-serif" dy="1.5625" font-size="25" fill="#FFFFFF"/><text text-anchor="middle" pointer-events="none" y="5" font-size="10px" fill="#FFFFFF" font-family="sans-serif"> Cleo</text></g><g class="node" transform="translate(-135.61938333019597,-508.08203332637237)"><circle class="outline" cx="0" cy="0" r="25" fill="#F79767" stroke="#f36924" stroke-width="2px"/><text text-anchor="middle" pointer-events="none" font-family="sans-serif" dy="1.5625" font-size="25" fill="#FFFFFF"/><text text-anchor="middle" pointer-events="none" y="5" font-size="10px" fill="#FFFFFF" font-family="sans-serif"> Raymond</text></g><g class="node" transform="translate(-55.95474010700259,-367.7665018213285)"><circle class="outline" cx="0" cy="0" r="25" fill="#F79767" stroke="#f36924" stroke-width="2px"/><text text-anchor="middle" pointer-events="none" font-family="sans-serif" dy="1.5625" font-size="25" fill="#FFFFFF"/><text text-anchor="middle" pointer-events="none" y="5" font-size="10px" fill="#FFFFFF" font-family="sans-serif"> Everly</text></g><g class="node" transform="translate(212.54222108108317,-79.30727438541926)"><circle class="outline" cx="0" cy="0" r="25" fill="#F79767" stroke="#f36924" stroke-width="2px"/><text text-anchor="middle" pointer-events="none" font-family="sans-serif" dy="1.5625" font-size="25" fill="#FFFFFF"/><text text-anchor="middle" pointer-events="none" y="5" font-size="10px" fill="#FFFFFF" font-family="sans-serif"> Rhett</text></g><g class="node" transform="translate(-116.6552088819212,-189.0122741359923)"><circle class="outline" cx="0" cy="0" r="25" fill="#F79767" stroke="#f36924" stroke-width="2px"/><text text-anchor="middle" pointer-events="none" font-family="sans-serif" dy="1.5625" font-size="25" fill="#FFFFFF"/><text text-anchor="middle" pointer-events="none" y="5" font-size="10px" fill="#FFFFFF" font-family="sans-serif"> Gerard</text></g><g class="node" transform="translate(-183.5737676655432,-88.115207157074)"><circle class="outline" cx="0" cy="0" r="25" fill="#F79767" stroke="#f36924" stroke-width="2px"/><text text-anchor="middle" pointer-events="none" font-family="sans-serif" dy="1.5625" font-size="25" fill="#FFFFFF"/><text text-anchor="middle" pointer-events="none" y="5" font-size="10px" fill="#FFFFFF" font-family="sans-serif"> Melanie</text></g><g class="node" transform="translate(-300.51090689475916,-148.51497781290058)"><circle class="outline" cx="0" cy="0" r="25" fill="#F79767" stroke="#f36924" stroke-width="2px"/><text text-anchor="middle" pointer-events="none" font-family="sans-serif" dy="1.5625" font-size="25" fill="#FFFFFF"/><text text-anchor="middle" pointer-events="none" y="5" font-size="10px" fill="#FFFFFF" font-family="sans-serif"> Collin</text></g><g class="node" transform="translate(-437.73776262121544,130.66762158091302)"><circle class="outline" cx="0" cy="0" r="25" fill="#F79767" stroke="#f36924" stroke-width="2px"/><text text-anchor="middle" pointer-events="none" font-family="sans-serif" dy="1.5625" font-size="25" fill="#FFFFFF"/><text text-anchor="middle" pointer-events="none" y="5" font-size="10px" fill="#FFFFFF" font-family="sans-serif"> Becky</text></g><g class="node" transform="translate(608.2324218921044,-73.53735058945362)"><circle class="outline" cx="0" cy="0" r="25" fill="#F79767" stroke="#f36924" stroke-width="2px"/><text text-anchor="middle" pointer-events="none" font-family="sans-serif" dy="1.5625" font-size="25" fill="#FFFFFF"/><text text-anchor="middle" pointer-events="none" y="5" font-size="10px" fill="#FFFFFF" font-family="sans-serif"> Davina</text></g><g class="node" transform="translate(295.1971160578306,363.4060431508542)"><circle class="outline" cx="0" cy="0" r="25" fill="#F79767" stroke="#f36924" stroke-width="2px"/><text text-anchor="middle" pointer-events="none" font-family="sans-serif" dy="1.5625" font-size="25" fill="#FFFFFF"/><text text-anchor="middle" pointer-events="none" y="5" font-size="10px" fill="#FFFFFF" font-family="sans-serif"> Oreli</text></g><g class="node" transform="translate(134.41061624589912,622.3511445656796)"><circle class="outline" cx="0" cy="0" r="25" fill="#F79767" stroke="#f36924" stroke-width="2px"/><text text-anchor="middle" pointer-events="none" font-family="sans-serif" dy="1.5625" font-size="25" fill="#FFFFFF"/><text text-anchor="middle" pointer-events="none" y="5" font-size="10px" fill="#FFFFFF" font-family="sans-serif"> Braxton</text></g><g class="node" transform="translate(397.41629057346313,-99.38070618909119)"><circle class="outline" cx="0" cy="0" r="25" fill="#F79767" stroke="#f36924" stroke-width="2px"/><text text-anchor="middle" pointer-events="none" font-family="sans-serif" dy="1.5625" font-size="25" fill="#FFFFFF"/><text text-anchor="middle" pointer-events="none" y="5" font-size="10px" fill="#FFFFFF" font-family="sans-serif"> Utte</text></g><g class="node" transform="translate(-476.2311334013316,21.10117697769545)"><circle class="outline" cx="0" cy="0" r="25" fill="#F79767" stroke="#f36924" stroke-width="2px"/><text text-anchor="middle" pointer-events="none" font-family="sans-serif" dy="1.5625" font-size="25" fill="#FFFFFF"/><text text-anchor="middle" pointer-events="none" y="5" font-size="10px" fill="#FFFFFF" font-family="sans-serif"> Una</text></g><g class="node" transform="translate(-386.84338149456613,418.53620983198533)"><circle class="outline" cx="0" cy="0" r="25" fill="#F79767" stroke="#f36924" stroke-width="2px"/><text text-anchor="middle" pointer-events="none" font-family="sans-serif" dy="1.5625" font-size="25" fill="#FFFFFF"/><text text-anchor="middle" pointer-events="none" y="5" font-size="10px" fill="#FFFFFF" font-family="sans-serif"> Aleni</text></g><g class="node" transform="translate(-295.0485188415765,552.5494683053996)"><circle class="outline" cx="0" cy="0" r="25" fill="#F79767" stroke="#f36924" stroke-width="2px"/><text text-anchor="middle" pointer-events="none" font-family="sans-serif" dy="1.5625" font-size="25" fill="#FFFFFF"/><text text-anchor="middle" pointer-events="none" y="5" font-size="10px" fill="#FFFFFF" font-family="sans-serif"> Emil</text></g><g class="node" transform="translate(-152.92358236697723,433.6742047653351)"><circle class="outline" cx="0" cy="0" r="25" fill="#F79767" stroke="#f36924" stroke-width="2px"/><text text-anchor="middle" pointer-events="none" font-family="sans-serif" dy="1.5625" font-size="25" fill="#FFFFFF"/><text text-anchor="middle" pointer-events="none" y="5" font-size="10px" fill="#FFFFFF" font-family="sans-serif"> Micah</text></g><g class="node" transform="translate(-99.29960666751293,284.7097479723698)"><circle class="outline" cx="0" cy="0" r="25" fill="#F79767" stroke="#f36924" stroke-width="2px"/><text text-anchor="middle" pointer-events="none" font-family="sans-serif" dy="1.5625" font-size="25" fill="#FFFFFF"/><text text-anchor="middle" pointer-events="none" y="5" font-size="10px" fill="#FFFFFF" font-family="sans-serif"> Edwin</text></g><g class="node" transform="translate(-146.37737061128152,624.6563188362397)"><circle class="outline" cx="0" cy="0" r="25" fill="#F79767" stroke="#f36924" stroke-width="2px"/><text text-anchor="middle" pointer-events="none" font-family="sans-serif" dy="1.5625" font-size="25" fill="#FFFFFF"/><text text-anchor="middle" pointer-events="none" y="5" font-size="10px" fill="#FFFFFF" font-family="sans-serif"> Oakley</text></g><g class="node" transform="translate(374.2267046879199,436.7073554794616)"><circle class="outline" cx="0" cy="0" r="25" fill="#F79767" stroke="#f36924" stroke-width="2px"/><text text-anchor="middle" pointer-events="none" font-family="sans-serif" dy="1.5625" font-size="25" fill="#FFFFFF"/><text text-anchor="middle" pointer-events="none" y="5" font-size="10px" fill="#FFFFFF" font-family="sans-serif"> Regina</text></g><g class="node" transform="translate(41.61220770518001,440.56362470142216)"><circle class="outline" cx="0" cy="0" r="25" fill="#F79767" stroke="#f36924" stroke-width="2px"/><text text-anchor="middle" pointer-events="none" font-family="sans-serif" dy="1.5625" font-size="25" fill="#FFFFFF"/><text text-anchor="middle" pointer-events="none" y="5" font-size="10px" fill="#FFFFFF" font-family="sans-serif"> Douglas</text></g><g class="node" transform="translate(-11.073749942492176,649.3163721249297)"><circle class="outline" cx="0" cy="0" r="25" fill="#F79767" stroke="#f36924" stroke-width="2px"/><text text-anchor="middle" pointer-events="none" font-family="sans-serif" dy="1.5625" font-size="25" fill="#FFFFFF"/><text text-anchor="middle" pointer-events="none" y="5" font-size="10px" fill="#FFFFFF" font-family="sans-serif"> Reid</text></g></g></svg>