<svg xmlns="http://www.w3.org/2000/svg" width="446.1579895019531" height="428.0823059082031" viewBox="-101.09358978271484 -115.31259155273438 446.1579895019531 428.0823059082031"><title>Neo4j Graph Visualization</title><desc>Created using Neo4j (http://www.neo4j.com/)</desc><g class="layer relationships"><g class="relationship" transform="translate(-66.5276065189397 101.23475087192983) rotate(381.0849479125526)"><path class="outline" fill="#A5ABB6" stroke="none" d="M 25 0.5 L 37.07689072637167 0.5 L 37.07689072637167 -0.5 L 25 -0.5 Z M 82.63939072637167 0.5 L 94.71628145274335 0.5 L 94.71628145274335 3.5 L 101.71628145274335 0 L 94.71628145274335 -3.5 L 94.71628145274335 -0.5 L 82.63939072637167 -0.5 Z"/><text text-anchor="middle" pointer-events="none" font-size="8px" fill="#000000" x="59.85814072637167" y="3" font-family="sans-serif">ACTED_IN</text></g><g class="relationship" transform="translate(-66.5276065189397 101.23475087192983) rotate(267.68671784670425)"><path class="outline" fill="#A5ABB6" stroke="none" d="M 25 0.5 L 42.667134598257434 0.5 L 42.667134598257434 -0.5 L 25 -0.5 Z M 88.22963459825743 0.5 L 105.89676919651487 0.5 L 105.89676919651487 3.5 L 112.89676919651487 0 L 105.89676919651487 -3.5 L 105.89676919651487 -0.5 L 88.22963459825743 -0.5 Z"/><text text-anchor="middle" pointer-events="none" font-size="8px" fill="#000000" x="65.44838459825743" y="3" transform="rotate(180 65.44838459825743 0)" font-family="sans-serif">ACTED_IN</text></g><g class="relationship" transform="translate(-66.5276065189397 101.23475087192983) rotate(322.8035766229367)"><path class="outline" fill="#A5ABB6" stroke="none" d="M 25 0.5 L 34.93360760139665 0.5 L 34.93360760139665 -0.5 L 25 -0.5 Z M 80.49610760139666 0.5 L 90.4297152027933 0.5 L 90.4297152027933 3.5 L 97.4297152027933 0 L 90.4297152027933 -3.5 L 90.4297152027933 -0.5 L 80.49610760139666 -0.5 Z"/><text text-anchor="middle" pointer-events="none" font-size="8px" fill="#000000" x="57.71485760139665" y="3" font-family="sans-serif">ACTED_IN</text></g><g class="relationship" transform="translate(-66.5276065189397 101.23475087192983) rotate(293.12764680037156)"><path class="outline" fill="#A5ABB6" stroke="none" d="M 25 0.5 L 31.719907007127524 0.5 L 31.719907007127524 -0.5 L 25 -0.5 Z M 77.28240700712752 0.5 L 84.00231401425505 0.5 L 84.00231401425505 3.5 L 91.00231401425505 0 L 84.00231401425505 -3.5 L 84.00231401425505 -0.5 L 77.28240700712752 -0.5 Z"/><text text-anchor="middle" pointer-events="none" font-size="8px" fill="#000000" x="54.501157007127524" y="3" font-family="sans-serif">ACTED_IN</text></g><g class="relationship" transform="translate(-66.5276065189397 101.23475087192983) rotate(436.2638695316033)"><path class="outline" fill="#A5ABB6" stroke="none" d="M 25 0.5 L 38.579092859374825 0.5 L 38.579092859374825 -0.5 L 25 -0.5 Z M 84.14159285937482 0.5 L 97.72068571874965 0.5 L 97.72068571874965 3.5 L 104.72068571874965 0 L 97.72068571874965 -3.5 L 97.72068571874965 -0.5 L 84.14159285937482 -0.5 Z"/><text text-anchor="middle" pointer-events="none" font-size="8px" fill="#000000" x="61.360342859374825" y="3" font-family="sans-serif">ACTED_IN</text></g><g class="relationship" transform="translate(186.97969810730697 147.2889608094551) rotate(362.90023008741207)"><path class="outline" fill="#A5ABB6" stroke="none" d="M 25 0.5 L 38.343863515412465 0.5 L 38.343863515412465 -0.5 L 25 -0.5 Z M 83.90636351541247 0.5 L 97.25022703082493 0.5 L 97.25022703082493 3.5 L 104.25022703082493 0 L 97.25022703082493 -3.5 L 97.25022703082493 -0.5 L 83.90636351541247 -0.5 Z"/><text text-anchor="middle" pointer-events="none" font-size="8px" fill="#000000" x="61.125113515412465" y="3" font-family="sans-serif">ACTED_IN</text></g><g class="relationship" transform="translate(186.97969810730697 147.2889608094551) rotate(180.19814134669974)"><path class="outline" fill="#A5ABB6" stroke="none" d="M 25 0.5 L 41.35661540543373 0.5 L 41.35661540543373 -0.5 L 25 -0.5 Z M 86.91911540543373 0.5 L 103.27573081086746 0.5 L 103.27573081086746 3.5 L 110.27573081086746 0 L 103.27573081086746 -3.5 L 103.27573081086746 -0.5 L 86.91911540543373 -0.5 Z"/><text text-anchor="middle" pointer-events="none" font-size="8px" fill="#000000" x="64.13786540543373" y="3" transform="rotate(180 64.13786540543373 0)" font-family="sans-serif">ACTED_IN</text></g><g class="relationship" transform="translate(257.82053283950336 68.48756027026675) rotate(415.68712130285087)"><path class="outline" fill="#A5ABB6" stroke="none" d="M 25 0.5 L 25.379767894444413 0.5 L 25.379767894444413 -0.5 L 25 -0.5 Z M 70.94226789444441 0.5 L 71.32203578888883 0.5 L 71.32203578888883 3.5 L 78.32203578888883 0 L 71.32203578888883 -3.5 L 71.32203578888883 -0.5 L 70.94226789444441 -0.5 Z"/><text text-anchor="middle" pointer-events="none" font-size="8px" fill="#000000" x="48.16101789444441" y="3" font-family="sans-serif">ACTED_IN</text></g><g class="relationship" transform="translate(257.82053283950336 68.48756027026675) rotate(468.0005513133483)"><path class="outline" fill="#A5ABB6" stroke="none" d="M 25 0.5 L 50.97945461432266 0.5 L 50.97945461432266 -0.5 L 25 -0.5 Z M 96.54195461432266 0.5 L 122.52140922864533 0.5 L 122.52140922864533 3.5 L 129.52140922864533 0 L 122.52140922864533 -3.5 L 122.52140922864533 -0.5 L 96.54195461432266 -0.5 Z"/><text text-anchor="middle" pointer-events="none" font-size="8px" fill="#000000" x="73.76070461432266" y="3" transform="rotate(180 73.76070461432266 0)" font-family="sans-serif">ACTED_IN</text></g><g class="relationship" transform="translate(257.82053283950336 68.48756027026675) rotate(237.63561363360867)"><path class="outline" fill="#A5ABB6" stroke="none" d="M 25 0.5 L 41.35120565877584 0.5 L 41.35120565877584 -0.5 L 25 -0.5 Z M 86.91370565877584 0.5 L 103.26491131755168 0.5 L 103.26491131755168 3.5 L 110.26491131755168 0 L 103.26491131755168 -3.5 L 103.26491131755168 -0.5 L 86.91370565877584 -0.5 Z"/><text text-anchor="middle" pointer-events="none" font-size="8px" fill="#000000" x="64.13245565877584" y="3" transform="rotate(180 64.13245565877584 0)" font-family="sans-serif">ACTED_IN</text></g><g class="relationship" transform="translate(58.20519912680744 -86.31258875004968) rotate(463.47733519758987)"><path class="outline" fill="#A5ABB6" stroke="none" d="M 25 0.5 L 32.09250018103178 0.5 L 32.09250018103178 -0.5 L 25 -0.5 Z M 77.65500018103178 0.5 L 84.74750036206356 0.5 L 84.74750036206356 3.5 L 91.74750036206356 0 L 84.74750036206356 -3.5 L 84.74750036206356 -0.5 L 77.65500018103178 -0.5 Z"/><text text-anchor="middle" pointer-events="none" font-size="8px" fill="#000000" x="54.87375018103178" y="3" transform="rotate(180 54.87375018103178 0)" font-family="sans-serif">ACTED_IN</text></g><g class="relationship" transform="translate(58.20519912680744 -86.31258875004968) rotate(519.0974375166315)"><path class="outline" fill="#A5ABB6" stroke="none" d="M 25 0.5 L 43.45777404243286 0.5 L 43.45777404243286 -0.5 L 25 -0.5 Z M 89.02027404243286 0.5 L 107.47804808486572 0.5 L 107.47804808486572 3.5 L 114.47804808486572 0 L 107.47804808486572 -3.5 L 107.47804808486572 -0.5 L 89.02027404243286 -0.5 Z"/><text text-anchor="middle" pointer-events="none" font-size="8px" fill="#000000" x="66.23902404243286" y="3" transform="rotate(180 66.23902404243286 0)" font-family="sans-serif">ACTED_IN</text></g><g class="relationship" transform="translate(58.20519912680744 -86.31258875004968) rotate(377.6795586109866)"><path class="outline" fill="#A5ABB6" stroke="none" d="M 25 0.5 L 40.47556815343867 0.5 L 40.47556815343867 -0.5 L 25 -0.5 Z M 86.03806815343867 0.5 L 101.51363630687734 0.5 L 101.51363630687734 3.5 L 108.51363630687734 0 L 101.51363630687734 -3.5 L 101.51363630687734 -0.5 L 86.03806815343867 -0.5 Z"/><text text-anchor="middle" pointer-events="none" font-size="8px" fill="#000000" x="63.25681815343867" y="3" font-family="sans-serif">ACTED_IN</text></g><g class="relationship" transform="translate(58.20519912680744 -86.31258875004968) rotate(494.39190524024974)"><path class="outline" fill="#A5ABB6" stroke="none" d="M 25 0.5 L 30.303632194565978 0.5 L 30.303632194565978 -0.5 L 25 -0.5 Z M 75.86613219456598 0.5 L 81.16976438913196 0.5 L 81.16976438913196 3.5 L 88.16976438913196 0 L 81.16976438913196 -3.5 L 81.16976438913196 -0.5 L 75.86613219456598 -0.5 Z"/><text text-anchor="middle" pointer-events="none" font-size="8px" fill="#000000" x="53.08488219456598" y="3" transform="rotate(180 53.08488219456598 0)" font-family="sans-serif">ACTED_IN</text></g><g class="relationship" transform="translate(87.37036071259377 283.76971022142783) rotate(330.88908476524324)"><path class="outline" fill="#A5ABB6" stroke="none" d="M 25 0.5 L 43.93844074996366 0.5 L 43.93844074996366 -0.5 L 25 -0.5 Z M 89.50094074996366 0.5 L 108.43938149992732 0.5 L 108.43938149992732 3.5 L 115.43938149992732 0 L 108.43938149992732 -3.5 L 108.43938149992732 -0.5 L 89.50094074996366 -0.5 Z"/><text text-anchor="middle" pointer-events="none" font-size="8px" fill="#000000" x="66.71969074996366" y="3" font-family="sans-serif">ACTED_IN</text></g><g class="relationship" transform="translate(87.37036071259377 283.76971022142783) rotate(204.66412518722808)"><path class="outline" fill="#A5ABB6" stroke="none" d="M 25 0.5 L 41.44531525420334 0.5 L 41.44531525420334 -0.5 L 25 -0.5 Z M 87.00781525420334 0.5 L 103.45313050840667 0.5 L 103.45313050840667 3.5 L 110.45313050840667 0 L 103.45313050840667 -3.5 L 103.45313050840667 -0.5 L 87.00781525420334 -0.5 Z"/><text text-anchor="middle" pointer-events="none" font-size="8px" fill="#000000" x="64.22656525420334" y="3" transform="rotate(180 64.22656525420334 0)" font-family="sans-serif">ACTED_IN</text></g></g><g class="layer nodes"><g class="node" transform="translate(-66.5276065189397,101.23475087192983)"><circle class="outline" cx="0" cy="0" r="25" fill="#F79767" stroke="#f36924" stroke-width="2px"/><text text-anchor="middle" pointer-events="none" font-family="sans-serif" dy="1.5625" font-size="25" fill="#FFFFFF"/><text text-anchor="middle" pointer-events="none" font-family="sans-serif" dy="1.5625" font-size="25" fill="#FFFFFF"/><text text-anchor="middle" pointer-events="none" y="0" font-size="10px" fill="#FFFFFF" font-family="sans-serif"> Tom</text><text text-anchor="middle" pointer-events="none" y="10" font-size="10px" fill="#FFFFFF" font-family="sans-serif"> Hanks</text></g><g class="node" transform="translate(51.70477619565901,146.82114865503533)"><circle class="outline" cx="0" cy="0" r="25" fill="#57C7E3" stroke="#23b3d7" stroke-width="2px"/><text text-anchor="middle" pointer-events="none" font-family="sans-serif" dy="1.5625" font-size="25" fill="#FFFFFF"/><text text-anchor="middle" pointer-events="none" font-family="sans-serif" dy="1.5625" font-size="25" fill="#FFFFFF"/><text text-anchor="middle" pointer-events="none" font-family="sans-serif" dy="1.5625" font-size="25" fill="#FFFFFF"/><text text-anchor="middle" pointer-events="none" y="-5" font-size="10px" fill="#FFFFFF" font-family="sans-serif"> The</text><text text-anchor="middle" pointer-events="none" y="5" font-size="10px" fill="#FFFFFF" font-family="sans-serif"> Green</text><text text-anchor="middle" pointer-events="none" y="15" font-size="10px" fill="#FFFFFF" font-family="sans-serif"> Mile</text></g><g class="node" transform="translate(186.97969810730697,147.2889608094551)"><circle class="outline" cx="0" cy="0" r="25" fill="#F79767" stroke="#f36924" stroke-width="2px"/><text text-anchor="middle" pointer-events="none" font-family="sans-serif" dy="1.5625" font-size="25" fill="#FFFFFF"/><text text-anchor="middle" pointer-events="none" font-family="sans-serif" dy="1.5625" font-size="25" fill="#FFFFFF"/><text text-anchor="middle" pointer-events="none" y="0" font-size="10px" fill="#FFFFFF" font-family="sans-serif"> Bonnie</text><text text-anchor="middle" pointer-events="none" y="10" font-size="10px" fill="#FFFFFF" font-family="sans-serif"> Hunt</text></g><g class="node" transform="translate(316.064375502599,153.82862817662112)"><circle class="outline" cx="0" cy="0" r="25" fill="#57C7E3" stroke="#23b3d7" stroke-width="2px"/><text text-anchor="middle" pointer-events="none" font-family="sans-serif" dy="1.5625" font-size="25" fill="#FFFFFF"/><text text-anchor="middle" pointer-events="none" font-family="sans-serif" dy="1.5625" font-size="25" fill="#FFFFFF"/><text text-anchor="middle" pointer-events="none" y="0" font-size="10px" fill="#FFFFFF" font-family="sans-serif"> Jerry</text><text text-anchor="middle" pointer-events="none" y="10" font-size="10px" fill="#FFFFFF" font-family="sans-serif"> Maguire</text></g><g class="node" transform="translate(257.82053283950336,68.48756027026675)"><circle class="outline" cx="0" cy="0" r="25" fill="#F79767" stroke="#f36924" stroke-width="2px"/><text text-anchor="middle" pointer-events="none" font-family="sans-serif" dy="1.5625" font-size="25" fill="#FFFFFF"/><text text-anchor="middle" pointer-events="none" font-family="sans-serif" dy="1.5625" font-size="25" fill="#FFFFFF"/><text text-anchor="middle" pointer-events="none" y="0" font-size="10px" fill="#FFFFFF" font-family="sans-serif"> Tom</text><text text-anchor="middle" pointer-events="none" y="10" font-size="10px" fill="#FFFFFF" font-family="sans-serif"> Cruise</text></g><g class="node" transform="translate(-72.0935920072507,-36.54964142408026)"><circle class="outline" cx="0" cy="0" r="25" fill="#57C7E3" stroke="#23b3d7" stroke-width="2px"/><text text-anchor="middle" pointer-events="none" font-family="sans-serif" dy="1.5625" font-size="25" fill="#FFFFFF"/><text text-anchor="middle" pointer-events="none" font-family="sans-serif" dy="1.5625" font-size="25" fill="#FFFFFF"/><text text-anchor="middle" pointer-events="none" y="0" font-size="10px" fill="#FFFFFF" font-family="sans-serif"> You've</text><text text-anchor="middle" pointer-events="none" y="10" font-size="10px" fill="#FFFFFF" font-family="sans-serif"> Got Mail</text></g><g class="node" transform="translate(58.20519912680744,-86.31258875004968)"><circle class="outline" cx="0" cy="0" r="25" fill="#F79767" stroke="#f36924" stroke-width="2px"/><text text-anchor="middle" pointer-events="none" font-family="sans-serif" dy="1.5625" font-size="25" fill="#FFFFFF"/><text text-anchor="middle" pointer-events="none" y="5" font-size="10px" fill="#FFFFFF" font-family="sans-serif"> Meg Ryan</text></g><g class="node" transform="translate(185.41297175216232,-45.765410505674524)"><circle class="outline" cx="0" cy="0" r="25" fill="#57C7E3" stroke="#23b3d7" stroke-width="2px"/><text text-anchor="middle" pointer-events="none" font-family="sans-serif" dy="1.5625" font-size="25" fill="#FFFFFF"/><text text-anchor="middle" pointer-events="none" y="5" font-size="10px" fill="#FFFFFF" font-family="sans-serif"> Top Gun</text></g><g class="node" transform="translate(30.995944974389737,27.219941078450002)"><circle class="outline" cx="0" cy="0" r="25" fill="#57C7E3" stroke="#23b3d7" stroke-width="2px"/><text text-anchor="middle" pointer-events="none" font-family="sans-serif" dy="1.5625" font-size="25" fill="#FFFFFF"/><text text-anchor="middle" pointer-events="none" y="5" font-size="10px" fill="#FFFFFF" font-family="sans-serif"> Sleepless</text></g><g class="node" transform="translate(-20.96411202839328,-5.444698069615507)"><circle class="outline" cx="0" cy="0" r="25" fill="#57C7E3" stroke="#23b3d7" stroke-width="2px"/><text text-anchor="middle" pointer-events="none" font-family="sans-serif" dy="1.5625" font-size="25" fill="#FFFFFF"/><text text-anchor="middle" pointer-events="none" font-family="sans-serif" dy="1.5625" font-size="25" fill="#FFFFFF"/><text text-anchor="middle" pointer-events="none" font-family="sans-serif" dy="1.5625" font-size="25" fill="#FFFFFF"/><text text-anchor="middle" pointer-events="none" font-family="sans-serif" dy="1.5625" font-size="25" fill="#FFFFFF"/><text text-anchor="middle" pointer-events="none" y="-10" font-size="10px" fill="#FFFFFF" font-family="sans-serif"> Joe</text><text text-anchor="middle" pointer-events="none" y="0" font-size="10px" fill="#FFFFFF" font-family="sans-serif"> Versus</text><text text-anchor="middle" pointer-events="none" y="10" font-size="10px" fill="#FFFFFF" font-family="sans-serif"> the</text><text text-anchor="middle" pointer-events="none" y="20" font-size="10px" fill="#FFFFFF" font-family="sans-serif"> Volc…</text></g><g class="node" transform="translate(-35.72533194157751,227.245370203014)"><circle class="outline" cx="0" cy="0" r="25" fill="#57C7E3" stroke="#23b3d7" stroke-width="2px"/><text text-anchor="middle" pointer-events="none" font-family="sans-serif" dy="1.5625" font-size="25" fill="#FFFFFF"/><text text-anchor="middle" pointer-events="none" y="5" font-size="10px" fill="#FFFFFF" font-family="sans-serif"> Apollo 13</text></g><g class="node" transform="translate(87.37036071259377,283.76971022142783)"><circle class="outline" cx="0" cy="0" r="25" fill="#F79767" stroke="#f36924" stroke-width="2px"/><text text-anchor="middle" pointer-events="none" font-family="sans-serif" dy="1.5625" font-size="25" fill="#FFFFFF"/><text text-anchor="middle" pointer-events="none" font-family="sans-serif" dy="1.5625" font-size="25" fill="#FFFFFF"/><text text-anchor="middle" pointer-events="none" y="0" font-size="10px" fill="#FFFFFF" font-family="sans-serif"> Kevin</text><text text-anchor="middle" pointer-events="none" y="10" font-size="10px" fill="#FFFFFF" font-family="sans-serif"> Bacon</text></g><g class="node" transform="translate(210.06937732545165,215.44569395833224)"><circle class="outline" cx="0" cy="0" r="25" fill="#57C7E3" stroke="#23b3d7" stroke-width="2px"/><text text-anchor="middle" pointer-events="none" font-family="sans-serif" dy="1.5625" font-size="25" fill="#FFFFFF"/><text text-anchor="middle" pointer-events="none" font-family="sans-serif" dy="1.5625" font-size="25" fill="#FFFFFF"/><text text-anchor="middle" pointer-events="none" font-family="sans-serif" dy="1.5625" font-size="25" fill="#FFFFFF"/><text text-anchor="middle" pointer-events="none" y="-5" font-size="10px" fill="#FFFFFF" font-family="sans-serif"> A Few</text><text text-anchor="middle" pointer-events="none" y="5" font-size="10px" fill="#FFFFFF" font-family="sans-serif"> Good</text><text text-anchor="middle" pointer-events="none" y="15" font-size="10px" fill="#FFFFFF" font-family="sans-serif"> Men</text></g></g></svg>