<svg xmlns="http://www.w3.org/2000/svg" width="1219.46728515625" height="1256.416259765625" viewBox="-506.2774658203125 -531.4583740234375 1219.46728515625 1256.416259765625"><title>Neo4j Graph Visualization</title><desc>Created using Neo4j (http://www.neo4j.com/)</desc><g class="layer relationships"><g class="relationship" transform="translate(360.98548470859214 455.3163084850651) rotate(387.87222704948704)"><path class="outline" fill="#A5ABB6" stroke="none" d="M 25 0.5 L 33.444891082922865 0.5 L 33.444891082922865 -0.5 L 25 -0.5 Z M 69.66754733292287 0.5 L 78.11243841584573 0.5 L 78.11243841584573 3.5 L 85.11243841584573 0 L 78.11243841584573 -3.5 L 78.11243841584573 -0.5 L 69.66754733292287 -0.5 Z"/><text text-anchor="middle" pointer-events="none" font-size="8px" fill="#000000" x="51.556219207922865" y="3" font-family="sans-serif">KNOWS</text></g><g class="relationship" transform="translate(-190.94082815491876 460.29846375978167) rotate(458.8556192990817)"><path class="outline" fill="#A5ABB6" stroke="none" d="M 25 0.5 L 31.130545378011625 0.5 L 31.130545378011625 -0.5 L 25 -0.5 Z M 67.35320162801162 0.5 L 73.48374700602325 0.5 L 73.48374700602325 3.5 L 80.48374700602325 0 L 73.48374700602325 -3.5 L 73.48374700602325 -0.5 L 67.35320162801162 -0.5 Z"/><text text-anchor="middle" pointer-events="none" font-size="8px" fill="#000000" x="49.241873503011625" y="3" transform="rotate(180 49.241873503011625 0)" font-family="sans-serif">KNOWS</text></g><g class="relationship" transform="translate(455.9986905989579 278.65313992498494) rotate(402.645465899686)"><path class="outline" fill="#A5ABB6" stroke="none" d="M 25 0.5 L 31.931816098489094 0.5 L 31.931816098489094 -0.5 L 25 -0.5 Z M 68.1544723484891 0.5 L 75.08628844697819 0.5 L 75.08628844697819 3.5 L 82.08628844697819 0 L 75.08628844697819 -3.5 L 75.08628844697819 -0.5 L 68.1544723484891 -0.5 Z"/><text text-anchor="middle" pointer-events="none" font-size="8px" fill="#000000" x="50.043144223489094" y="3" font-family="sans-serif">KNOWS</text></g><g class="relationship" transform="translate(187.97889703579702 531.2232523901898) rotate(253.71510028036863)"><path class="outline" fill="#A5ABB6" stroke="none" d="M 24.018736134675446,-6.953439040707552 L 24.277555179777966,-5.987513214418485 A 114.73212717203857 114.73212717203857 0 0 1 34.28046763343777,-8.194378507249098 L 34.1088335181384,-9.179539271015813 A 115.73212717203857 115.73212717203857 0 0 0 24.018736134675446,-6.953439040707552 Z M 70.33481497669038,-9.734405386338153 L 70.19343331716777,-8.744450222529892 A 114.73212717203857 114.73212717203857 0 0 1 80.25924179025209,-6.8449735157849565 L 79.57189742574442,-3.924775282003636 L 87.18759506315979,-5.7278697042306055 L 81.17570094292898,-10.738571160826716 L 80.48835657842132,-7.818372927045396 A 115.73212717203857 115.73212717203857 0 0 0 70.33481497669038,-9.734405386338153"/><text text-anchor="middle" pointer-events="none" font-size="8px" fill="#000000" x="52.20763432400589" y="-7.383401043820172" transform="rotate(180 52.20763432400589 -10.383401043820172)" font-family="sans-serif">KNOWS</text></g><g class="relationship" transform="translate(156.70643286731612 424.1750440372957) rotate(433.71510028036863)"><path class="outline" fill="#A5ABB6" stroke="none" d="M 24.018736134675446,-6.953439040707552 L 24.277555179777966,-5.987513214418485 A 114.73212717203857 114.73212717203857 0 0 1 34.28046763343777,-8.194378507249098 L 34.1088335181384,-9.179539271015813 A 115.73212717203857 115.73212717203857 0 0 0 24.018736134675446,-6.953439040707552 Z M 70.33481497669038,-9.734405386338153 L 70.19343331716777,-8.744450222529892 A 114.73212717203857 114.73212717203857 0 0 1 80.25924179025209,-6.8449735157849565 L 79.57189742574442,-3.924775282003636 L 87.18759506315979,-5.7278697042306055 L 81.17570094292898,-10.738571160826716 L 80.48835657842132,-7.818372927045396 A 115.73212717203857 115.73212717203857 0 0 0 70.33481497669038,-9.734405386338153"/><text text-anchor="middle" pointer-events="none" font-size="8px" fill="#000000" x="52.20763432400589" y="-7.383401043820172" font-family="sans-serif">KNOWS</text></g><g class="relationship" transform="translate(-146.49850055684044 -192.53255174689755) rotate(458.52415415537484)"><path class="outline" fill="#A5ABB6" stroke="none" d="M 25 0.5 L 42.548625666204444 0.5 L 42.548625666204444 -0.5 L 25 -0.5 Z M 78.77128191620444 0.5 L 96.31990758240889 0.5 L 96.31990758240889 3.5 L 103.31990758240889 0 L 96.31990758240889 -3.5 L 96.31990758240889 -0.5 L 78.77128191620444 -0.5 Z"/><text text-anchor="middle" pointer-events="none" font-size="8px" fill="#000000" x="60.659953791204444" y="3" transform="rotate(180 60.659953791204444 0)" font-family="sans-serif">KNOWS</text></g><g class="relationship" transform="translate(278.0170749150497 601.4372982652293) rotate(217.9480057706155)"><path class="outline" fill="#A5ABB6" stroke="none" d="M 25 0.5 L 35.47826311972274 0.5 L 35.47826311972274 -0.5 L 25 -0.5 Z M 71.70091936972274 0.5 L 82.17918248944548 0.5 L 82.17918248944548 3.5 L 89.17918248944548 0 L 82.17918248944548 -3.5 L 82.17918248944548 -0.5 L 71.70091936972274 -0.5 Z"/><text text-anchor="middle" pointer-events="none" font-size="8px" fill="#000000" x="53.58959124472274" y="3" transform="rotate(180 53.58959124472274 0)" font-family="sans-serif">KNOWS</text></g><g class="relationship" transform="translate(684.1898838737816 290.581713191972) rotate(268.98364418446704)"><path class="outline" fill="#A5ABB6" stroke="none" d="M 24.018736134675446,6.953439040707552 L 24.277555179777966,5.987513214418485 A 105.84712375998282 105.84712375998282 0 0 0 32.075869616765715,7.764222404172827 L 31.890725832359653,8.746933846609423 A 106.84712375998282 106.84712375998282 0 0 1 24.018736134675446,6.953439040707552 Z M 68.10343471328298,9.323282099803507 L 67.94965773308081,8.335176518218262 A 105.84712375998282 105.84712375998282 0 0 0 75.80056301594017,6.80753459595398 L 75.1167157233354,3.8865154449730865 L 82.73024891699637,5.698727438373019 L 76.71235940607986,10.702226797261837 L 76.02851211347509,7.781207646280944 A 106.84712375998282 106.84712375998282 0 0 1 68.10343471328298,9.323282099803507"/><text text-anchor="middle" pointer-events="none" font-size="8px" fill="#000000" x="49.980439015117256" y="13.080699796049686" transform="rotate(180 49.980439015117256 10.080699796049686)" font-family="sans-serif">KNOWS</text></g><g class="relationship" transform="translate(-320.8843550569925 68.08972026094813) rotate(523.9519836733467)"><path class="outline" fill="#A5ABB6" stroke="none" d="M 25 0.5 L 35.490072644540724 0.5 L 35.490072644540724 -0.5 L 25 -0.5 Z M 71.71272889454073 0.5 L 82.20280153908145 0.5 L 82.20280153908145 3.5 L 89.20280153908145 0 L 82.20280153908145 -3.5 L 82.20280153908145 -0.5 L 71.71272889454073 -0.5 Z"/><text text-anchor="middle" pointer-events="none" font-size="8px" fill="#000000" x="53.601400769540724" y="3" transform="rotate(180 53.601400769540724 0)" font-family="sans-serif">KNOWS</text></g><g class="relationship" transform="translate(-266.2622087353888 246.99760175583484) rotate(204.55207243113318)"><path class="outline" fill="#A5ABB6" stroke="none" d="M 25 0.5 L 35.46485965319497 0.5 L 35.46485965319497 -0.5 L 25 -0.5 Z M 71.68751590319496 0.5 L 82.15237555638994 0.5 L 82.15237555638994 3.5 L 89.15237555638994 0 L 82.15237555638994 -3.5 L 82.15237555638994 -0.5 L 71.68751590319496 -0.5 Z"/><text text-anchor="middle" pointer-events="none" font-size="8px" fill="#000000" x="53.57618777819497" y="3" transform="rotate(180 53.57618777819497 0)" font-family="sans-serif">KNOWS</text></g><g class="relationship" transform="translate(535.3018405185319 -169.65369435859353) rotate(386.16753511912293)"><path class="outline" fill="#A5ABB6" stroke="none" d="M 25 0.5 L 37.900794976009344 0.5 L 37.900794976009344 -0.5 L 25 -0.5 Z M 74.12345122600934 0.5 L 87.02424620201869 0.5 L 87.02424620201869 3.5 L 94.02424620201869 0 L 87.02424620201869 -3.5 L 87.02424620201869 -0.5 L 74.12345122600934 -0.5 Z"/><text text-anchor="middle" pointer-events="none" font-size="8px" fill="#000000" x="56.012123101009344" y="3" font-family="sans-serif">KNOWS</text></g><g class="relationship" transform="translate(535.3018405185319 -169.65369435859353) rotate(537.5441397588431)"><path class="outline" fill="#A5ABB6" stroke="none" d="M 25 0.5 L 45.8789104856164 0.5 L 45.8789104856164 -0.5 L 25 -0.5 Z M 82.1015667356164 0.5 L 102.9804772212328 0.5 L 102.9804772212328 3.5 L 109.9804772212328 0 L 102.9804772212328 -3.5 L 102.9804772212328 -0.5 L 82.1015667356164 -0.5 Z"/><text text-anchor="middle" pointer-events="none" font-size="8px" fill="#000000" x="63.9902386106164" y="3" transform="rotate(180 63.9902386106164 0)" font-family="sans-serif">KNOWS</text></g><g class="relationship" transform="translate(460.65336241473415 -104.08142922306656) rotate(257.5353694904127)"><path class="outline" fill="#A5ABB6" stroke="none" d="M 25 0.5 L 52.452684025079535 0.5 L 52.452684025079535 -0.5 L 25 -0.5 Z M 88.67534027507953 0.5 L 116.12802430015907 0.5 L 116.12802430015907 3.5 L 123.12802430015907 0 L 116.12802430015907 -3.5 L 116.12802430015907 -0.5 L 88.67534027507953 -0.5 Z"/><text text-anchor="middle" pointer-events="none" font-size="8px" fill="#000000" x="70.56401215007953" y="3" transform="rotate(180 70.56401215007953 0)" font-family="sans-serif">KNOWS</text></g><g class="relationship" transform="translate(460.65336241473415 -104.08142922306656) rotate(458.7099212165066)"><path class="outline" fill="#A5ABB6" stroke="none" d="M 25 0.5 L 42.364721679345784 0.5 L 42.364721679345784 -0.5 L 25 -0.5 Z M 78.58737792934579 0.5 L 95.95209960869157 0.5 L 95.95209960869157 3.5 L 102.95209960869157 0 L 95.95209960869157 -3.5 L 95.95209960869157 -0.5 L 78.58737792934579 -0.5 Z"/><text text-anchor="middle" pointer-events="none" font-size="8px" fill="#000000" x="60.476049804345784" y="3" transform="rotate(180 60.476049804345784 0)" font-family="sans-serif">KNOWS</text></g><g class="relationship" transform="translate(307.90874945197555 -228.59861430346572) rotate(242.39201098775715)"><path class="outline" fill="#A5ABB6" stroke="none" d="M 25 0.5 L 37.09327311994177 0.5 L 37.09327311994177 -0.5 L 25 -0.5 Z M 73.31592936994177 0.5 L 85.40920248988354 0.5 L 85.40920248988354 3.5 L 92.40920248988354 0 L 85.40920248988354 -3.5 L 85.40920248988354 -0.5 L 73.31592936994177 -0.5 Z"/><text text-anchor="middle" pointer-events="none" font-size="8px" fill="#000000" x="55.20460124494177" y="3" transform="rotate(180 55.20460124494177 0)" font-family="sans-serif">KNOWS</text></g><g class="relationship" transform="translate(307.90874945197555 -228.59861430346572) rotate(350.54205177088295)"><path class="outline" fill="#A5ABB6" stroke="none" d="M 25 0.5 L 39.6074108932439 0.5 L 39.6074108932439 -0.5 L 25 -0.5 Z M 75.8300671432439 0.5 L 90.4374780364878 0.5 L 90.4374780364878 3.5 L 97.4374780364878 0 L 90.4374780364878 -3.5 L 90.4374780364878 -0.5 L 75.8300671432439 -0.5 Z"/><text text-anchor="middle" pointer-events="none" font-size="8px" fill="#000000" x="57.7187390182439" y="3" font-family="sans-serif">KNOWS</text></g><g class="relationship" transform="translate(362.96304305252374 -57.66965978322246) rotate(289.43998064887637)"><path class="outline" fill="#A5ABB6" stroke="none" d="M 25 0.5 L 34.69896436052835 0.5 L 34.69896436052835 -0.5 L 25 -0.5 Z M 70.92162061052835 0.5 L 80.6205849710567 0.5 L 80.6205849710567 3.5 L 87.6205849710567 0 L 80.6205849710567 -3.5 L 80.6205849710567 -0.5 L 70.92162061052835 -0.5 Z"/><text text-anchor="middle" pointer-events="none" font-size="8px" fill="#000000" x="52.81029248552835" y="3" font-family="sans-serif">KNOWS</text></g><g class="relationship" transform="translate(362.96304305252374 -57.66965978322246) rotate(334.58803851714947)"><path class="outline" fill="#A5ABB6" stroke="none" d="M 25 0.5 L 32.46604893701159 0.5 L 32.46604893701159 -0.5 L 25 -0.5 Z M 68.68870518701159 0.5 L 76.15475412402319 0.5 L 76.15475412402319 3.5 L 83.15475412402319 0 L 76.15475412402319 -3.5 L 76.15475412402319 -0.5 L 68.68870518701159 -0.5 Z"/><text text-anchor="middle" pointer-events="none" font-size="8px" fill="#000000" x="50.57737706201159" y="3" font-family="sans-serif">KNOWS</text></g><g class="relationship" transform="translate(336.9641229138231 86.49180954413302) rotate(328.4307651072429)"><path class="outline" fill="#A5ABB6" stroke="none" d="M 25 0.5 L 39.60475132341685 0.5 L 39.60475132341685 -0.5 L 25 -0.5 Z M 75.82740757341685 0.5 L 90.4321588968337 0.5 L 90.4321588968337 3.5 L 97.4321588968337 0 L 90.4321588968337 -3.5 L 90.4321588968337 -0.5 L 75.82740757341685 -0.5 Z"/><text text-anchor="middle" pointer-events="none" font-size="8px" fill="#000000" x="57.71607944841685" y="3" font-family="sans-serif">KNOWS</text></g><g class="relationship" transform="translate(441.2773221782302 22.39508582627336) rotate(225.63322942125166)"><path class="outline" fill="#A5ABB6" stroke="none" d="M 25 0.5 L 34.38753303416184 0.5 L 34.38753303416184 -0.5 L 25 -0.5 Z M 70.61018928416183 0.5 L 79.99772231832368 0.5 L 79.99772231832368 3.5 L 86.99772231832368 0 L 79.99772231832368 -3.5 L 79.99772231832368 -0.5 L 70.61018928416183 -0.5 Z"/><text text-anchor="middle" pointer-events="none" font-size="8px" fill="#000000" x="52.49886115916184" y="3" transform="rotate(180 52.49886115916184 0)" font-family="sans-serif">KNOWS</text></g><g class="relationship" transform="translate(234.33326465170177 19.773493161001372) rotate(393.0271085501284)"><path class="outline" fill="#A5ABB6" stroke="none" d="M 25 0.5 L 39.594118545658496 0.5 L 39.594118545658496 -0.5 L 25 -0.5 Z M 75.81677479565849 0.5 L 90.41089334131699 0.5 L 90.41089334131699 3.5 L 97.41089334131699 0 L 90.41089334131699 -3.5 L 90.41089334131699 -0.5 L 75.81677479565849 -0.5 Z"/><text text-anchor="middle" pointer-events="none" font-size="8px" fill="#000000" x="57.705446670658496" y="3" font-family="sans-serif">KNOWS</text></g><g class="relationship" transform="translate(400.4453389783765 -163.86981821695457) rotate(214.97256096199726)"><path class="outline" fill="#A5ABB6" stroke="none" d="M 25 0.5 L 34.852902685281045 0.5 L 34.852902685281045 -0.5 L 25 -0.5 Z M 71.07555893528104 0.5 L 80.92846162056209 0.5 L 80.92846162056209 3.5 L 87.92846162056209 0 L 80.92846162056209 -3.5 L 80.92846162056209 -0.5 L 71.07555893528104 -0.5 Z"/><text text-anchor="middle" pointer-events="none" font-size="8px" fill="#000000" x="52.964230810281045" y="3" transform="rotate(180 52.964230810281045 0)" font-family="sans-serif">KNOWS</text></g><g class="relationship" transform="translate(682.2906581336026 183.52648340890534) rotate(448.98364418446704)"><path class="outline" fill="#A5ABB6" stroke="none" d="M 24.018736134675446,6.953439040707552 L 24.277555179777966,5.987513214418485 A 105.84712375998282 105.84712375998282 0 0 0 32.075869616765715,7.764222404172827 L 31.890725832359653,8.746933846609423 A 106.84712375998282 106.84712375998282 0 0 1 24.018736134675446,6.953439040707552 Z M 68.10343471328298,9.323282099803507 L 67.94965773308081,8.335176518218262 A 105.84712375998282 105.84712375998282 0 0 0 75.80056301594017,6.80753459595398 L 75.1167157233354,3.8865154449730865 L 82.73024891699637,5.698727438373019 L 76.71235940607986,10.702226797261837 L 76.02851211347509,7.781207646280944 A 106.84712375998282 106.84712375998282 0 0 1 68.10343471328298,9.323282099803507"/><text text-anchor="middle" pointer-events="none" font-size="8px" fill="#000000" x="49.980439015117256" y="13.080699796049686" font-family="sans-serif">KNOWS</text></g><g class="relationship" transform="translate(-430.63671481352515 99.66026677581631) rotate(263.1732089574088)"><path class="outline" fill="#A5ABB6" stroke="none" d="M 25 0.5 L 40.14584599325605 0.5 L 40.14584599325605 -0.5 L 25 -0.5 Z M 76.36850224325605 0.5 L 91.5143482365121 0.5 L 91.5143482365121 3.5 L 98.5143482365121 0 L 91.5143482365121 -3.5 L 91.5143482365121 -0.5 L 76.36850224325605 -0.5 Z"/><text text-anchor="middle" pointer-events="none" font-size="8px" fill="#000000" x="58.25717411825605" y="3" transform="rotate(180 58.25717411825605 0)" font-family="sans-serif">KNOWS</text></g><g class="relationship" transform="translate(-281.6743434866218 -217.43153678617713) rotate(370.4367259065304)"><path class="outline" fill="#A5ABB6" stroke="none" d="M 25 0.5 L 47.11360906624665 0.5 L 47.11360906624665 -0.5 L 25 -0.5 Z M 83.33626531624665 0.5 L 105.4498743824933 0.5 L 105.4498743824933 3.5 L 112.4498743824933 0 L 105.4498743824933 -3.5 L 105.4498743824933 -0.5 L 83.33626531624665 -0.5 Z"/><text text-anchor="middle" pointer-events="none" font-size="8px" fill="#000000" x="65.22493719124665" y="3" font-family="sans-serif">KNOWS</text></g><g class="relationship" transform="translate(-281.6743434866218 -217.43153678617713) rotate(494.5528243573025)"><path class="outline" fill="#A5ABB6" stroke="none" d="M 25 0.5 L 43.58055159295793 0.5 L 43.58055159295793 -0.5 L 25 -0.5 Z M 79.80320784295793 0.5 L 98.38375943591586 0.5 L 98.38375943591586 3.5 L 105.38375943591586 0 L 98.38375943591586 -3.5 L 98.38375943591586 -0.5 L 79.80320784295793 -0.5 Z"/><text text-anchor="middle" pointer-events="none" font-size="8px" fill="#000000" x="61.69187971795793" y="3" transform="rotate(180 61.69187971795793 0)" font-family="sans-serif">KNOWS</text></g><g class="relationship" transform="translate(-216.31030027267684 -157.09567133433094) rotate(420.9562999996518)"><path class="outline" fill="#A5ABB6" stroke="none" d="M 25 0.5 L 30.699549583698605 0.5 L 30.699549583698605 -0.5 L 25 -0.5 Z M 66.9222058336986 0.5 L 72.62175541739721 0.5 L 72.62175541739721 3.5 L 79.62175541739721 0 L 72.62175541739721 -3.5 L 72.62175541739721 -0.5 L 66.9222058336986 -0.5 Z"/><text text-anchor="middle" pointer-events="none" font-size="8px" fill="#000000" x="48.810877708698605" y="3" font-family="sans-serif">KNOWS</text></g><g class="relationship" transform="translate(468.0705926057369 -356.2743081213593) rotate(470.11348190537984)"><path class="outline" fill="#A5ABB6" stroke="none" d="M 25 0.5 L 35.65959080259816 0.5 L 35.65959080259816 -0.5 L 25 -0.5 Z M 71.88224705259816 0.5 L 82.54183785519632 0.5 L 82.54183785519632 3.5 L 89.54183785519632 0 L 82.54183785519632 -3.5 L 82.54183785519632 -0.5 L 71.88224705259816 -0.5 Z"/><text text-anchor="middle" pointer-events="none" font-size="8px" fill="#000000" x="53.77091892759816" y="3" transform="rotate(180 53.77091892759816 0)" font-family="sans-serif">KNOWS</text></g><g class="relationship" transform="translate(-370.0933839293617 199.56499795838772) rotate(238.7836907253723)"><path class="outline" fill="#A5ABB6" stroke="none" d="M 25 0.5 L 36.79768279628498 0.5 L 36.79768279628498 -0.5 L 25 -0.5 Z M 73.02033904628499 0.5 L 84.81802184256996 0.5 L 84.81802184256996 3.5 L 91.81802184256996 0 L 84.81802184256996 -3.5 L 84.81802184256996 -0.5 L 73.02033904628499 -0.5 Z"/><text text-anchor="middle" pointer-events="none" font-size="8px" fill="#000000" x="54.90901092128498" y="3" transform="rotate(180 54.90901092128498 0)" font-family="sans-serif">KNOWS</text></g><g class="relationship" transform="translate(428.6818701084136 -248.71799189922876) rotate(468.40687033192035)"><path class="outline" fill="#A5ABB6" stroke="none" d="M 25 0.5 L 25.543646819879932 0.5 L 25.543646819879932 -0.5 L 25 -0.5 Z M 56.87958431987993 0.5 L 57.423231139759864 0.5 L 57.423231139759864 3.5 L 64.42323113975986 0 L 57.423231139759864 -3.5 L 57.423231139759864 -0.5 L 56.87958431987993 -0.5 Z"/><text text-anchor="middle" pointer-events="none" font-size="8px" fill="#000000" x="41.21161556987993" y="3" transform="rotate(180 41.21161556987993 0)" font-family="sans-serif">KNO…</text></g><g class="relationship" transform="translate(-445.31865022360535 -22.978369032417522) rotate(305.40369499864823)"><path class="outline" fill="#A5ABB6" stroke="none" d="M 24.018736134675446,-6.953439040707552 L 24.277555179777966,-5.987513214418485 A 140.674793089288 140.674793089288 0 0 1 40.766465692530026,-9.363323023447663 L 40.624859618924724,-10.353246111327763 A 141.674793089288 141.674793089288 0 0 0 24.018736134675446,-6.953439040707552 Z M 76.87272665786378,-10.85326463362415 L 76.7584801111932,-9.859812205687177 A 140.674793089288 140.674793089288 0 0 1 93.33423359270182,-6.940110459868309 L 92.63800304396013,-4.022018099609841 L 100.25915419142852,-5.801921239514106 L 94.26254099102407,-10.830900273546268 L 93.56631044228237,-7.9128079132878 A 141.674793089288 141.674793089288 0 0 0 76.87272665786378,-10.85326463362415"/><text text-anchor="middle" pointer-events="none" font-size="8px" fill="#000000" x="58.73963080764631" y="-8.267460660698447" font-family="sans-serif">KNOWS</text></g><g class="relationship" transform="translate(-373.14722828640174 -124.51955655193086) rotate(403.0078300745283)"><path class="outline" fill="#A5ABB6" stroke="none" d="M 25 0.5 L 40.758438391225745 0.5 L 40.758438391225745 -0.5 L 25 -0.5 Z M 76.98109464122575 0.5 L 92.73953303245149 0.5 L 92.73953303245149 3.5 L 99.73953303245149 0 L 92.73953303245149 -3.5 L 92.73953303245149 -0.5 L 76.98109464122575 -0.5 Z"/><text text-anchor="middle" pointer-events="none" font-size="8px" fill="#000000" x="58.869766516225745" y="3" font-family="sans-serif">KNOWS</text></g><g class="relationship" transform="translate(-373.14722828640174 -124.51955655193086) rotate(485.40369499864823)"><path class="outline" fill="#A5ABB6" stroke="none" d="M 24.018736134675446,-6.953439040707552 L 24.277555179777966,-5.987513214418485 A 140.674793089288 140.674793089288 0 0 1 40.766465692530026,-9.363323023447663 L 40.624859618924724,-10.353246111327763 A 141.674793089288 141.674793089288 0 0 0 24.018736134675446,-6.953439040707552 Z M 76.87272665786378,-10.85326463362415 L 76.7584801111932,-9.859812205687177 A 140.674793089288 140.674793089288 0 0 1 93.33423359270182,-6.940110459868309 L 92.63800304396013,-4.022018099609841 L 100.25915419142852,-5.801921239514106 L 94.26254099102407,-10.830900273546268 L 93.56631044228237,-7.9128079132878 A 141.674793089288 141.674793089288 0 0 0 76.87272665786378,-10.85326463362415"/><text text-anchor="middle" pointer-events="none" font-size="8px" fill="#000000" x="58.73963080764631" y="-8.267460660698447" transform="rotate(180 58.73963080764631 -11.267460660698447)" font-family="sans-serif">KNOWS</text></g><g class="relationship" transform="translate(-281.93013592714846 -39.434933013494074) rotate(469.9145272407781)"><path class="outline" fill="#A5ABB6" stroke="none" d="M 25 0.5 L 35.57036092360393 0.5 L 35.57036092360393 -0.5 L 25 -0.5 Z M 71.79301717360393 0.5 L 82.36337809720786 0.5 L 82.36337809720786 3.5 L 89.36337809720786 0 L 82.36337809720786 -3.5 L 82.36337809720786 -0.5 L 71.79301717360393 -0.5 Z"/><text text-anchor="middle" pointer-events="none" font-size="8px" fill="#000000" x="53.68168904860393" y="3" transform="rotate(180 53.68168904860393 0)" font-family="sans-serif">KNOWS</text></g><g class="relationship" transform="translate(-281.93013592714846 -39.434933013494074) rotate(347.3183650257881)"><path class="outline" fill="#A5ABB6" stroke="none" d="M 25 0.5 L 38.049728422107975 0.5 L 38.049728422107975 -0.5 L 25 -0.5 Z M 74.27238467210798 0.5 L 87.32211309421595 0.5 L 87.32211309421595 3.5 L 94.32211309421595 0 L 87.32211309421595 -3.5 L 87.32211309421595 -0.5 L 74.27238467210798 -0.5 Z"/><text text-anchor="middle" pointer-events="none" font-size="8px" fill="#000000" x="56.161056547107975" y="3" font-family="sans-serif">KNOWS</text></g><g class="relationship" transform="translate(-33.609047682522586 -168.67694846038782) rotate(398.3681231638932)"><path class="outline" fill="#A5ABB6" stroke="none" d="M 25 0.5 L 32.233920241585494 0.5 L 32.233920241585494 -0.5 L 25 -0.5 Z M 68.4565764915855 0.5 L 75.69049673317099 0.5 L 75.69049673317099 3.5 L 82.69049673317099 0 L 75.69049673317099 -3.5 L 75.69049673317099 -0.5 L 68.4565764915855 -0.5 Z"/><text text-anchor="middle" pointer-events="none" font-size="8px" fill="#000000" x="50.345248366585494" y="3" font-family="sans-serif">KNOWS</text></g><g class="relationship" transform="translate(-33.609047682522586 -168.67694846038782) rotate(191.93210068344138)"><path class="outline" fill="#A5ABB6" stroke="none" d="M 25 0.5 L 36.079915531265044 0.5 L 36.079915531265044 -0.5 L 25 -0.5 Z M 72.30257178126504 0.5 L 83.38248731253009 0.5 L 83.38248731253009 3.5 L 90.38248731253009 0 L 83.38248731253009 -3.5 L 83.38248731253009 -0.5 L 72.30257178126504 -0.5 Z"/><text text-anchor="middle" pointer-events="none" font-size="8px" fill="#000000" x="54.191243656265044" y="3" transform="rotate(180 54.191243656265044 0)" font-family="sans-serif">KNOWS</text></g><g class="relationship" transform="translate(157.51427430542836 105.1920320287545) rotate(311.96582434637344)"><path class="outline" fill="#A5ABB6" stroke="none" d="M 25 0.5 L 35.82882346803355 0.5 L 35.82882346803355 -0.5 L 25 -0.5 Z M 72.05147971803355 0.5 L 82.8803031860671 0.5 L 82.8803031860671 3.5 L 89.8803031860671 0 L 82.8803031860671 -3.5 L 82.8803031860671 -0.5 L 72.05147971803355 -0.5 Z"/><text text-anchor="middle" pointer-events="none" font-size="8px" fill="#000000" x="53.94015159303355" y="3" font-family="sans-serif">KNOWS</text></g><g class="relationship" transform="translate(138.75212658412164 316.7756937869766) rotate(440.5094354127925)"><path class="outline" fill="#A5ABB6" stroke="none" d="M 25 0.5 L 32.833546629887344 0.5 L 32.833546629887344 -0.5 L 25 -0.5 Z M 69.05620287988734 0.5 L 76.88974950977469 0.5 L 76.88974950977469 3.5 L 83.88974950977469 0 L 76.88974950977469 -3.5 L 76.88974950977469 -0.5 L 69.05620287988734 -0.5 Z"/><text text-anchor="middle" pointer-events="none" font-size="8px" fill="#000000" x="50.944874754887344" y="3" font-family="sans-serif">KNOWS</text></g><g class="relationship" transform="translate(257.6977829242702 -107.75248540604571) rotate(460.3822312547077)"><path class="outline" fill="#A5ABB6" stroke="none" d="M 25 0.5 L 43.21300357921453 0.5 L 43.21300357921453 -0.5 L 25 -0.5 Z M 79.43565982921453 0.5 L 97.64866340842906 0.5 L 97.64866340842906 3.5 L 104.64866340842906 0 L 97.64866340842906 -3.5 L 97.64866340842906 -0.5 L 79.43565982921453 -0.5 Z"/><text text-anchor="middle" pointer-events="none" font-size="8px" fill="#000000" x="61.32433170421453" y="3" transform="rotate(180 61.32433170421453 0)" font-family="sans-serif">KNOWS</text></g><g class="relationship" transform="translate(257.6977829242702 -107.75248540604571) rotate(385.4440464892247)"><path class="outline" fill="#A5ABB6" stroke="none" d="M 25 0.5 L 36.67474313614053 0.5 L 36.67474313614053 -0.5 L 25 -0.5 Z M 72.89739938614053 0.5 L 84.57214252228106 0.5 L 84.57214252228106 3.5 L 91.57214252228106 0 L 84.57214252228106 -3.5 L 84.57214252228106 -0.5 L 72.89739938614053 -0.5 Z"/><text text-anchor="middle" pointer-events="none" font-size="8px" fill="#000000" x="54.78607126114053" y="3" font-family="sans-serif">KNOWS</text></g><g class="relationship" transform="translate(257.6977829242702 -107.75248540604571) rotate(292.56264201011584)"><path class="outline" fill="#A5ABB6" stroke="none" d="M 25 0.5 L 43.81979602310362 0.5 L 43.81979602310362 -0.5 L 25 -0.5 Z M 80.04245227310362 0.5 L 98.86224829620724 0.5 L 98.86224829620724 3.5 L 105.86224829620724 0 L 98.86224829620724 -3.5 L 98.86224829620724 -0.5 L 80.04245227310362 -0.5 Z"/><text text-anchor="middle" pointer-events="none" font-size="8px" fill="#000000" x="61.93112414810362" y="3" font-family="sans-serif">KNOWS</text></g><g class="relationship" transform="translate(-57.685328766469 -48.6464796521763) rotate(281.3421437244965)"><path class="outline" fill="#A5ABB6" stroke="none" d="M 25 0.5 L 39.599334249197994 0.5 L 39.599334249197994 -0.5 L 25 -0.5 Z M 75.821990499198 0.5 L 90.42132474839599 0.5 L 90.42132474839599 3.5 L 97.42132474839599 0 L 90.42132474839599 -3.5 L 90.42132474839599 -0.5 L 75.821990499198 -0.5 Z"/><text text-anchor="middle" pointer-events="none" font-size="8px" fill="#000000" x="57.710662374197994" y="3" font-family="sans-serif">KNOWS</text></g><g class="relationship" transform="translate(-57.685328766469 -48.6464796521763) rotate(188.95049078337286)"><path class="outline" fill="#A5ABB6" stroke="none" d="M 25 0.5 L 32.97008253069386 0.5 L 32.97008253069386 -0.5 L 25 -0.5 Z M 69.19273878069386 0.5 L 77.16282131138772 0.5 L 77.16282131138772 3.5 L 84.16282131138772 0 L 77.16282131138772 -3.5 L 77.16282131138772 -0.5 L 69.19273878069386 -0.5 Z"/><text text-anchor="middle" pointer-events="none" font-size="8px" fill="#000000" x="51.08141065569386" y="3" transform="rotate(180 51.08141065569386 0)" font-family="sans-serif">KNOWS</text></g><g class="relationship" transform="translate(-125.75144640734656 376.42535417416406) rotate(487.8557145936041)"><path class="outline" fill="#A5ABB6" stroke="none" d="M 25 0.5 L 31.502591905891435 0.5 L 31.502591905891435 -0.5 L 25 -0.5 Z M 67.72524815589144 0.5 L 74.22784006178287 0.5 L 74.22784006178287 3.5 L 81.22784006178287 0 L 74.22784006178287 -3.5 L 74.22784006178287 -0.5 L 67.72524815589144 -0.5 Z"/><text text-anchor="middle" pointer-events="none" font-size="8px" fill="#000000" x="49.613920030891435" y="3" transform="rotate(180 49.613920030891435 0)" font-family="sans-serif">KNOWS</text></g><g class="relationship" transform="translate(392.84374748576784 596.9551252529254) rotate(305.9893574030068)"><path class="outline" fill="#A5ABB6" stroke="none" d="M 25 0.5 L 34.1037785655083 0.5 L 34.1037785655083 -0.5 L 25 -0.5 Z M 70.32643481550829 0.5 L 79.4302133810166 0.5 L 79.4302133810166 3.5 L 86.4302133810166 0 L 79.4302133810166 -3.5 L 79.4302133810166 -0.5 L 70.32643481550829 -0.5 Z"/><text text-anchor="middle" pointer-events="none" font-size="8px" fill="#000000" x="52.2151066905083" y="3" font-family="sans-serif">KNOWS</text></g><g class="relationship" transform="translate(392.84374748576784 596.9551252529254) rotate(537.764637093769)"><path class="outline" fill="#A5ABB6" stroke="none" d="M 25 0.5 L 35.84573107701437 0.5 L 35.84573107701437 -0.5 L 25 -0.5 Z M 72.06838732701436 0.5 L 82.91411840402874 0.5 L 82.91411840402874 3.5 L 89.91411840402874 0 L 82.91411840402874 -3.5 L 82.91411840402874 -0.5 L 72.06838732701436 -0.5 Z"/><text text-anchor="middle" pointer-events="none" font-size="8px" fill="#000000" x="53.95705920201437" y="3" transform="rotate(180 53.95705920201437 0)" font-family="sans-serif">KNOWS</text></g></g><g class="layer nodes"><g class="node" transform="translate(360.98548470859214,455.3163084850651)"><circle class="outline" cx="0" cy="0" r="25" fill="#F79767" stroke="#f36924" stroke-width="2px"/><text text-anchor="middle" pointer-events="none" font-family="sans-serif" dy="1.5625" font-size="25" fill="#FFFFFF"/><text text-anchor="middle" pointer-events="none" y="5" font-size="10px" fill="#FFFFFF" font-family="sans-serif"> Kyson</text></g><g class="node" transform="translate(-190.94082815491876,460.29846375978167)"><circle class="outline" cx="0" cy="0" r="25" fill="#4C8EDA" stroke="#2870c2" stroke-width="2px"/><text text-anchor="middle" pointer-events="none" font-family="sans-serif" dy="1.5625" font-size="25" fill="#FFFFFF"/><text text-anchor="middle" pointer-events="none" y="5" font-size="10px" fill="#FFFFFF" font-family="sans-serif"> Xander</text></g><g class="node" transform="translate(455.9986905989579,278.65313992498494)"><circle class="outline" cx="0" cy="0" r="25" fill="#F79767" stroke="#f36924" stroke-width="2px"/><text text-anchor="middle" pointer-events="none" font-family="sans-serif" dy="1.5625" font-size="25" fill="#FFFFFF"/><text text-anchor="middle" pointer-events="none" y="5" font-size="10px" fill="#FFFFFF" font-family="sans-serif"> Gabriel</text></g><g class="node" transform="translate(187.97889703579702,531.2232523901898)"><circle class="outline" cx="0" cy="0" r="25" fill="#4C8EDA" stroke="#2870c2" stroke-width="2px"/><text text-anchor="middle" pointer-events="none" font-family="sans-serif" dy="1.5625" font-size="25" fill="#FFFFFF"/><text text-anchor="middle" pointer-events="none" y="5" font-size="10px" fill="#FFFFFF" font-family="sans-serif"> Edith</text></g><g class="node" transform="translate(156.70643286731612,424.1750440372957)"><circle class="outline" cx="0" cy="0" r="25" fill="#F79767" stroke="#f36924" stroke-width="2px"/><text text-anchor="middle" pointer-events="none" font-family="sans-serif" dy="1.5625" font-size="25" fill="#FFFFFF"/><text text-anchor="middle" pointer-events="none" y="5" font-size="10px" fill="#FFFFFF" font-family="sans-serif"> Emelia</text></g><g class="node" transform="translate(-146.49850055684044,-192.53255174689755)"><circle class="outline" cx="0" cy="0" r="25" fill="#F79767" stroke="#f36924" stroke-width="2px"/><text text-anchor="middle" pointer-events="none" font-family="sans-serif" dy="1.5625" font-size="25" fill="#FFFFFF"/><text text-anchor="middle" pointer-events="none" y="5" font-size="10px" fill="#FFFFFF" font-family="sans-serif"> Sunday</text></g><g class="node" transform="translate(278.0170749150497,601.4372982652293)"><circle class="outline" cx="0" cy="0" r="25" fill="#F79767" stroke="#f36924" stroke-width="2px"/><text text-anchor="middle" pointer-events="none" font-family="sans-serif" dy="1.5625" font-size="25" fill="#FFFFFF"/><text text-anchor="middle" pointer-events="none" y="5" font-size="10px" fill="#FFFFFF" font-family="sans-serif"> Lauralee</text></g><g class="node" transform="translate(684.1898838737816,290.581713191972)"><circle class="outline" cx="0" cy="0" r="25" fill="#F79767" stroke="#f36924" stroke-width="2px"/><text text-anchor="middle" pointer-events="none" font-family="sans-serif" dy="1.5625" font-size="25" fill="#FFFFFF"/><text text-anchor="middle" pointer-events="none" y="5" font-size="10px" fill="#FFFFFF" font-family="sans-serif"> Lynn</text></g><g class="node" transform="translate(-320.8843550569925,68.08972026094813)"><circle class="outline" cx="0" cy="0" r="25" fill="#F79767" stroke="#f36924" stroke-width="2px"/><text text-anchor="middle" pointer-events="none" font-family="sans-serif" dy="1.5625" font-size="25" fill="#FFFFFF"/><text text-anchor="middle" pointer-events="none" y="5" font-size="10px" fill="#FFFFFF" font-family="sans-serif"> Lenora</text></g><g class="node" transform="translate(-266.2622087353888,246.99760175583484)"><circle class="outline" cx="0" cy="0" r="25" fill="#F79767" stroke="#f36924" stroke-width="2px"/><text text-anchor="middle" pointer-events="none" font-family="sans-serif" dy="1.5625" font-size="25" fill="#FFFFFF"/><text text-anchor="middle" pointer-events="none" y="5" font-size="10px" fill="#FFFFFF" font-family="sans-serif"> Harn</text></g><g class="node" transform="translate(535.3018405185319,-169.65369435859353)"><circle class="outline" cx="0" cy="0" r="25" fill="#F79767" stroke="#f36924" stroke-width="2px"/><text text-anchor="middle" pointer-events="none" font-family="sans-serif" dy="1.5625" font-size="25" fill="#FFFFFF"/><text text-anchor="middle" pointer-events="none" y="5" font-size="10px" fill="#FFFFFF" font-family="sans-serif"> Mckenzie</text></g><g class="node" transform="translate(534.7670524730493,351.19980312200323)"><circle class="outline" cx="0" cy="0" r="25" fill="#F79767" stroke="#f36924" stroke-width="2px"/><text text-anchor="middle" pointer-events="none" font-family="sans-serif" dy="1.5625" font-size="25" fill="#FFFFFF"/><text text-anchor="middle" pointer-events="none" y="5" font-size="10px" fill="#FFFFFF" font-family="sans-serif"> Whitley</text></g><g class="node" transform="translate(460.65336241473415,-104.08142922306656)"><circle class="outline" cx="0" cy="0" r="25" fill="#F79767" stroke="#f36924" stroke-width="2px"/><text text-anchor="middle" pointer-events="none" font-family="sans-serif" dy="1.5625" font-size="25" fill="#FFFFFF"/><text text-anchor="middle" pointer-events="none" y="5" font-size="10px" fill="#FFFFFF" font-family="sans-serif"> Vera</text></g><g class="node" transform="translate(-165.51889041487092,-65.63013470290862)"><circle class="outline" cx="0" cy="0" r="25" fill="#F79767" stroke="#f36924" stroke-width="2px"/><text text-anchor="middle" pointer-events="none" font-family="sans-serif" dy="1.5625" font-size="25" fill="#FFFFFF"/><text text-anchor="middle" pointer-events="none" y="5" font-size="10px" fill="#FFFFFF" font-family="sans-serif"> Earl</text></g><g class="node" transform="translate(307.90874945197555,-228.59861430346572)"><circle class="outline" cx="0" cy="0" r="25" fill="#F79767" stroke="#f36924" stroke-width="2px"/><text text-anchor="middle" pointer-events="none" font-family="sans-serif" dy="1.5625" font-size="25" fill="#FFFFFF"/><text text-anchor="middle" pointer-events="none" y="5" font-size="10px" fill="#FFFFFF" font-family="sans-serif"> Cullen</text></g><g class="node" transform="translate(362.96304305252374,-57.66965978322246)"><circle class="outline" cx="0" cy="0" r="25" fill="#4C8EDA" stroke="#2870c2" stroke-width="2px"/><text text-anchor="middle" pointer-events="none" font-family="sans-serif" dy="1.5625" font-size="25" fill="#FFFFFF"/><text text-anchor="middle" pointer-events="none" y="5" font-size="10px" fill="#FFFFFF" font-family="sans-serif"> Estes</text></g><g class="node" transform="translate(336.9641229138231,86.49180954413302)"><circle class="outline" cx="0" cy="0" r="25" fill="#F79767" stroke="#f36924" stroke-width="2px"/><text text-anchor="middle" pointer-events="none" font-family="sans-serif" dy="1.5625" font-size="25" fill="#FFFFFF"/><text text-anchor="middle" pointer-events="none" y="5" font-size="10px" fill="#FFFFFF" font-family="sans-serif"> Isola</text></g><g class="node" transform="translate(441.2773221782302,22.39508582627336)"><circle class="outline" cx="0" cy="0" r="25" fill="#F79767" stroke="#f36924" stroke-width="2px"/><text text-anchor="middle" pointer-events="none" font-family="sans-serif" dy="1.5625" font-size="25" fill="#FFFFFF"/><text text-anchor="middle" pointer-events="none" y="5" font-size="10px" fill="#FFFFFF" font-family="sans-serif"> Steph</text></g><g class="node" transform="translate(234.33326465170177,19.773493161001372)"><circle class="outline" cx="0" cy="0" r="25" fill="#F79767" stroke="#f36924" stroke-width="2px"/><text text-anchor="middle" pointer-events="none" font-family="sans-serif" dy="1.5625" font-size="25" fill="#FFFFFF"/><text text-anchor="middle" pointer-events="none" y="5" font-size="10px" fill="#FFFFFF" font-family="sans-serif"> Oscar</text></g><g class="node" transform="translate(400.4453389783765,-163.86981821695457)"><circle class="outline" cx="0" cy="0" r="25" fill="#F79767" stroke="#f36924" stroke-width="2px"/><text text-anchor="middle" pointer-events="none" font-family="sans-serif" dy="1.5625" font-size="25" fill="#FFFFFF"/><text text-anchor="middle" pointer-events="none" y="5" font-size="10px" fill="#FFFFFF" font-family="sans-serif"> Antonia</text></g><g class="node" transform="translate(642.1271002479735,-117.16431383551924)"><circle class="outline" cx="0" cy="0" r="25" fill="#F79767" stroke="#f36924" stroke-width="2px"/><text text-anchor="middle" pointer-events="none" font-family="sans-serif" dy="1.5625" font-size="25" fill="#FFFFFF"/><text text-anchor="middle" pointer-events="none" y="5" font-size="10px" fill="#FFFFFF" font-family="sans-serif"> Christie</text></g><g class="node" transform="translate(682.2906581336026,183.52648340890534)"><circle class="outline" cx="0" cy="0" r="25" fill="#F79767" stroke="#f36924" stroke-width="2px"/><text text-anchor="middle" pointer-events="none" font-family="sans-serif" dy="1.5625" font-size="25" fill="#FFFFFF"/><text text-anchor="middle" pointer-events="none" y="5" font-size="10px" fill="#FFFFFF" font-family="sans-serif"> Arabella</text></g><g class="node" transform="translate(253.49902402924883,-332.6394841995501)"><circle class="outline" cx="0" cy="0" r="25" fill="#F79767" stroke="#f36924" stroke-width="2px"/><text text-anchor="middle" pointer-events="none" font-family="sans-serif" dy="1.5625" font-size="25" fill="#FFFFFF"/><text text-anchor="middle" pointer-events="none" y="5" font-size="10px" fill="#FFFFFF" font-family="sans-serif"> Casey</text></g><g class="node" transform="translate(139.6471535218733,-502.4583949968137)"><circle class="outline" cx="0" cy="0" r="25" fill="#F79767" stroke="#f36924" stroke-width="2px"/><text text-anchor="middle" pointer-events="none" font-family="sans-serif" dy="1.5625" font-size="25" fill="#FFFFFF"/><text text-anchor="middle" pointer-events="none" y="5" font-size="10px" fill="#FFFFFF" font-family="sans-serif"> Cayden</text></g><g class="node" transform="translate(-430.63671481352515,99.66026677581631)"><circle class="outline" cx="0" cy="0" r="25" fill="#F79767" stroke="#f36924" stroke-width="2px"/><text text-anchor="middle" pointer-events="none" font-family="sans-serif" dy="1.5625" font-size="25" fill="#FFFFFF"/><text text-anchor="middle" pointer-events="none" y="5" font-size="10px" fill="#FFFFFF" font-family="sans-serif"> Briley</text></g><g class="node" transform="translate(50.82449254867632,-101.8322001949958)"><circle class="outline" cx="0" cy="0" r="25" fill="#F79767" stroke="#f36924" stroke-width="2px"/><text text-anchor="middle" pointer-events="none" font-family="sans-serif" dy="1.5625" font-size="25" fill="#FFFFFF"/><text text-anchor="middle" pointer-events="none" y="5" font-size="10px" fill="#FFFFFF" font-family="sans-serif"> Raferty</text></g><g class="node" transform="translate(-281.6743434866218,-217.43153678617713)"><circle class="outline" cx="0" cy="0" r="25" fill="#F79767" stroke="#f36924" stroke-width="2px"/><text text-anchor="middle" pointer-events="none" font-family="sans-serif" dy="1.5625" font-size="25" fill="#FFFFFF"/><text text-anchor="middle" pointer-events="none" y="5" font-size="10px" fill="#FFFFFF" font-family="sans-serif"> Madeline</text></g><g class="node" transform="translate(-216.31030027267684,-157.09567133433094)"><circle class="outline" cx="0" cy="0" r="25" fill="#F79767" stroke="#f36924" stroke-width="2px"/><text text-anchor="middle" pointer-events="none" font-family="sans-serif" dy="1.5625" font-size="25" fill="#FFFFFF"/><text text-anchor="middle" pointer-events="none" y="5" font-size="10px" fill="#FFFFFF" font-family="sans-serif"> Shia</text></g><g class="node" transform="translate(468.0705926057369,-356.2743081213593)"><circle class="outline" cx="0" cy="0" r="25" fill="#F79767" stroke="#f36924" stroke-width="2px"/><text text-anchor="middle" pointer-events="none" font-family="sans-serif" dy="1.5625" font-size="25" fill="#FFFFFF"/><text text-anchor="middle" pointer-events="none" y="5" font-size="10px" fill="#FFFFFF" font-family="sans-serif"> Rory</text></g><g class="node" transform="translate(-11.37401448209386,-446.6254240729613)"><circle class="outline" cx="0" cy="0" r="25" fill="#F79767" stroke="#f36924" stroke-width="2px"/><text text-anchor="middle" pointer-events="none" font-family="sans-serif" dy="1.5625" font-size="25" fill="#FFFFFF"/><text text-anchor="middle" pointer-events="none" y="5" font-size="10px" fill="#FFFFFF" font-family="sans-serif"> Cleo</text></g><g class="node" transform="translate(-179.43897998438334,-450.3653201007611)"><circle class="outline" cx="0" cy="0" r="25" fill="#F79767" stroke="#f36924" stroke-width="2px"/><text text-anchor="middle" pointer-events="none" font-family="sans-serif" dy="1.5625" font-size="25" fill="#FFFFFF"/><text text-anchor="middle" pointer-events="none" y="5" font-size="10px" fill="#FFFFFF" font-family="sans-serif"> Raymond</text></g><g class="node" transform="translate(-370.0933839293617,199.56499795838772)"><circle class="outline" cx="0" cy="0" r="25" fill="#F79767" stroke="#f36924" stroke-width="2px"/><text text-anchor="middle" pointer-events="none" font-family="sans-serif" dy="1.5625" font-size="25" fill="#FFFFFF"/><text text-anchor="middle" pointer-events="none" y="5" font-size="10px" fill="#FFFFFF" font-family="sans-serif"> Everly</text></g><g class="node" transform="translate(428.6818701084136,-248.71799189922876)"><circle class="outline" cx="0" cy="0" r="25" fill="#F79767" stroke="#f36924" stroke-width="2px"/><text text-anchor="middle" pointer-events="none" font-family="sans-serif" dy="1.5625" font-size="25" fill="#FFFFFF"/><text text-anchor="middle" pointer-events="none" y="5" font-size="10px" fill="#FFFFFF" font-family="sans-serif"> Rhett</text></g><g class="node" transform="translate(-445.31865022360535,-22.978369032417522)"><circle class="outline" cx="0" cy="0" r="25" fill="#F79767" stroke="#f36924" stroke-width="2px"/><text text-anchor="middle" pointer-events="none" font-family="sans-serif" dy="1.5625" font-size="25" fill="#FFFFFF"/><text text-anchor="middle" pointer-events="none" y="5" font-size="10px" fill="#FFFFFF" font-family="sans-serif"> Gerard</text></g><g class="node" transform="translate(-373.14722828640174,-124.51955655193086)"><circle class="outline" cx="0" cy="0" r="25" fill="#4C8EDA" stroke="#2870c2" stroke-width="2px"/><text text-anchor="middle" pointer-events="none" font-family="sans-serif" dy="1.5625" font-size="25" fill="#FFFFFF"/><text text-anchor="middle" pointer-events="none" y="5" font-size="10px" fill="#FFFFFF" font-family="sans-serif"> Melanie</text></g><g class="node" transform="translate(-281.93013592714846,-39.434933013494074)"><circle class="outline" cx="0" cy="0" r="25" fill="#F79767" stroke="#f36924" stroke-width="2px"/><text text-anchor="middle" pointer-events="none" font-family="sans-serif" dy="1.5625" font-size="25" fill="#FFFFFF"/><text text-anchor="middle" pointer-events="none" y="5" font-size="10px" fill="#FFFFFF" font-family="sans-serif"> Collin</text></g><g class="node" transform="translate(-33.609047682522586,-168.67694846038782)"><circle class="outline" cx="0" cy="0" r="25" fill="#F79767" stroke="#f36924" stroke-width="2px"/><text text-anchor="middle" pointer-events="none" font-family="sans-serif" dy="1.5625" font-size="25" fill="#FFFFFF"/><text text-anchor="middle" pointer-events="none" y="5" font-size="10px" fill="#FFFFFF" font-family="sans-serif"> Becky</text></g><g class="node" transform="translate(157.51427430542836,105.1920320287545)"><circle class="outline" cx="0" cy="0" r="25" fill="#F79767" stroke="#f36924" stroke-width="2px"/><text text-anchor="middle" pointer-events="none" font-family="sans-serif" dy="1.5625" font-size="25" fill="#FFFFFF"/><text text-anchor="middle" pointer-events="none" y="5" font-size="10px" fill="#FFFFFF" font-family="sans-serif"> Davina</text></g><g class="node" transform="translate(458.32403742418495,506.79402452916696)"><circle class="outline" cx="0" cy="0" r="25" fill="#F79767" stroke="#f36924" stroke-width="2px"/><text text-anchor="middle" pointer-events="none" font-family="sans-serif" dy="1.5625" font-size="25" fill="#FFFFFF"/><text text-anchor="middle" pointer-events="none" y="5" font-size="10px" fill="#FFFFFF" font-family="sans-serif"> Oreli</text></g><g class="node" transform="translate(138.75212658412164,316.7756937869766)"><circle class="outline" cx="0" cy="0" r="25" fill="#F79767" stroke="#f36924" stroke-width="2px"/><text text-anchor="middle" pointer-events="none" font-family="sans-serif" dy="1.5625" font-size="25" fill="#FFFFFF"/><text text-anchor="middle" pointer-events="none" y="5" font-size="10px" fill="#FFFFFF" font-family="sans-serif"> Braxton</text></g><g class="node" transform="translate(257.6977829242702,-107.75248540604571)"><circle class="outline" cx="0" cy="0" r="25" fill="#F79767" stroke="#f36924" stroke-width="2px"/><text text-anchor="middle" pointer-events="none" font-family="sans-serif" dy="1.5625" font-size="25" fill="#FFFFFF"/><text text-anchor="middle" pointer-events="none" y="5" font-size="10px" fill="#FFFFFF" font-family="sans-serif"> Utte</text></g><g class="node" transform="translate(-57.685328766469,-48.6464796521763)"><circle class="outline" cx="0" cy="0" r="25" fill="#F79767" stroke="#f36924" stroke-width="2px"/><text text-anchor="middle" pointer-events="none" font-family="sans-serif" dy="1.5625" font-size="25" fill="#FFFFFF"/><text text-anchor="middle" pointer-events="none" y="5" font-size="10px" fill="#FFFFFF" font-family="sans-serif"> Una</text></g><g class="node" transform="translate(-477.27747552987387,330.60503553931665)"><circle class="outline" cx="0" cy="0" r="25" fill="#F79767" stroke="#f36924" stroke-width="2px"/><text text-anchor="middle" pointer-events="none" font-family="sans-serif" dy="1.5625" font-size="25" fill="#FFFFFF"/><text text-anchor="middle" pointer-events="none" y="5" font-size="10px" fill="#FFFFFF" font-family="sans-serif"> Aleni</text></g><g class="node" transform="translate(-368.01439735762506,464.80576943950336)"><circle class="outline" cx="0" cy="0" r="25" fill="#F79767" stroke="#f36924" stroke-width="2px"/><text text-anchor="middle" pointer-events="none" font-family="sans-serif" dy="1.5625" font-size="25" fill="#FFFFFF"/><text text-anchor="middle" pointer-events="none" y="5" font-size="10px" fill="#FFFFFF" font-family="sans-serif"> Emil</text></g><g class="node" transform="translate(-207.17953168555852,564.52478188565)"><circle class="outline" cx="0" cy="0" r="25" fill="#F79767" stroke="#f36924" stroke-width="2px"/><text text-anchor="middle" pointer-events="none" font-family="sans-serif" dy="1.5625" font-size="25" fill="#FFFFFF"/><text text-anchor="middle" pointer-events="none" y="5" font-size="10px" fill="#FFFFFF" font-family="sans-serif"> Micah</text></g><g class="node" transform="translate(-125.75144640734656,376.42535417416406)"><circle class="outline" cx="0" cy="0" r="25" fill="#F79767" stroke="#f36924" stroke-width="2px"/><text text-anchor="middle" pointer-events="none" font-family="sans-serif" dy="1.5625" font-size="25" fill="#FFFFFF"/><text text-anchor="middle" pointer-events="none" y="5" font-size="10px" fill="#FFFFFF" font-family="sans-serif"> Edwin</text></g><g class="node" transform="translate(-62.51897214107599,656.6739322489773)"><circle class="outline" cx="0" cy="0" r="25" fill="#F79767" stroke="#f36924" stroke-width="2px"/><text text-anchor="middle" pointer-events="none" font-family="sans-serif" dy="1.5625" font-size="25" fill="#FFFFFF"/><text text-anchor="middle" pointer-events="none" y="5" font-size="10px" fill="#FFFFFF" font-family="sans-serif"> Oakley</text></g><g class="node" transform="translate(392.84374748576784,596.9551252529254)"><circle class="outline" cx="0" cy="0" r="25" fill="#F79767" stroke="#f36924" stroke-width="2px"/><text text-anchor="middle" pointer-events="none" font-family="sans-serif" dy="1.5625" font-size="25" fill="#FFFFFF"/><text text-anchor="middle" pointer-events="none" y="5" font-size="10px" fill="#FFFFFF" font-family="sans-serif"> Regina</text></g><g class="node" transform="translate(2.4419523069242484,419.165071640794)"><circle class="outline" cx="0" cy="0" r="25" fill="#F79767" stroke="#f36924" stroke-width="2px"/><text text-anchor="middle" pointer-events="none" font-family="sans-serif" dy="1.5625" font-size="25" fill="#FFFFFF"/><text text-anchor="middle" pointer-events="none" y="5" font-size="10px" fill="#FFFFFF" font-family="sans-serif"> Douglas</text></g><g class="node" transform="translate(94.4946318603231,695.9578223226025)"><circle class="outline" cx="0" cy="0" r="25" fill="#F79767" stroke="#f36924" stroke-width="2px"/><text text-anchor="middle" pointer-events="none" font-family="sans-serif" dy="1.5625" font-size="25" fill="#FFFFFF"/><text text-anchor="middle" pointer-events="none" y="5" font-size="10px" fill="#FFFFFF" font-family="sans-serif"> Reid</text></g></g></svg>