<svg xmlns="http://www.w3.org/2000/svg" width="1188.7237548828125" height="1233.227294921875" viewBox="-481.3881530761719 -519.9039306640625 1188.7237548828125 1233.227294921875"><title>Neo4j Graph Visualization</title><desc>Created using Neo4j (http://www.neo4j.com/)</desc><g class="layer relationships"><g class="relationship" transform="translate(222.51317175513117 684.3233639430493) rotate(321.9634449755963)"><path class="outline" fill="#A5ABB6" stroke="none" d="M 25 0.5 L 31.462782070241857 0.5 L 31.462782070241857 -0.5 L 25 -0.5 Z M 67.68543832024186 0.5 L 74.14822039048371 0.5 L 74.14822039048371 3.5 L 81.14822039048371 0 L 74.14822039048371 -3.5 L 74.14822039048371 -0.5 L 67.68543832024186 -0.5 Z"/><text text-anchor="middle" pointer-events="none" font-size="8px" fill="#000000" x="49.57411019524186" y="3" font-family="sans-serif">KNOWS</text></g><g class="relationship" transform="translate(-217.53660309595907 444.94808222691785) rotate(259.8631231665982)"><path class="outline" fill="#A5ABB6" stroke="none" d="M 25 0.5 L 31.088340493209557 0.5 L 31.088340493209557 -0.5 L 25 -0.5 Z M 67.31099674320956 0.5 L 73.39933723641911 0.5 L 73.39933723641911 3.5 L 80.39933723641911 0 L 73.39933723641911 -3.5 L 73.39933723641911 -0.5 L 67.31099674320956 -0.5 Z"/><text text-anchor="middle" pointer-events="none" font-size="8px" fill="#000000" x="49.19966861820956" y="3" transform="rotate(180 49.19966861820956 0)" font-family="sans-serif">KNOWS</text></g><g class="relationship" transform="translate(446.80316203837083 440.94630907914814) rotate(417.4952911273063)"><path class="outline" fill="#A5ABB6" stroke="none" d="M 25 0.5 L 30.602378104079577 0.5 L 30.602378104079577 -0.5 L 25 -0.5 Z M 66.82503435407958 0.5 L 72.42741245815915 0.5 L 72.42741245815915 3.5 L 79.42741245815915 0 L 72.42741245815915 -3.5 L 72.42741245815915 -0.5 L 66.82503435407958 -0.5 Z"/><text text-anchor="middle" pointer-events="none" font-size="8px" fill="#000000" x="48.71370622907958" y="3" font-family="sans-serif">KNOWS</text></g><g class="relationship" transform="translate(98.46444218773136 414.2032610552807) rotate(215.2359016664605)"><path class="outline" fill="#A5ABB6" stroke="none" d="M 24.018736134675446,-6.953439040707552 L 24.277555179777966,-5.987513214418485 A 104.45720436355055 104.45720436355055 0 0 1 31.731977240262122,-7.695100588993711 L 31.54452160284319,-8.6773736589696 A 105.45720436355055 105.45720436355055 0 0 0 24.018736134675446,-6.953439040707552 Z M 67.75474198815849,-9.257223156605235 L 67.59883350357315,-8.269451652443323 A 104.45720436355055 104.45720436355055 0 0 1 75.10410808482014,-6.801420195788064 L 74.420831928928,-3.8802673934188956 L 82.03401064966356,-5.693967965767911 L 76.01514295934301,-10.696290598946955 L 75.33186680345086,-7.775137796577787 A 105.45720436355055 105.45720436355055 0 0 0 67.75474198815849,-9.257223156605235"/><text text-anchor="middle" pointer-events="none" font-size="8px" fill="#000000" x="49.63256063614839" y="-7.033351659373466" transform="rotate(180 49.63256063614839 -10.033351659373466)" font-family="sans-serif">KNOWS</text></g><g class="relationship" transform="translate(11.57749940587359 352.8296933918024) rotate(395.2359016664605)"><path class="outline" fill="#A5ABB6" stroke="none" d="M 24.018736134675446,-6.953439040707552 L 24.277555179777966,-5.987513214418485 A 104.45720436355055 104.45720436355055 0 0 1 31.731977240262122,-7.695100588993711 L 31.54452160284319,-8.6773736589696 A 105.45720436355055 105.45720436355055 0 0 0 24.018736134675446,-6.953439040707552 Z M 67.75474198815849,-9.257223156605235 L 67.59883350357315,-8.269451652443323 A 104.45720436355055 104.45720436355055 0 0 1 75.10410808482014,-6.801420195788064 L 74.420831928928,-3.8802673934188956 L 82.03401064966356,-5.693967965767911 L 76.01514295934301,-10.696290598946955 L 75.33186680345086,-7.775137796577787 A 105.45720436355055 105.45720436355055 0 0 0 67.75474198815849,-9.257223156605235"/><text text-anchor="middle" pointer-events="none" font-size="8px" fill="#000000" x="49.63256063614839" y="-7.033351659373466" font-family="sans-serif">KNOWS</text></g><g class="relationship" transform="translate(-325.2471446513499 0.5668638388108436) rotate(257.9813925715375)"><path class="outline" fill="#A5ABB6" stroke="none" d="M 25 0.5 L 43.44722466633509 0.5 L 43.44722466633509 -0.5 L 25 -0.5 Z M 79.66988091633509 0.5 L 98.11710558267018 0.5 L 98.11710558267018 3.5 L 105.11710558267018 0 L 98.11710558267018 -3.5 L 98.11710558267018 -0.5 L 79.66988091633509 -0.5 Z"/><text text-anchor="middle" pointer-events="none" font-size="8px" fill="#000000" x="61.55855279133509" y="3" transform="rotate(180 61.55855279133509 0)" font-family="sans-serif">KNOWS</text></g><g class="relationship" transform="translate(204.8906009307293 428.20260909964713) rotate(187.4936911404153)"><path class="outline" fill="#A5ABB6" stroke="none" d="M 25 0.5 L 32.06014709801092 0.5 L 32.06014709801092 -0.5 L 25 -0.5 Z M 68.28280334801093 0.5 L 75.34295044602185 0.5 L 75.34295044602185 3.5 L 82.34295044602185 0 L 75.34295044602185 -3.5 L 75.34295044602185 -0.5 L 68.28280334801093 -0.5 Z"/><text text-anchor="middle" pointer-events="none" font-size="8px" fill="#000000" x="50.17147522301092" y="3" transform="rotate(180 50.17147522301092 0)" font-family="sans-serif">KNOWS</text></g><g class="relationship" transform="translate(623.1586519697785 357.9892630898379) rotate(301.7122831365688)"><path class="outline" fill="#A5ABB6" stroke="none" d="M 24.018736134675446,6.953439040707552 L 24.277555179777966,5.987513214418485 A 101.63813429721539 101.63813429721539 0 0 0 31.03538704911233,7.553197713441435 L 30.843057141340616,8.534528038345599 A 102.63813429721539 102.63813429721539 0 0 1 24.018736134675446,6.953439040707552 Z M 67.04782105048523,9.12160098156491 L 66.88740912251484,8.134550824093253 A 101.63813429721539 101.63813429721539 0 0 0 73.69245104881846,6.788793079949817 L 73.01035437819313,3.867364639627883 L 80.62280018800719,5.684138921877713 L 74.60191327631888,10.684031000379061 L 73.91981660569355,7.762602560057128 A 102.63813429721539 102.63813429721539 0 0 1 67.04782105048523,9.12160098156491"/><text text-anchor="middle" pointer-events="none" font-size="8px" fill="#000000" x="48.92745207518321" y="12.937323327738639" font-family="sans-serif">KNOWS</text></g><g class="relationship" transform="translate(-142.2918874255753 -263.81799911165166) rotate(362.4436318437493)"><path class="outline" fill="#A5ABB6" stroke="none" d="M 25 0.5 L 38.10464842625461 0.5 L 38.10464842625461 -0.5 L 25 -0.5 Z M 74.32730467625461 0.5 L 87.43195310250923 0.5 L 87.43195310250923 3.5 L 94.43195310250923 0 L 87.43195310250923 -3.5 L 87.43195310250923 -0.5 L 74.32730467625461 -0.5 Z"/><text text-anchor="middle" pointer-events="none" font-size="8px" fill="#000000" x="56.21597655125461" y="3" font-family="sans-serif">KNOWS</text></g><g class="relationship" transform="translate(35.516324166144656 -438.66751954099215) rotate(437.32854375624464)"><path class="outline" fill="#A5ABB6" stroke="none" d="M 25 0.5 L 32.670169825170724 0.5 L 32.670169825170724 -0.5 L 25 -0.5 Z M 68.89282607517072 0.5 L 76.56299590034145 0.5 L 76.56299590034145 3.5 L 83.56299590034145 0 L 76.56299590034145 -3.5 L 76.56299590034145 -0.5 L 68.89282607517072 -0.5 Z"/><text text-anchor="middle" pointer-events="none" font-size="8px" fill="#000000" x="50.781497950170724" y="3" font-family="sans-serif">KNOWS</text></g><g class="relationship" transform="translate(451.8864282408875 113.52880360387493) rotate(473.4646002544473)"><path class="outline" fill="#A5ABB6" stroke="none" d="M 25 0.5 L 38.57436978167341 0.5 L 38.57436978167341 -0.5 L 25 -0.5 Z M 74.79702603167341 0.5 L 88.37139581334682 0.5 L 88.37139581334682 3.5 L 95.37139581334682 0 L 88.37139581334682 -3.5 L 88.37139581334682 -0.5 L 74.79702603167341 -0.5 Z"/><text text-anchor="middle" pointer-events="none" font-size="8px" fill="#000000" x="56.68569790667341" y="3" transform="rotate(180 56.68569790667341 0)" font-family="sans-serif">KNOWS</text></g><g class="relationship" transform="translate(451.8864282408875 113.52880360387493) rotate(277.7353099962682)"><path class="outline" fill="#A5ABB6" stroke="none" d="M 25 0.5 L 48.207787903818044 0.5 L 48.207787903818044 -0.5 L 25 -0.5 Z M 84.43044415381804 0.5 L 107.63823205763609 0.5 L 107.63823205763609 3.5 L 114.63823205763609 0 L 107.63823205763609 -3.5 L 107.63823205763609 -0.5 L 84.43044415381804 -0.5 Z"/><text text-anchor="middle" pointer-events="none" font-size="8px" fill="#000000" x="66.31911602881804" y="3" font-family="sans-serif">KNOWS</text></g><g class="relationship" transform="translate(620.5673167702208 -63.77953538629065) rotate(220.94782555195354)"><path class="outline" fill="#A5ABB6" stroke="none" d="M 25 0.5 L 40.76206963549902 0.5 L 40.76206963549902 -0.5 L 25 -0.5 Z M 76.98472588549902 0.5 L 92.74679552099803 0.5 L 92.74679552099803 3.5 L 99.74679552099803 0 L 92.74679552099803 -3.5 L 92.74679552099803 -0.5 L 76.98472588549902 -0.5 Z"/><text text-anchor="middle" pointer-events="none" font-size="8px" fill="#000000" x="58.87339776049902" y="3" transform="rotate(180 58.87339776049902 0)" font-family="sans-serif">KNOWS</text></g><g class="relationship" transform="translate(620.5673167702208 -63.77953538629065) rotate(180.29629390060649)"><path class="outline" fill="#A5ABB6" stroke="none" d="M 25 0.5 L 30.751483420379202 0.5 L 30.751483420379202 -0.5 L 25 -0.5 Z M 66.9741396703792 0.5 L 72.7256230907584 0.5 L 72.7256230907584 3.5 L 79.7256230907584 0 L 72.7256230907584 -3.5 L 72.7256230907584 -0.5 L 66.9741396703792 -0.5 Z"/><text text-anchor="middle" pointer-events="none" font-size="8px" fill="#000000" x="48.8628115453792" y="3" transform="rotate(180 48.8628115453792 0)" font-family="sans-serif">KNOWS</text></g><g class="relationship" transform="translate(410.24076508705394 -123.61730652790727) rotate(228.5412762809902)"><path class="outline" fill="#A5ABB6" stroke="none" d="M 25 0.5 L 39.48562317182668 0.5 L 39.48562317182668 -0.5 L 25 -0.5 Z M 75.70827942182669 0.5 L 90.19390259365336 0.5 L 90.19390259365336 3.5 L 97.19390259365336 0 L 90.19390259365336 -3.5 L 90.19390259365336 -0.5 L 75.70827942182669 -0.5 Z"/><text text-anchor="middle" pointer-events="none" font-size="8px" fill="#000000" x="57.59695129682668" y="3" transform="rotate(180 57.59695129682668 0)" font-family="sans-serif">KNOWS</text></g><g class="relationship" transform="translate(410.24076508705394 -123.61730652790727) rotate(349.30974032056065)"><path class="outline" fill="#A5ABB6" stroke="none" d="M 25 0.5 L 37.46623314580321 0.5 L 37.46623314580321 -0.5 L 25 -0.5 Z M 73.68888939580322 0.5 L 86.15512254160642 0.5 L 86.15512254160642 3.5 L 93.15512254160642 0 L 86.15512254160642 -3.5 L 86.15512254160642 -0.5 L 73.68888939580322 -0.5 Z"/><text text-anchor="middle" pointer-events="none" font-size="8px" fill="#000000" x="55.57756127080321" y="3" font-family="sans-serif">KNOWS</text></g><g class="relationship" transform="translate(551.6057950284738 36.72082676360867) rotate(217.26040254161978)"><path class="outline" fill="#A5ABB6" stroke="none" d="M 25 0.5 L 29.22753388609783 0.5 L 29.22753388609783 -0.5 L 25 -0.5 Z M 65.45019013609783 0.5 L 69.67772402219566 0.5 L 69.67772402219566 3.5 L 76.67772402219566 0 L 69.67772402219566 -3.5 L 69.67772402219566 -0.5 L 65.45019013609783 -0.5 Z"/><text text-anchor="middle" pointer-events="none" font-size="8px" fill="#000000" x="47.33886201109783" y="3" transform="rotate(180 47.33886201109783 0)" font-family="sans-serif">KNOWS</text></g><g class="relationship" transform="translate(551.6057950284738 36.72082676360867) rotate(304.45720588794495)"><path class="outline" fill="#A5ABB6" stroke="none" d="M 25 0.5 L 39.33129709167071 0.5 L 39.33129709167071 -0.5 L 25 -0.5 Z M 75.5539533416707 0.5 L 89.88525043334143 0.5 L 89.88525043334143 3.5 L 96.88525043334143 0 L 89.88525043334143 -3.5 L 89.88525043334143 -0.5 L 75.5539533416707 -0.5 Z"/><text text-anchor="middle" pointer-events="none" font-size="8px" fill="#000000" x="57.44262521667071" y="3" font-family="sans-serif">KNOWS</text></g><g class="relationship" transform="translate(361.25251481068574 -50.40812730245229) rotate(354.857301034549)"><path class="outline" fill="#A5ABB6" stroke="none" d="M 25 0.5 L 55.996368024315984 0.5 L 55.996368024315984 -0.5 L 25 -0.5 Z M 92.21902427431598 0.5 L 123.21539229863197 0.5 L 123.21539229863197 3.5 L 130.21539229863197 0 L 123.21539229863197 -3.5 L 123.21539229863197 -0.5 L 92.21902427431598 -0.5 Z"/><text text-anchor="middle" pointer-events="none" font-size="8px" fill="#000000" x="74.10769614931598" y="3" font-family="sans-serif">KNOWS</text></g><g class="relationship" transform="translate(515.8430939828755 -64.32110101856111) rotate(430.50913164902886)"><path class="outline" fill="#A5ABB6" stroke="none" d="M 25 0.5 L 31.98074674622991 0.5 L 31.98074674622991 -0.5 L 25 -0.5 Z M 68.20340299622991 0.5 L 75.18414974245982 0.5 L 75.18414974245982 3.5 L 82.18414974245982 0 L 75.18414974245982 -3.5 L 75.18414974245982 -0.5 L 68.20340299622991 -0.5 Z"/><text text-anchor="middle" pointer-events="none" font-size="8px" fill="#000000" x="50.09207487122991" y="3" font-family="sans-serif">KNOWS</text></g><g class="relationship" transform="translate(278.7095990760693 30.58103118777047) rotate(315.54436448769894)"><path class="outline" fill="#A5ABB6" stroke="none" d="M 25 0.5 L 36.20860081590759 0.5 L 36.20860081590759 -0.5 L 25 -0.5 Z M 72.43125706590759 0.5 L 83.63985788181517 0.5 L 83.63985788181517 3.5 L 90.63985788181517 0 L 83.63985788181517 -3.5 L 83.63985788181517 -0.5 L 72.43125706590759 -0.5 Z"/><text text-anchor="middle" pointer-events="none" font-size="8px" fill="#000000" x="54.31992894090759" y="3" font-family="sans-serif">KNOWS</text></g><g class="relationship" transform="translate(470.68129843627486 -24.838781857897033) rotate(238.53839970190637)"><path class="outline" fill="#A5ABB6" stroke="none" d="M 25 0.5 L 36.28999959622352 0.5 L 36.28999959622352 -0.5 L 25 -0.5 Z M 72.51265584622351 0.5 L 83.80265544244703 0.5 L 83.80265544244703 3.5 L 90.80265544244703 0 L 83.80265544244703 -3.5 L 83.80265544244703 -0.5 L 72.51265584622351 -0.5 Z"/><text text-anchor="middle" pointer-events="none" font-size="8px" fill="#000000" x="54.40132772122352" y="3" transform="rotate(180 54.40132772122352 0)" font-family="sans-serif">KNOWS</text></g><g class="relationship" transform="translate(678.3355244625993 268.6931177442685) rotate(481.7122831365688)"><path class="outline" fill="#A5ABB6" stroke="none" d="M 24.018736134675446,6.953439040707552 L 24.277555179777966,5.987513214418485 A 101.63813429721539 101.63813429721539 0 0 0 31.03538704911233,7.553197713441435 L 30.843057141340616,8.534528038345599 A 102.63813429721539 102.63813429721539 0 0 1 24.018736134675446,6.953439040707552 Z M 67.04782105048523,9.12160098156491 L 66.88740912251484,8.134550824093253 A 101.63813429721539 101.63813429721539 0 0 0 73.69245104881846,6.788793079949817 L 73.01035437819313,3.867364639627883 L 80.62280018800719,5.684138921877713 L 74.60191327631888,10.684031000379061 L 73.91981660569355,7.762602560057128 A 102.63813429721539 102.63813429721539 0 0 1 67.04782105048523,9.12160098156491"/><text text-anchor="middle" pointer-events="none" font-size="8px" fill="#000000" x="48.92745207518321" y="12.937323327738639" transform="rotate(180 48.92745207518321 9.937323327738639)" font-family="sans-serif">KNOWS</text></g><g class="relationship" transform="translate(-22.968539616676775 -258.72583949547777) rotate(451.8643386550837)"><path class="outline" fill="#A5ABB6" stroke="none" d="M 25 0.5 L 36.969431226022685 0.5 L 36.969431226022685 -0.5 L 25 -0.5 Z M 73.19208747602269 0.5 L 85.16151870204537 0.5 L 85.16151870204537 3.5 L 92.16151870204537 0 L 85.16151870204537 -3.5 L 85.16151870204537 -0.5 L 73.19208747602269 -0.5 Z"/><text text-anchor="middle" pointer-events="none" font-size="8px" fill="#000000" x="55.080759351022685" y="3" transform="rotate(180 55.080759351022685 0)" font-family="sans-serif">KNOWS</text></g><g class="relationship" transform="translate(-197.85549636124267 13.260860989489409) rotate(185.6904789127778)"><path class="outline" fill="#A5ABB6" stroke="none" d="M 25 0.5 L 42.39993966773282 0.5 L 42.39993966773282 -0.5 L 25 -0.5 Z M 78.62259591773282 0.5 L 96.02253558546565 0.5 L 96.02253558546565 3.5 L 103.02253558546565 0 L 96.02253558546565 -3.5 L 96.02253558546565 -0.5 L 78.62259591773282 -0.5 Z"/><text text-anchor="middle" pointer-events="none" font-size="8px" fill="#000000" x="60.51126779273282" y="3" transform="rotate(180 60.51126779273282 0)" font-family="sans-serif">KNOWS</text></g><g class="relationship" transform="translate(-197.85549636124267 13.260860989489409) rotate(300.2434308008347)"><path class="outline" fill="#A5ABB6" stroke="none" d="M 25 0.5 L 40.462426325356624 0.5 L 40.462426325356624 -0.5 L 25 -0.5 Z M 76.68508257535663 0.5 L 92.14750890071325 0.5 L 92.14750890071325 3.5 L 99.14750890071325 0 L 92.14750890071325 -3.5 L 92.14750890071325 -0.5 L 76.68508257535663 -0.5 Z"/><text text-anchor="middle" pointer-events="none" font-size="8px" fill="#000000" x="58.573754450356624" y="3" font-family="sans-serif">KNOWS</text></g><g class="relationship" transform="translate(-263.2974020092736 -83.40803847609862) rotate(205.92739461180946)"><path class="outline" fill="#A5ABB6" stroke="none" d="M 25 0.5 L 27.893346381939253 0.5 L 27.893346381939253 -0.5 L 25 -0.5 Z M 64.11600263193925 0.5 L 67.0093490138785 0.5 L 67.0093490138785 3.5 L 74.0093490138785 0 L 67.0093490138785 -3.5 L 67.0093490138785 -0.5 L 64.11600263193925 -0.5 Z"/><text text-anchor="middle" pointer-events="none" font-size="8px" fill="#000000" x="46.00467450693925" y="3" transform="rotate(180 46.00467450693925 0)" font-family="sans-serif">KNOWS</text></g><g class="relationship" transform="translate(533.6836056717368 -264.16155465566953) rotate(453.53987401585334)"><path class="outline" fill="#A5ABB6" stroke="none" d="M 25 0.5 L 37.81531566723278 0.5 L 37.81531566723278 -0.5 L 25 -0.5 Z M 74.03797191723278 0.5 L 86.85328758446556 0.5 L 86.85328758446556 3.5 L 93.85328758446556 0 L 86.85328758446556 -3.5 L 86.85328758446556 -0.5 L 74.03797191723278 -0.5 Z"/><text text-anchor="middle" pointer-events="none" font-size="8px" fill="#000000" x="55.92664379223278" y="3" transform="rotate(180 55.92664379223278 0)" font-family="sans-serif">KNOWS</text></g><g class="relationship" transform="translate(59.33072279508598 -332.7486897853749) rotate(498.03067259527944)"><path class="outline" fill="#A5ABB6" stroke="none" d="M 25 0.5 L 33.73429265605346 0.5 L 33.73429265605346 -0.5 L 25 -0.5 Z M 69.95694890605347 0.5 L 78.69124156210692 0.5 L 78.69124156210692 3.5 L 85.69124156210692 0 L 78.69124156210692 -3.5 L 78.69124156210692 -0.5 L 69.95694890605347 -0.5 Z"/><text text-anchor="middle" pointer-events="none" font-size="8px" fill="#000000" x="51.84562078105346" y="3" transform="rotate(180 51.84562078105346 0)" font-family="sans-serif">KNOWS</text></g><g class="relationship" transform="translate(526.3452281789826 -145.5350307016671) rotate(474.75868959275783)"><path class="outline" fill="#A5ABB6" stroke="none" d="M 25 0.5 L 44.845532994372704 0.5 L 44.845532994372704 -0.5 L 25 -0.5 Z M 81.0681892443727 0.5 L 100.91372223874541 0.5 L 100.91372223874541 3.5 L 107.91372223874541 0 L 100.91372223874541 -3.5 L 100.91372223874541 -0.5 L 81.0681892443727 -0.5 Z"/><text text-anchor="middle" pointer-events="none" font-size="8px" fill="#000000" x="62.956861119372704" y="3" transform="rotate(180 62.956861119372704 0)" font-family="sans-serif">KNOWS</text></g><g class="relationship" transform="translate(-26.780167760300593 -141.62633925971903) rotate(516.3048990348889)"><path class="outline" fill="#A5ABB6" stroke="none" d="M 24.018736134675446,-6.953439040707552 L 24.277555179777966,-5.987513214418485 A 128.69491670809757 128.69491670809757 0 0 1 37.76355432255457,-8.836891413556316 L 37.60952573450922,-9.824957805083102 A 129.69491670809757 129.69491670809757 0 0 0 24.018736134675446,-6.953439040707552 Z M 73.8495956711094,-10.348959034403919 L 73.7241987361162,-9.356852382529084 A 128.69491670809757 128.69491670809757 0 0 1 87.2869421369027,-6.898576473458716 L 86.59459097964869,-3.979561249954557 L 94.21336951795473,-5.7695929771167265 L 88.21007701324136,-10.790596771464262 L 87.51772585598735,-7.871581547960103 A 129.69491670809757 129.69491670809757 0 0 0 73.8495956711094,-10.348959034403919"/><text text-anchor="middle" pointer-events="none" font-size="8px" fill="#000000" x="55.71839497780227" y="-7.8591830492018175" transform="rotate(180 55.71839497780227 -10.859183049201818)" font-family="sans-serif">KNOWS</text></g><g class="relationship" transform="translate(-135.3255083315824 -93.98933510946053) rotate(221.69030490178653)"><path class="outline" fill="#A5ABB6" stroke="none" d="M 25 0.5 L 44.228120695491455 0.5 L 44.228120695491455 -0.5 L 25 -0.5 Z M 80.45077694549146 0.5 L 99.67889764098291 0.5 L 99.67889764098291 3.5 L 106.67889764098291 0 L 99.67889764098291 -3.5 L 99.67889764098291 -0.5 L 80.45077694549146 -0.5 Z"/><text text-anchor="middle" pointer-events="none" font-size="8px" fill="#000000" x="62.339448820491455" y="3" transform="rotate(180 62.339448820491455 0)" font-family="sans-serif">KNOWS</text></g><g class="relationship" transform="translate(-135.3255083315824 -93.98933510946053) rotate(336.3048990348889)"><path class="outline" fill="#A5ABB6" stroke="none" d="M 24.018736134675446,-6.953439040707552 L 24.277555179777966,-5.987513214418485 A 128.69491670809757 128.69491670809757 0 0 1 37.76355432255457,-8.836891413556316 L 37.60952573450922,-9.824957805083102 A 129.69491670809757 129.69491670809757 0 0 0 24.018736134675446,-6.953439040707552 Z M 73.8495956711094,-10.348959034403919 L 73.7241987361162,-9.356852382529084 A 128.69491670809757 128.69491670809757 0 0 1 87.2869421369027,-6.898576473458716 L 86.59459097964869,-3.979561249954557 L 94.21336951795473,-5.7695929771167265 L 88.21007701324136,-10.790596771464262 L 87.51772585598735,-7.871581547960103 A 129.69491670809757 129.69491670809757 0 0 0 73.8495956711094,-10.348959034403919"/><text text-anchor="middle" pointer-events="none" font-size="8px" fill="#000000" x="55.71839497780227" y="-7.8591830492018175" font-family="sans-serif">KNOWS</text></g><g class="relationship" transform="translate(-233.65682207981945 -181.56949736376455) rotate(318.0058378990757)"><path class="outline" fill="#A5ABB6" stroke="none" d="M 25 0.5 L 39.85485632658787 0.5 L 39.85485632658787 -0.5 L 25 -0.5 Z M 76.07751257658788 0.5 L 90.93236890317574 0.5 L 90.93236890317574 3.5 L 97.93236890317574 0 L 90.93236890317574 -3.5 L 90.93236890317574 -0.5 L 76.07751257658788 -0.5 Z"/><text text-anchor="middle" pointer-events="none" font-size="8px" fill="#000000" x="57.96618445158787" y="3" font-family="sans-serif">KNOWS</text></g><g class="relationship" transform="translate(-233.65682207981945 -181.56949736376455) rotate(515.1874815559431)"><path class="outline" fill="#A5ABB6" stroke="none" d="M 25 0.5 L 43.7662070232042 0.5 L 43.7662070232042 -0.5 L 25 -0.5 Z M 79.9888632732042 0.5 L 98.7550702964084 0.5 L 98.7550702964084 3.5 L 105.7550702964084 0 L 98.7550702964084 -3.5 L 98.7550702964084 -0.5 L 79.9888632732042 -0.5 Z"/><text text-anchor="middle" pointer-events="none" font-size="8px" fill="#000000" x="61.8775351482042" y="3" transform="rotate(180 61.8775351482042 0)" font-family="sans-serif">KNOWS</text></g><g class="relationship" transform="translate(-424.3111279392235 57.51322644033099) rotate(464.879033451504)"><path class="outline" fill="#A5ABB6" stroke="none" d="M 25 0.5 L 33.06021261633603 0.5 L 33.06021261633603 -0.5 L 25 -0.5 Z M 69.28286886633603 0.5 L 77.34308148267206 0.5 L 77.34308148267206 3.5 L 84.34308148267206 0 L 77.34308148267206 -3.5 L 77.34308148267206 -0.5 L 69.28286886633603 -0.5 Z"/><text text-anchor="middle" pointer-events="none" font-size="8px" fill="#000000" x="51.17154074133603" y="3" transform="rotate(180 51.17154074133603 0)" font-family="sans-serif">KNOWS</text></g><g class="relationship" transform="translate(-424.3111279392235 57.51322644033099) rotate(330.1078044784713)"><path class="outline" fill="#A5ABB6" stroke="none" d="M 25 0.5 L 35.521326719676864 0.5 L 35.521326719676864 -0.5 L 25 -0.5 Z M 71.74398296967686 0.5 L 82.26530968935373 0.5 L 82.26530968935373 3.5 L 89.26530968935373 0 L 82.26530968935373 -3.5 L 82.26530968935373 -0.5 L 71.74398296967686 -0.5 Z"/><text text-anchor="middle" pointer-events="none" font-size="8px" fill="#000000" x="53.632654844676864" y="3" font-family="sans-serif">KNOWS</text></g><g class="relationship" transform="translate(173.2769246496599 71.26181252628436) rotate(338.9010887971714)"><path class="outline" fill="#A5ABB6" stroke="none" d="M 25 0.5 L 34.893040748161546 0.5 L 34.893040748161546 -0.5 L 25 -0.5 Z M 71.11569699816155 0.5 L 81.00873774632309 0.5 L 81.00873774632309 3.5 L 88.00873774632309 0 L 81.00873774632309 -3.5 L 81.00873774632309 -0.5 L 71.11569699816155 -0.5 Z"/><text text-anchor="middle" pointer-events="none" font-size="8px" fill="#000000" x="53.004368873161546" y="3" font-family="sans-serif">KNOWS</text></g><g class="relationship" transform="translate(54.696422449064336 254.5093077584404) rotate(473.6801068164651)"><path class="outline" fill="#A5ABB6" stroke="none" d="M 25 0.5 L 32.06860237862868 0.5 L 32.06860237862868 -0.5 L 25 -0.5 Z M 68.29125862862868 0.5 L 75.35986100725736 0.5 L 75.35986100725736 3.5 L 82.35986100725736 0 L 75.35986100725736 -3.5 L 75.35986100725736 -0.5 L 68.29125862862868 -0.5 Z"/><text text-anchor="middle" pointer-events="none" font-size="8px" fill="#000000" x="50.17993050362868" y="3" transform="rotate(180 50.17993050362868 0)" font-family="sans-serif">KNOWS</text></g><g class="relationship" transform="translate(404.7786542432576 14.161622716284603) rotate(532.5794877440228)"><path class="outline" fill="#A5ABB6" stroke="none" d="M 25 0.5 L 41.955572942499494 0.5 L 41.955572942499494 -0.5 L 25 -0.5 Z M 78.17822919249949 0.5 L 95.13380213499899 0.5 L 95.13380213499899 3.5 L 102.13380213499899 0 L 95.13380213499899 -3.5 L 95.13380213499899 -0.5 L 78.17822919249949 -0.5 Z"/><text text-anchor="middle" pointer-events="none" font-size="8px" fill="#000000" x="60.066901067499494" y="3" transform="rotate(180 60.066901067499494 0)" font-family="sans-serif">KNOWS</text></g><g class="relationship" transform="translate(404.7786542432576 14.161622716284603) rotate(368.7348833127985)"><path class="outline" fill="#A5ABB6" stroke="none" d="M 25 0.5 L 52.663713036904625 0.5 L 52.663713036904625 -0.5 L 25 -0.5 Z M 88.88636928690462 0.5 L 116.55008232380925 0.5 L 116.55008232380925 3.5 L 123.55008232380925 0 L 116.55008232380925 -3.5 L 116.55008232380925 -0.5 L 88.88636928690462 -0.5 Z"/><text text-anchor="middle" pointer-events="none" font-size="8px" fill="#000000" x="70.77504116190462" y="3" font-family="sans-serif">KNOWS</text></g><g class="relationship" transform="translate(404.7786542432576 14.161622716284603) rotate(272.2702462743217)"><path class="outline" fill="#A5ABB6" stroke="none" d="M 25 0.5 L 47.33225025352985 0.5 L 47.33225025352985 -0.5 L 25 -0.5 Z M 83.55490650352985 0.5 L 105.8871567570597 0.5 L 105.8871567570597 3.5 L 112.8871567570597 0 L 105.8871567570597 -3.5 L 105.8871567570597 -0.5 L 83.55490650352985 -0.5 Z"/><text text-anchor="middle" pointer-events="none" font-size="8px" fill="#000000" x="65.44357837852985" y="3" font-family="sans-serif">KNOWS</text></g><g class="relationship" transform="translate(-445.85688873344407 -55.991353227198616) rotate(439.2518305081884)"><path class="outline" fill="#A5ABB6" stroke="none" d="M 25 0.5 L 36.154382754604754 0.5 L 36.154382754604754 -0.5 L 25 -0.5 Z M 72.37703900460475 0.5 L 83.53142175920951 0.5 L 83.53142175920951 3.5 L 90.53142175920951 0 L 83.53142175920951 -3.5 L 83.53142175920951 -0.5 L 72.37703900460475 -0.5 Z"/><text text-anchor="middle" pointer-events="none" font-size="8px" fill="#000000" x="54.265710879604754" y="3" font-family="sans-serif">KNOWS</text></g><g class="relationship" transform="translate(-445.85688873344407 -55.991353227198616) rotate(322.907221177225)"><path class="outline" fill="#A5ABB6" stroke="none" d="M 25 0.5 L 37.007350754148064 0.5 L 37.007350754148064 -0.5 L 25 -0.5 Z M 73.23000700414806 0.5 L 85.23735775829613 0.5 L 85.23735775829613 3.5 L 92.23735775829613 0 L 85.23735775829613 -3.5 L 85.23735775829613 -0.5 L 73.23000700414806 -0.5 Z"/><text text-anchor="middle" pointer-events="none" font-size="8px" fill="#000000" x="55.118678879148064" y="3" font-family="sans-serif">KNOWS</text></g><g class="relationship" transform="translate(-121.97617359010154 488.1073745294089) rotate(204.30602797781592)"><path class="outline" fill="#A5ABB6" stroke="none" d="M 25 0.5 L 30.816050694171928 0.5 L 30.816050694171928 -0.5 L 25 -0.5 Z M 67.03870694417193 0.5 L 72.85475763834386 0.5 L 72.85475763834386 3.5 L 79.85475763834386 0 L 72.85475763834386 -3.5 L 72.85475763834386 -0.5 L 67.03870694417193 -0.5 Z"/><text text-anchor="middle" pointer-events="none" font-size="8px" fill="#000000" x="48.92737881917193" y="3" transform="rotate(180 48.92737881917193 0)" font-family="sans-serif">KNOWS</text></g><g class="relationship" transform="translate(250.19169680728402 526.1109924514029) rotate(418.92691742925433)"><path class="outline" fill="#A5ABB6" stroke="none" d="M 25 0.5 L 32.56648970353937 0.5 L 32.56648970353937 -0.5 L 25 -0.5 Z M 68.78914595353936 0.5 L 76.35563565707874 0.5 L 76.35563565707874 3.5 L 83.35563565707874 0 L 76.35563565707874 -3.5 L 76.35563565707874 -0.5 L 68.78914595353936 -0.5 Z"/><text text-anchor="middle" pointer-events="none" font-size="8px" fill="#000000" x="50.67781782853937" y="3" font-family="sans-serif">KNOWS</text></g><g class="relationship" transform="translate(250.19169680728402 526.1109924514029) rotate(245.17055600404598)"><path class="outline" fill="#A5ABB6" stroke="none" d="M 25 0.5 L 32.329011181893435 0.5 L 32.329011181893435 -0.5 L 25 -0.5 Z M 68.55166743189343 0.5 L 75.88067861378687 0.5 L 75.88067861378687 3.5 L 82.88067861378687 0 L 75.88067861378687 -3.5 L 75.88067861378687 -0.5 L 68.55166743189343 -0.5 Z"/><text text-anchor="middle" pointer-events="none" font-size="8px" fill="#000000" x="50.440339306893435" y="3" transform="rotate(180 50.440339306893435 0)" font-family="sans-serif">KNOWS</text></g></g><g class="layer nodes"><g class="node" transform="translate(222.51317175513117,684.3233639430493)"><circle class="outline" cx="0" cy="0" r="25" fill="#F79767" stroke="#f36924" stroke-width="2px"/><text text-anchor="middle" pointer-events="none" font-family="sans-serif" dy="1.5625" font-size="25" fill="#FFFFFF"/><text text-anchor="middle" pointer-events="none" y="5" font-size="10px" fill="#FFFFFF" font-family="sans-serif"> Kyson</text></g><g class="node" transform="translate(-217.53660309595907,444.94808222691785)"><circle class="outline" cx="0" cy="0" r="25" fill="#4C8EDA" stroke="#2870c2" stroke-width="2px"/><text text-anchor="middle" pointer-events="none" font-family="sans-serif" dy="1.5625" font-size="25" fill="#FFFFFF"/><text text-anchor="middle" pointer-events="none" y="5" font-size="10px" fill="#FFFFFF" font-family="sans-serif"> Xander</text></g><g class="node" transform="translate(446.80316203837083,440.94630907914814)"><circle class="outline" cx="0" cy="0" r="25" fill="#F79767" stroke="#f36924" stroke-width="2px"/><text text-anchor="middle" pointer-events="none" font-family="sans-serif" dy="1.5625" font-size="25" fill="#FFFFFF"/><text text-anchor="middle" pointer-events="none" y="5" font-size="10px" fill="#FFFFFF" font-family="sans-serif"> Gabriel</text></g><g class="node" transform="translate(98.46444218773136,414.2032610552807)"><circle class="outline" cx="0" cy="0" r="25" fill="#4C8EDA" stroke="#2870c2" stroke-width="2px"/><text text-anchor="middle" pointer-events="none" font-family="sans-serif" dy="1.5625" font-size="25" fill="#FFFFFF"/><text text-anchor="middle" pointer-events="none" y="5" font-size="10px" fill="#FFFFFF" font-family="sans-serif"> Edith</text></g><g class="node" transform="translate(11.57749940587359,352.8296933918024)"><circle class="outline" cx="0" cy="0" r="25" fill="#F79767" stroke="#f36924" stroke-width="2px"/><text text-anchor="middle" pointer-events="none" font-family="sans-serif" dy="1.5625" font-size="25" fill="#FFFFFF"/><text text-anchor="middle" pointer-events="none" y="5" font-size="10px" fill="#FFFFFF" font-family="sans-serif"> Emelia</text></g><g class="node" transform="translate(-325.2471446513499,0.5668638388108436)"><circle class="outline" cx="0" cy="0" r="25" fill="#F79767" stroke="#f36924" stroke-width="2px"/><text text-anchor="middle" pointer-events="none" font-family="sans-serif" dy="1.5625" font-size="25" fill="#FFFFFF"/><text text-anchor="middle" pointer-events="none" y="5" font-size="10px" fill="#FFFFFF" font-family="sans-serif"> Sunday</text></g><g class="node" transform="translate(204.8906009307293,428.20260909964713)"><circle class="outline" cx="0" cy="0" r="25" fill="#F79767" stroke="#f36924" stroke-width="2px"/><text text-anchor="middle" pointer-events="none" font-family="sans-serif" dy="1.5625" font-size="25" fill="#FFFFFF"/><text text-anchor="middle" pointer-events="none" y="5" font-size="10px" fill="#FFFFFF" font-family="sans-serif"> Lauralee</text></g><g class="node" transform="translate(623.1586519697785,357.9892630898379)"><circle class="outline" cx="0" cy="0" r="25" fill="#F79767" stroke="#f36924" stroke-width="2px"/><text text-anchor="middle" pointer-events="none" font-family="sans-serif" dy="1.5625" font-size="25" fill="#FFFFFF"/><text text-anchor="middle" pointer-events="none" y="5" font-size="10px" fill="#FFFFFF" font-family="sans-serif"> Lynn</text></g><g class="node" transform="translate(-142.2918874255753,-263.81799911165166)"><circle class="outline" cx="0" cy="0" r="25" fill="#F79767" stroke="#f36924" stroke-width="2px"/><text text-anchor="middle" pointer-events="none" font-family="sans-serif" dy="1.5625" font-size="25" fill="#FFFFFF"/><text text-anchor="middle" pointer-events="none" y="5" font-size="10px" fill="#FFFFFF" font-family="sans-serif"> Lenora</text></g><g class="node" transform="translate(35.516324166144656,-438.66751954099215)"><circle class="outline" cx="0" cy="0" r="25" fill="#F79767" stroke="#f36924" stroke-width="2px"/><text text-anchor="middle" pointer-events="none" font-family="sans-serif" dy="1.5625" font-size="25" fill="#FFFFFF"/><text text-anchor="middle" pointer-events="none" y="5" font-size="10px" fill="#FFFFFF" font-family="sans-serif"> Harn</text></g><g class="node" transform="translate(451.8864282408875,113.52880360387493)"><circle class="outline" cx="0" cy="0" r="25" fill="#F79767" stroke="#f36924" stroke-width="2px"/><text text-anchor="middle" pointer-events="none" font-family="sans-serif" dy="1.5625" font-size="25" fill="#FFFFFF"/><text text-anchor="middle" pointer-events="none" y="5" font-size="10px" fill="#FFFFFF" font-family="sans-serif"> Mckenzie</text></g><g class="node" transform="translate(502.91920798742444,529.0148838362668)"><circle class="outline" cx="0" cy="0" r="25" fill="#F79767" stroke="#f36924" stroke-width="2px"/><text text-anchor="middle" pointer-events="none" font-family="sans-serif" dy="1.5625" font-size="25" fill="#FFFFFF"/><text text-anchor="middle" pointer-events="none" y="5" font-size="10px" fill="#FFFFFF" font-family="sans-serif"> Whitley</text></g><g class="node" transform="translate(620.5673167702208,-63.77953538629065)"><circle class="outline" cx="0" cy="0" r="25" fill="#F79767" stroke="#f36924" stroke-width="2px"/><text text-anchor="middle" pointer-events="none" font-family="sans-serif" dy="1.5625" font-size="25" fill="#FFFFFF"/><text text-anchor="middle" pointer-events="none" y="5" font-size="10px" fill="#FFFFFF" font-family="sans-serif"> Vera</text></g><g class="node" transform="translate(-352.3413441815909,-126.69807837634607)"><circle class="outline" cx="0" cy="0" r="25" fill="#4C8EDA" stroke="#2870c2" stroke-width="2px"/><text text-anchor="middle" pointer-events="none" font-family="sans-serif" dy="1.5625" font-size="25" fill="#FFFFFF"/><text text-anchor="middle" pointer-events="none" y="5" font-size="10px" fill="#FFFFFF" font-family="sans-serif"> Earl</text></g><g class="node" transform="translate(410.24076508705394,-123.61730652790727)"><circle class="outline" cx="0" cy="0" r="25" fill="#F79767" stroke="#f36924" stroke-width="2px"/><text text-anchor="middle" pointer-events="none" font-family="sans-serif" dy="1.5625" font-size="25" fill="#FFFFFF"/><text text-anchor="middle" pointer-events="none" y="5" font-size="10px" fill="#FFFFFF" font-family="sans-serif"> Cullen</text></g><g class="node" transform="translate(551.6057950284738,36.72082676360867)"><circle class="outline" cx="0" cy="0" r="25" fill="#F79767" stroke="#f36924" stroke-width="2px"/><text text-anchor="middle" pointer-events="none" font-family="sans-serif" dy="1.5625" font-size="25" fill="#FFFFFF"/><text text-anchor="middle" pointer-events="none" y="5" font-size="10px" fill="#FFFFFF" font-family="sans-serif"> Estes</text></g><g class="node" transform="translate(361.25251481068574,-50.40812730245229)"><circle class="outline" cx="0" cy="0" r="25" fill="#F79767" stroke="#f36924" stroke-width="2px"/><text text-anchor="middle" pointer-events="none" font-family="sans-serif" dy="1.5625" font-size="25" fill="#FFFFFF"/><text text-anchor="middle" pointer-events="none" y="5" font-size="10px" fill="#FFFFFF" font-family="sans-serif"> Isola</text></g><g class="node" transform="translate(515.8430939828755,-64.32110101856111)"><circle class="outline" cx="0" cy="0" r="25" fill="#F79767" stroke="#f36924" stroke-width="2px"/><text text-anchor="middle" pointer-events="none" font-family="sans-serif" dy="1.5625" font-size="25" fill="#FFFFFF"/><text text-anchor="middle" pointer-events="none" y="5" font-size="10px" fill="#FFFFFF" font-family="sans-serif"> Steph</text></g><g class="node" transform="translate(278.7095990760693,30.58103118777047)"><circle class="outline" cx="0" cy="0" r="25" fill="#F79767" stroke="#f36924" stroke-width="2px"/><text text-anchor="middle" pointer-events="none" font-family="sans-serif" dy="1.5625" font-size="25" fill="#FFFFFF"/><text text-anchor="middle" pointer-events="none" y="5" font-size="10px" fill="#FFFFFF" font-family="sans-serif"> Oscar</text></g><g class="node" transform="translate(470.68129843627486,-24.838781857897033)"><circle class="outline" cx="0" cy="0" r="25" fill="#4C8EDA" stroke="#2870c2" stroke-width="2px"/><text text-anchor="middle" pointer-events="none" font-family="sans-serif" dy="1.5625" font-size="25" fill="#FFFFFF"/><text text-anchor="middle" pointer-events="none" y="5" font-size="10px" fill="#FFFFFF" font-family="sans-serif"> Antonia</text></g><g class="node" transform="translate(403.9566576243329,223.946238905995)"><circle class="outline" cx="0" cy="0" r="25" fill="#F79767" stroke="#f36924" stroke-width="2px"/><text text-anchor="middle" pointer-events="none" font-family="sans-serif" dy="1.5625" font-size="25" fill="#FFFFFF"/><text text-anchor="middle" pointer-events="none" y="5" font-size="10px" fill="#FFFFFF" font-family="sans-serif"> Christie</text></g><g class="node" transform="translate(678.3355244625993,268.6931177442685)"><circle class="outline" cx="0" cy="0" r="25" fill="#F79767" stroke="#f36924" stroke-width="2px"/><text text-anchor="middle" pointer-events="none" font-family="sans-serif" dy="1.5625" font-size="25" fill="#FFFFFF"/><text text-anchor="middle" pointer-events="none" y="5" font-size="10px" fill="#FFFFFF" font-family="sans-serif"> Arabella</text></g><g class="node" transform="translate(329.338586544197,-215.19343517553546)"><circle class="outline" cx="0" cy="0" r="25" fill="#F79767" stroke="#f36924" stroke-width="2px"/><text text-anchor="middle" pointer-events="none" font-family="sans-serif" dy="1.5625" font-size="25" fill="#FFFFFF"/><text text-anchor="middle" pointer-events="none" y="5" font-size="10px" fill="#FFFFFF" font-family="sans-serif"> Casey</text></g><g class="node" transform="translate(335.32952956708164,-442.0538326331488)"><circle class="outline" cx="0" cy="0" r="25" fill="#F79767" stroke="#f36924" stroke-width="2px"/><text text-anchor="middle" pointer-events="none" font-family="sans-serif" dy="1.5625" font-size="25" fill="#FFFFFF"/><text text-anchor="middle" pointer-events="none" y="5" font-size="10px" fill="#FFFFFF" font-family="sans-serif"> Cayden</text></g><g class="node" transform="translate(-22.968539616676775,-258.72583949547777)"><circle class="outline" cx="0" cy="0" r="25" fill="#F79767" stroke="#f36924" stroke-width="2px"/><text text-anchor="middle" pointer-events="none" font-family="sans-serif" dy="1.5625" font-size="25" fill="#FFFFFF"/><text text-anchor="middle" pointer-events="none" y="5" font-size="10px" fill="#FFFFFF" font-family="sans-serif"> Briley</text></g><g class="node" transform="translate(-452.3881508945505,163.1900462736904)"><circle class="outline" cx="0" cy="0" r="25" fill="#F79767" stroke="#f36924" stroke-width="2px"/><text text-anchor="middle" pointer-events="none" font-family="sans-serif" dy="1.5625" font-size="25" fill="#FFFFFF"/><text text-anchor="middle" pointer-events="none" y="5" font-size="10px" fill="#FFFFFF" font-family="sans-serif"> Raferty</text></g><g class="node" transform="translate(-197.85549636124267,13.260860989489409)"><circle class="outline" cx="0" cy="0" r="25" fill="#F79767" stroke="#f36924" stroke-width="2px"/><text text-anchor="middle" pointer-events="none" font-family="sans-serif" dy="1.5625" font-size="25" fill="#FFFFFF"/><text text-anchor="middle" pointer-events="none" y="5" font-size="10px" fill="#FFFFFF" font-family="sans-serif"> Madeline</text></g><g class="node" transform="translate(-263.2974020092736,-83.40803847609862)"><circle class="outline" cx="0" cy="0" r="25" fill="#F79767" stroke="#f36924" stroke-width="2px"/><text text-anchor="middle" pointer-events="none" font-family="sans-serif" dy="1.5625" font-size="25" fill="#FFFFFF"/><text text-anchor="middle" pointer-events="none" y="5" font-size="10px" fill="#FFFFFF" font-family="sans-serif"> Shia</text></g><g class="node" transform="translate(533.6836056717368,-264.16155465566953)"><circle class="outline" cx="0" cy="0" r="25" fill="#F79767" stroke="#f36924" stroke-width="2px"/><text text-anchor="middle" pointer-events="none" font-family="sans-serif" dy="1.5625" font-size="25" fill="#FFFFFF"/><text text-anchor="middle" pointer-events="none" y="5" font-size="10px" fill="#FFFFFF" font-family="sans-serif"> Rory</text></g><g class="node" transform="translate(186.10372748210415,-490.9039199285964)"><circle class="outline" cx="0" cy="0" r="25" fill="#F79767" stroke="#f36924" stroke-width="2px"/><text text-anchor="middle" pointer-events="none" font-family="sans-serif" dy="1.5625" font-size="25" fill="#FFFFFF"/><text text-anchor="middle" pointer-events="none" y="5" font-size="10px" fill="#FFFFFF" font-family="sans-serif"> Cleo</text></g><g class="node" transform="translate(-244.167066904733,-425.7990056196004)"><circle class="outline" cx="0" cy="0" r="25" fill="#F79767" stroke="#f36924" stroke-width="2px"/><text text-anchor="middle" pointer-events="none" font-family="sans-serif" dy="1.5625" font-size="25" fill="#FFFFFF"/><text text-anchor="middle" pointer-events="none" y="5" font-size="10px" fill="#FFFFFF" font-family="sans-serif"> Raymond</text></g><g class="node" transform="translate(59.33072279508598,-332.7486897853749)"><circle class="outline" cx="0" cy="0" r="25" fill="#F79767" stroke="#f36924" stroke-width="2px"/><text text-anchor="middle" pointer-events="none" font-family="sans-serif" dy="1.5625" font-size="25" fill="#FFFFFF"/><text text-anchor="middle" pointer-events="none" y="5" font-size="10px" fill="#FFFFFF" font-family="sans-serif"> Everly</text></g><g class="node" transform="translate(526.3452281789826,-145.5350307016671)"><circle class="outline" cx="0" cy="0" r="25" fill="#F79767" stroke="#f36924" stroke-width="2px"/><text text-anchor="middle" pointer-events="none" font-family="sans-serif" dy="1.5625" font-size="25" fill="#FFFFFF"/><text text-anchor="middle" pointer-events="none" y="5" font-size="10px" fill="#FFFFFF" font-family="sans-serif"> Rhett</text></g><g class="node" transform="translate(-26.780167760300593,-141.62633925971903)"><circle class="outline" cx="0" cy="0" r="25" fill="#F79767" stroke="#f36924" stroke-width="2px"/><text text-anchor="middle" pointer-events="none" font-family="sans-serif" dy="1.5625" font-size="25" fill="#FFFFFF"/><text text-anchor="middle" pointer-events="none" y="5" font-size="10px" fill="#FFFFFF" font-family="sans-serif"> Gerard</text></g><g class="node" transform="translate(-135.3255083315824,-93.98933510946053)"><circle class="outline" cx="0" cy="0" r="25" fill="#F79767" stroke="#f36924" stroke-width="2px"/><text text-anchor="middle" pointer-events="none" font-family="sans-serif" dy="1.5625" font-size="25" fill="#FFFFFF"/><text text-anchor="middle" pointer-events="none" y="5" font-size="10px" fill="#FFFFFF" font-family="sans-serif"> Melanie</text></g><g class="node" transform="translate(-233.65682207981945,-181.56949736376455)"><circle class="outline" cx="0" cy="0" r="25" fill="#F79767" stroke="#f36924" stroke-width="2px"/><text text-anchor="middle" pointer-events="none" font-family="sans-serif" dy="1.5625" font-size="25" fill="#FFFFFF"/><text text-anchor="middle" pointer-events="none" y="5" font-size="10px" fill="#FFFFFF" font-family="sans-serif"> Collin</text></g><g class="node" transform="translate(-424.3111279392235,57.51322644033099)"><circle class="outline" cx="0" cy="0" r="25" fill="#F79767" stroke="#f36924" stroke-width="2px"/><text text-anchor="middle" pointer-events="none" font-family="sans-serif" dy="1.5625" font-size="25" fill="#FFFFFF"/><text text-anchor="middle" pointer-events="none" y="5" font-size="10px" fill="#FFFFFF" font-family="sans-serif"> Becky</text></g><g class="node" transform="translate(173.2769246496599,71.26181252628436)"><circle class="outline" cx="0" cy="0" r="25" fill="#F79767" stroke="#f36924" stroke-width="2px"/><text text-anchor="middle" pointer-events="none" font-family="sans-serif" dy="1.5625" font-size="25" fill="#FFFFFF"/><text text-anchor="middle" pointer-events="none" y="5" font-size="10px" fill="#FFFFFF" font-family="sans-serif"> Davina</text></g><g class="node" transform="translate(306.11739934209965,618.9186407064735)"><circle class="outline" cx="0" cy="0" r="25" fill="#F79767" stroke="#f36924" stroke-width="2px"/><text text-anchor="middle" pointer-events="none" font-family="sans-serif" dy="1.5625" font-size="25" fill="#FFFFFF"/><text text-anchor="middle" pointer-events="none" y="5" font-size="10px" fill="#FFFFFF" font-family="sans-serif"> Oreli</text></g><g class="node" transform="translate(54.696422449064336,254.5093077584404)"><circle class="outline" cx="0" cy="0" r="25" fill="#F79767" stroke="#f36924" stroke-width="2px"/><text text-anchor="middle" pointer-events="none" font-family="sans-serif" dy="1.5625" font-size="25" fill="#FFFFFF"/><text text-anchor="middle" pointer-events="none" y="5" font-size="10px" fill="#FFFFFF" font-family="sans-serif"> Braxton</text></g><g class="node" transform="translate(404.7786542432576,14.161622716284603)"><circle class="outline" cx="0" cy="0" r="25" fill="#F79767" stroke="#f36924" stroke-width="2px"/><text text-anchor="middle" pointer-events="none" font-family="sans-serif" dy="1.5625" font-size="25" fill="#FFFFFF"/><text text-anchor="middle" pointer-events="none" y="5" font-size="10px" fill="#FFFFFF" font-family="sans-serif"> Utte</text></g><g class="node" transform="translate(-445.85688873344407,-55.991353227198616)"><circle class="outline" cx="0" cy="0" r="25" fill="#F79767" stroke="#f36924" stroke-width="2px"/><text text-anchor="middle" pointer-events="none" font-family="sans-serif" dy="1.5625" font-size="25" fill="#FFFFFF"/><text text-anchor="middle" pointer-events="none" y="5" font-size="10px" fill="#FFFFFF" font-family="sans-serif"> Una</text></g><g class="node" transform="translate(-435.288093714307,343.5554836103046)"><circle class="outline" cx="0" cy="0" r="25" fill="#F79767" stroke="#f36924" stroke-width="2px"/><text text-anchor="middle" pointer-events="none" font-family="sans-serif" dy="1.5625" font-size="25" fill="#FFFFFF"/><text text-anchor="middle" pointer-events="none" y="5" font-size="10px" fill="#FFFFFF" font-family="sans-serif"> Aleni</text></g><g class="node" transform="translate(-355.15666706821673,524.5034894302831)"><circle class="outline" cx="0" cy="0" r="25" fill="#F79767" stroke="#f36924" stroke-width="2px"/><text text-anchor="middle" pointer-events="none" font-family="sans-serif" dy="1.5625" font-size="25" fill="#FFFFFF"/><text text-anchor="middle" pointer-events="none" y="5" font-size="10px" fill="#FFFFFF" font-family="sans-serif"> Emil</text></g><g class="node" transform="translate(-236.08692205233046,341.1940174559736)"><circle class="outline" cx="0" cy="0" r="25" fill="#F79767" stroke="#f36924" stroke-width="2px"/><text text-anchor="middle" pointer-events="none" font-family="sans-serif" dy="1.5625" font-size="25" fill="#FFFFFF"/><text text-anchor="middle" pointer-events="none" y="5" font-size="10px" fill="#FFFFFF" font-family="sans-serif"> Micah</text></g><g class="node" transform="translate(-121.97617359010154,488.1073745294089)"><circle class="outline" cx="0" cy="0" r="25" fill="#F79767" stroke="#f36924" stroke-width="2px"/><text text-anchor="middle" pointer-events="none" font-family="sans-serif" dy="1.5625" font-size="25" fill="#FFFFFF"/><text text-anchor="middle" pointer-events="none" y="5" font-size="10px" fill="#FFFFFF" font-family="sans-serif"> Edwin</text></g><g class="node" transform="translate(-149.38501307115556,657.5247479378354)"><circle class="outline" cx="0" cy="0" r="25" fill="#F79767" stroke="#f36924" stroke-width="2px"/><text text-anchor="middle" pointer-events="none" font-family="sans-serif" dy="1.5625" font-size="25" fill="#FFFFFF"/><text text-anchor="middle" pointer-events="none" y="5" font-size="10px" fill="#FFFFFF" font-family="sans-serif"> Oakley</text></g><g class="node" transform="translate(250.19169680728402,526.1109924514029)"><circle class="outline" cx="0" cy="0" r="25" fill="#F79767" stroke="#f36924" stroke-width="2px"/><text text-anchor="middle" pointer-events="none" font-family="sans-serif" dy="1.5625" font-size="25" fill="#FFFFFF"/><text text-anchor="middle" pointer-events="none" y="5" font-size="10px" fill="#FFFFFF" font-family="sans-serif"> Regina</text></g><g class="node" transform="translate(-75.39629760315314,175.65482500695543)"><circle class="outline" cx="0" cy="0" r="25" fill="#F79767" stroke="#f36924" stroke-width="2px"/><text text-anchor="middle" pointer-events="none" font-family="sans-serif" dy="1.5625" font-size="25" fill="#FFFFFF"/><text text-anchor="middle" pointer-events="none" y="5" font-size="10px" fill="#FFFFFF" font-family="sans-serif"> Douglas</text></g><g class="node" transform="translate(22.29099125685425,658.9169333429091)"><circle class="outline" cx="0" cy="0" r="25" fill="#F79767" stroke="#f36924" stroke-width="2px"/><text text-anchor="middle" pointer-events="none" font-family="sans-serif" dy="1.5625" font-size="25" fill="#FFFFFF"/><text text-anchor="middle" pointer-events="none" y="5" font-size="10px" fill="#FFFFFF" font-family="sans-serif"> Reid</text></g></g></svg>